<?xml version="1.0" encoding="UTF-8" standalone="no"?>
<!-- Created with Inkscape (http://www.inkscape.org/) -->

<svg
   version="1.1"
   id="svg1"
   width="512"
   height="512"
   viewBox="0 0 512 512"
   xml:space="preserve"
   xmlns="http://www.w3.org/2000/svg"
   xmlns:svg="http://www.w3.org/2000/svg"><defs
     id="defs1"><linearGradient
       id="swatch271532"><stop
         style="stop-color:#d90f1c;stop-opacity:1;"
         offset="0"
         id="stop271533" /></linearGradient></defs><g
     id="g1"><path
       style="fill:#d4d5d5;stroke:none;stroke-opacity:1"
       d="m 326.12304,261.8776 c 3.19054,0.0665 4.07207,0.15864 4.24441,0.44357 0.11963,0.1978 0.16904,0.43663 0.10978,0.53073 -0.0593,0.0941 -0.40202,1.72375 -0.76168,3.62141 -0.35967,1.89766 -0.82886,4.31231 -1.04266,5.36588 -0.21379,1.05357 -0.46806,2.54276 -0.56503,3.30932 -0.31466,2.48733 1.72113,2.2917 -22.24677,2.13783 -20.93427,-0.13436 -20.93427,-0.13436 -21.45621,-0.66651 -0.32208,-0.32838 -0.45922,-0.69129 -0.35817,-0.94782 0.0901,-0.22864 0.69309,-3.37496 1.34007,-6.99185 0.64698,-3.61687 1.29146,-6.78699 1.43219,-7.04468 0.14073,-0.25771 0.53017,-0.57017 0.86543,-0.69436 0.43587,-0.16147 2.3981,-0.11795 2.43891,-0.83696 0.011,-0.19408 -0.0175,-0.55238 -0.0149,-0.8439 0.003,-0.38719 -0.072,-0.48259 -0.097,-0.72068 -0.0468,-0.44595 -1.88385,-0.92122 -2.0626,-0.99176 -0.50353,-0.1987 -0.48143,-0.47937 0.42536,-5.40024 1.28534,-6.9752 1.33233,-6.69744 1.79812,-7.10701 0.4433,-0.38981 0.57165,-0.25498 2.1289,-0.74033 0.62525,-0.19487 -0.34434,-2.71728 0.0133,-3.10074 0.10149,-0.10881 -2.23847,-0.31161 -2.11446,-0.38707 -0.67369,-0.77815 1.26151,-5.25207 1.70037,-7.67772 0.64816,-3.53772 1.24482,-6.80145 1.32593,-7.25273 0.10275,-0.57198 0.3346,-0.88983 0.76526,-1.04936 0.33979,-0.12588 3.74888,-0.19833 7.57577,-0.16102 6.05576,0.0595 7.00943,0.12027 7.35482,0.47241 0.2283,0.23278 0.3398,0.62718 0.26254,0.92869 -0.26178,1.0217 -0.92001,4.31738 -1.76529,8.8386 -0.8873,4.74598 -1.16096,5.42368 -2.25606,5.58684 -0.3858,0.0574 -2.49054,0.19161 -2.42689,0.40255 0.0566,0.18751 0.30121,1.30052 0.37182,2.20602 0.034,0.43568 -0.63488,0.90732 -0.13563,1.22152 0.53836,0.33882 2.24928,0.50728 2.33701,0.61508 0.24828,0.30508 0.18562,0.9717 -0.32575,3.46463 -0.34826,1.69779 -0.83837,4.24649 -1.08911,5.66378 -0.4288,2.42369 -0.61367,4.08954 -1.30595,4.31371 -0.21814,0.0706 -1.40976,0.59921 -3.67217,0.73857 0.16348,0.31301 0.97351,0.75699 1.93351,1.17079 0.40704,0.17545 1.46965,-0.006 1.76324,0.20908 0.57341,0.42035 0.23467,1.23487 0.50754,1.33785 0.7695,0.29078 20.78721,-0.0103 23.002,0.0359 z M 86.653171,275.00382 c -1.17885,-0.16449 -2.423606,-0.49487 -2.786598,-0.73964 -0.360821,-0.24329 -0.759872,-0.44329 -0.886779,-0.44443 -0.126906,-10e-4 -0.849222,-0.63264 -1.605145,-1.40332 -2.588663,-2.63922 -3.365342,-5.46492 -2.711025,-9.86323 0.269204,-1.80958 0.518056,-2.68556 0.871102,-3.06638 0.254009,-0.27399 1.622431,-0.49223 2.147771,-1.08418 0.223523,-0.25187 -0.121807,-0.61663 -0.09201,-1.00838 0.03785,-0.49762 0.55983,-0.62336 0.189829,-1.04508 -0.36263,-0.41331 -1.693824,-0.21002 -1.745321,-0.26562 -0.104031,-0.11232 0.10329,-2.24163 0.366193,-3.61098 0.262902,-1.36936 0.770712,-4.02054 1.128468,-5.89151 0.500057,-2.61518 0.776217,-3.52546 1.19432,-3.93666 0.156779,-0.15419 1.648419,0.3833 1.937778,0.0199 0.569936,-0.71568 -0.0089,-2.60374 -0.02387,-3.89397 -0.0015,-0.12688 -1.29598,0.0374 -1.29818,-0.10427 -0.101824,-6.69486 2.298234,-10.573 7.69981,-13.97738 0.582563,-0.36717 1.178144,-0.6665 1.323514,-0.66519 0.14537,10e-4 0.738421,-0.24588 1.31789,-0.54931 1.053582,-0.55167 1.053582,-0.55167 20.187092,-0.45849 16.48491,0.0803 19.2102,0.14445 19.68752,0.46385 0.55402,0.37067 0.55402,0.37067 -0.0183,3.19635 -0.31473,1.55413 -0.88435,4.56247 -1.26581,6.6852 -0.91158,5.07267 -0.87215,4.92754 -1.4162,5.21282 -0.3037,0.15927 -6.43714,0.19925 -17.18376,0.11194 -13.25061,-0.10765 -17.723863,-0.75419 -18.301589,0.28857 -0.150894,0.27235 0.160885,1.25818 0.15697,1.6933 -0.0079,0.88125 -0.183025,1.77992 -0.125,2.11337 0.06602,0.37941 1.794354,0.12116 2.044537,0.25815 0.421371,0.23072 0.494469,0.44107 0.372553,1.07209 -0.08342,0.43178 -0.56292,3.01167 -1.065549,5.7331 -0.575558,3.11628 -1.060897,5.10781 -1.311025,5.37962 -0.320209,0.34795 -1.727979,0.68395 -1.544143,1.5392 0.125405,0.58341 -0.276444,1.59222 -0.35828,2.06993 -0.102265,0.59695 1.77188,0.75162 2.00965,0.90675 0.193541,0.12628 7.139556,0.28446 15.767266,0.35907 9.05758,0.0785 15.51499,0.2288 15.64828,0.36474 0.13807,0.14077 0.0612,1.1441 -0.19618,2.56187 -1.75962,9.69125 -2.19539,11.73022 -2.58992,12.11831 -0.38563,0.37936 -1.90033,0.40352 -17.90834,0.28575 -11.584355,-0.0852 -18.206224,-0.22902 -19.617619,-0.42591 z m 40.797059,0.44311 c -0.60655,-0.36111 -0.55625,-0.63674 0.54668,-2.99541 0.53588,-1.14603 1.87326,-4.208 2.97193,-6.80438 1.09868,-2.59637 2.27486,-5.02085 2.61374,-5.38773 0.36199,-0.39189 0.93632,-0.69537 1.39234,-0.73568 0.50161,-0.0443 2.04861,-0.24812 2.63649,-0.58265 0.30704,-0.17471 -0.11342,-0.15783 -0.0832,-0.6593 0.0222,-0.36856 0.0539,-0.82389 0.0285,-1.16273 -0.0308,-0.41247 -1.94864,-0.026 -2.0307,-0.18288 -0.22846,-0.43675 0.22848,-2.34144 2.16837,-6.82471 3.11933,-7.20918 2.68782,-6.54812 4.38417,-6.71636 0.78875,-0.0782 1.45128,-0.11997 1.58365,-0.12321 0.63578,-0.0156 0.57972,0.0667 1.85676,-0.28247 0.009,-0.25744 -0.15489,-0.60516 -0.10378,-0.78486 0.30105,-1.05857 0.17969,-2.47856 -0.82192,-2.41542 -0.23599,0.0149 -1.73245,-0.0148 -1.76993,-0.12233 -0.0847,-0.24315 0.0633,-1.68604 0.34327,-2.17732 0.20688,-0.36299 1.52683,-3.34317 2.93323,-6.62264 2.98601,-6.96288 3.08556,-7.15346 3.84429,-7.36002 0.31772,-0.0865 5.45949,-0.12452 11.42614,-0.0845 8.99352,0.0603 10.93059,0.13386 11.32873,0.43032 0.43196,0.3216 0.52736,1.06861 0.94862,7.42828 0.30345,4.58092 0.69385,7.88971 0.53954,8.17689 -0.13099,0.24379 -3.3582,-0.0914 -3.7551,-0.0156 -0.71612,0.13672 0.10506,0.5594 -0.0865,2.2552 -0.20884,1.84823 -0.69618,1.86108 3.25518,2.05135 0.33139,0.016 0.68066,0.25956 0.78365,0.46625 0.24008,0.48188 0.80787,11.87372 0.62571,12.33657 -0.0754,0.1917 -2.35662,0.52829 -2.6386,0.59943 -0.47011,0.11859 -0.12343,0.34921 0.0268,1.67963 0.0416,0.36842 -0.43771,0.0223 -0.13213,0.16193 0.63401,0.28977 2.30999,0.80877 2.64568,1.08602 0.59793,0.49383 0.64836,0.71716 0.81825,3.62371 0.0996,1.70359 0.31354,4.95045 0.47547,7.21524 0.16663,2.33048 0.20125,4.30174 0.0798,4.54159 -0.32969,0.65096 -1.31975,0.71884 -8.35843,0.57311 -5.42132,-0.11229 -6.59154,-0.19967 -6.90098,-0.51551 -0.2501,-0.25527 -0.41413,-1.11789 -0.49882,-2.62322 -0.158,-2.80852 -0.24096,-3.23675 -0.72203,-3.72723 -0.33213,-0.3386 -1.30813,-0.40332 -6.83321,-0.45303 -4.2958,-0.0387 -6.65451,0.035 -7.07165,0.22079 -0.64848,0.28885 -1.18907,1.24409 -2.33061,4.11826 -1.16322,2.92875 -0.75874,2.80347 -8.7888,2.72238 -4.21963,-0.043 -7.06543,-0.16985 -7.33067,-0.32776 z m 31.98646,-21.01618 c -0.008,-0.41159 -0.14704,-2.15242 -0.30923,-3.86853 -0.16219,-1.71611 -0.2891,-3.62519 -0.28203,-4.24239 0.0131,-1.1222 0.0131,-1.1222 -1.20947,-1.17114 -0.67228,-0.0269 -1.14719,-0.0876 -1.6491,-0.11139 -0.41279,-0.10002 -0.42404,-0.078 -0.59536,0.16078 -0.092,0.12826 -0.2001,0.13787 -0.28239,0.37461 -0.29532,0.84963 -0.27953,0.86714 -1.76823,5.13871 -0.77457,2.22248 -1.82809,4.04059 -1.90444,4.21484 -0.10997,0.25099 0.70835,0.31017 3.9379,0.28484 4.07671,-0.032 4.07671,-0.032 4.06235,-0.78033 z m 20.375,21.58357 c -0.92921,-0.34201 -0.9174,-0.68088 0.25186,-7.22837 1.36073,-7.61966 1.49166,-8.1468 2.17988,-8.77736 0.32348,-0.29638 1.5504,-0.1423 1.99489,-0.88257 0.18429,-0.30691 -0.0678,-1.16099 -0.0954,-1.64017 -0.005,-0.0871 -1.49094,0.0648 -1.49676,-0.0306 -0.10271,-1.68354 0.0379,-2.97267 0.7556,-6.92411 0.48499,-2.67048 0.92068,-5.18011 0.96819,-5.57691 0.0732,-0.6109 0.25029,-0.76811 1.15556,-1.0256 0.68122,-0.19375 2.73263,-0.23991 3.23849,-0.38022 0.6705,-0.18598 -0.30397,-0.53739 -0.29835,-1.61719 0.005,-0.91115 0.25955,-1.76809 -0.22305,-2.17488 -0.3313,-0.27925 -1.38398,-0.21785 -1.60577,-0.33111 -0.32988,-0.16846 -0.69304,-0.47675 -0.80703,-0.68509 -0.12573,-0.22978 0.10039,-1.97645 0.57474,-4.44006 0.43011,-2.23368 1.01807,-5.3977 1.30658,-7.03113 0.28851,-1.63344 0.64603,-3.08923 0.79449,-3.23509 0.18761,-0.18433 6.20932,-0.21177 19.74521,-0.09 19.47528,0.17523 19.47528,0.17523 20.87747,1.00953 3.5402,2.10642 5.15654,4.60314 5.31157,8.20463 0.0472,1.0978 -0.0391,2.83661 -0.19201,3.86402 -0.23006,1.54624 -0.39568,1.96793 -0.96149,2.44803 -0.55713,0.47275 -0.85958,0.5502 -1.63545,0.4188 -0.89284,-0.15122 -3.0396,0.39499 -2.46523,0.75763 0.13621,0.086 0.14191,1.85112 0.13421,2.70713 -0.009,1.03736 0.71993,0.62332 1.55234,0.53938 0.45306,-0.0457 1.04553,0.34075 1.31574,0.34318 0.23847,0.002 0.50387,0.12013 0.58979,0.26217 0.23772,0.39303 -0.94904,2.21088 -2.64432,4.05053 -1.48213,1.60835 -1.78311,2.19819 -1.28285,2.51403 0.50836,0.32098 1.4848,2.34992 1.69118,3.5141 0.26292,1.48317 -0.24972,2.51776 -1.09383,2.72192 -0.33556,0.0811 -2.00859,0.14575 -2.08554,0.43709 -0.0563,0.21327 -0.0133,0.96197 -0.018,1.49315 -0.004,0.45362 0.87124,0.24441 1.42464,0.46125 0.42574,0.16681 0.54372,0.7797 0.64307,0.95163 0.36206,0.62658 0.34264,0.91102 -0.27517,4.02646 -0.36561,1.84373 -0.97111,5.08908 -1.34554,7.21186 -0.54431,3.0859 -0.7843,3.9462 -1.19715,4.29144 -0.4648,0.3887 -1.20703,0.42559 -7.43451,0.36956 -8.5159,-0.0766 -8.23856,0.0263 -7.60632,-2.82444 0.22618,-1.01984 0.83036,-4.15123 1.34261,-6.95865 0.51226,-2.8074 1.06689,-5.36525 1.23251,-5.68411 0.16563,-0.31884 0.5999,-0.73102 0.96506,-0.91596 0.35816,-0.1814 1.81466,-0.15428 2.32686,-0.65167 0.34071,-0.33086 -0.15455,-1.08545 -0.1455,-1.58967 0.004,-0.20637 -1.48519,0.11758 -1.48619,-0.0342 -0.004,-0.8816 -0.14143,-0.94375 -1.07398,-1.36691 -1.01863,-0.4622 -1.6094,-0.4957 -8.66695,-0.49145 -6.8012,0.004 -7.62329,0.0486 -8.05894,0.43665 -0.26682,0.23766 -1.48764,0.67957 -1.85352,0.67611 -0.36495,-0.003 -2.06161,0.0148 -2.13836,0.26228 -0.0566,0.18254 0.15844,1.33006 0.5085,1.70812 0.35035,0.37838 1.77893,0.48272 2.27765,1.08718 0.40836,0.49492 0.58507,0.95168 0.49814,1.2875 -0.0741,0.28625 -0.44265,2.20115 -0.819,4.25535 -2.00811,10.96079 -1.77215,10.02821 -2.61643,10.34098 -0.64063,0.23731 -13.37326,0.17903 -14.03424,-0.0643 z m 19.77086,-31.26079 C 0,0 0,0 199.58255,244.75353 Z m 32.53059,31.57649 c -0.3661,-0.1927 -0.60512,-0.52509 -0.58403,-0.81214 0.0196,-0.26726 0.59457,-3.56726 1.27763,-7.33334 1.33008,-7.33341 1.49952,-7.79591 2.8736,-7.84391 0.64789,-0.0227 0.68872,-0.0929 0.72581,-1.24878 0.0345,-1.07615 -0.0531,-1.30595 -0.72261,-1.89345 -0.76191,-0.66864 -0.76191,-0.66864 -0.44132,-2.3733 0.17633,-0.93756 0.61599,-3.38547 0.97703,-5.4398 0.88468,-5.03389 0.82648,-4.85192 1.63995,-5.12769 0.3733,-0.12655 2.29378,0.24623 2.70118,-0.24634 0.36726,-0.44405 -0.7559,-1.67414 -0.7875,-3.15864 -0.002,-0.0921 -1.27458,-0.14912 -1.27558,-0.23751 -0.0459,-2.5849 0.0851,-3.66492 0.98827,-8.623 0.57734,-3.16937 1.11489,-6.13172 1.19459,-6.58301 0.10516,-0.59523 0.3291,-0.88877 0.81575,-1.06905 0.44206,-0.16374 7.1693,-0.16204 19.7252,0.005 19.05435,0.25356 19.05435,0.25356 20.41758,0.992 2.01433,1.09117 4.0024,3.23246 4.6863,5.04745 0.7062,1.87419 0.8623,4.37344 0.44025,7.04835 -0.37094,2.35088 -0.74933,2.79846 -2.35369,2.78402 -0.82746,-0.007 -2.86247,0.13272 -2.70386,0.50755 0.10199,0.24096 -0.0548,1.08141 -0.0427,1.94402 0.0145,1.04119 0.1023,1.28091 0.37902,1.56935 0.11862,0.12365 2.39283,0.34266 2.62281,0.48556 0.55797,0.34669 0.76623,0.63517 0.67278,0.93188 -0.14758,0.46861 -1.2157,6.03255 -1.73154,9.0198 -0.24706,1.43075 -0.55757,2.78383 -1.02037,3.17467 -0.4054,0.34238 -2.28588,-0.0396 -2.24429,0.58364 0.0189,0.28282 0.0204,1.65535 0.54392,1.84114 0.36623,0.12997 1.33282,0.0681 1.70492,0.19856 0.3597,0.12609 -0.15322,0.90545 -0.2279,0.99853 -0.13157,0.16399 -0.32235,1.07334 -0.42388,2.02085 -0.23025,2.14884 -0.97325,4.33377 -2.08712,6.13761 -1.03076,1.66926 -4.37584,4.86521 -5.76348,5.50655 -0.54891,0.2537 -1.44813,0.66033 -1.99827,0.90363 -1.80776,0.79949 -5.5875,0.92732 -22.74331,0.76916 -13.04267,-0.12036 -16.74823,-0.2233 -17.23472,-0.47939 z m 35.06955,-15.30876 c 0.64575,0 2.1705,-0.66414 2.73345,-0.88272 0.47119,-0.18294 0.0403,-0.0489 0.0467,-0.75626 0.003,-0.29034 0.002,-0.93719 -0.005,-1.13352 -0.027,-0.72492 -1.72324,-0.73746 -2.08651,-0.85651 -0.62765,-0.20569 -0.6278,-0.20371 0.59536,-6.59447 0.54895,-2.86819 0.21731,-5.07589 0.95811,-6.18667 0.33857,-0.50767 2.08989,0.38505 2.14832,-0.52389 0.0114,-0.1781 -0.48513,-1.29194 -0.47311,-1.4866 0.0548,-0.88649 0.34926,-1.62598 0.28987,-1.8955 -0.0684,-0.31016 -1.99984,-0.39331 -2.3995,-0.4771 -0.41081,-0.0861 -4.4184,-0.18963 -8.90572,-0.23 -6.45266,-0.0581 -7.75781,-0.4127 -7.98305,0.38528 -0.0596,0.21099 -1.83038,0.1582 -1.80632,0.49659 0.0793,1.11527 0.12559,1.81401 -0.0962,2.07673 -0.36339,0.4305 1.25619,0.99377 2.21744,1.41842 0.60782,0.26853 0.68523,0.41081 0.53892,0.99061 -0.094,0.37238 -0.60625,2.98539 -1.13843,5.80668 -0.53218,2.8213 -1.12308,5.31312 -1.3131,5.53741 -0.19003,0.22428 -0.5502,0.40594 -0.8004,0.40369 -0.42241,-0.004 -0.42968,0.0579 -0.10178,0.86399 0.19419,0.47743 0.34898,1.32418 0.34397,1.88165 -0.007,0.82258 0.0961,1.05414 0.54934,1.22883 0.30716,0.11839 3.92074,0.23096 8.0302,0.25014 5.7507,0.0269 7.74496,-0.0461 8.65797,-0.31678 z"
       id="path271516" /><path
       style="fill:#eea1a1;stroke:none;stroke-opacity:1"
       d="M 83.881231,242.96165 C 0,0 0,0 83.881231,242.96165 Z"
       id="path271515" /><path
       style="fill:#ef1313;stroke:none;stroke-opacity:1"
       d="m 340.08008,277.13852 c -5.89536,-0.17375 -6.47792,-0.22946 -6.55039,-0.62644 -0.0437,-0.23964 0.13292,-0.74309 0.39261,-1.11877 0.25968,-0.37568 0.60848,-0.9624 0.77511,-1.30384 0.16664,-0.34143 0.41744,-0.7881 0.55734,-0.99259 0.13991,-0.2045 0.37467,-0.65132 0.52169,-0.99292 0.14703,-0.34161 0.54497,-1.06754 0.88432,-1.61317 0.33935,-0.54563 0.77976,-1.32729 0.97869,-1.73701 0.19893,-0.40973 0.68342,-1.04637 1.07663,-1.41474 0.71494,-0.66979 0.71494,-0.66979 9.17964,-0.66562 8.4647,0.004 8.4647,0.004 9.96572,-0.73053 1.50102,-0.7347 1.50102,-0.7347 20.80336,-0.68572 10.61627,0.0269 19.44205,0.0903 19.61283,0.14078 0.57227,0.16923 0.31505,0.80228 -1.76316,4.33928 -2.48824,4.23486 -3.12625,5.06951 -4.79546,6.27349 -2.36257,1.70409 -1.90787,1.67676 -24.74603,1.4876 -11.23213,-0.0931 -23.33394,-0.25496 -26.8929,-0.35983 z m -3.08781,-12.42259 c -0.36158,-0.36864 -0.10555,-0.86186 1.03551,-1.99481 0.65685,-0.65219 1.57631,-1.91187 2.04325,-2.79928 0.46693,-0.88742 1.11637,-2.06 1.44317,-2.60574 0.32682,-0.54576 0.67422,-1.1599 0.772,-1.36477 0.59451,-1.24555 1.85309,-2.84315 2.82789,-3.58961 1.12835,-0.86406 1.12835,-0.86406 10.0532,-0.78375 8.38642,0.0755 8.9246,0.107 8.92086,0.52358 -0.002,0.24381 -0.159,0.66326 -0.34846,0.93213 -0.18945,0.26887 -0.87663,1.46441 -1.52704,2.65677 -3.59927,6.59822 -4.65851,7.94063 -6.60853,8.37523 -0.53108,0.11835 -4.49593,0.19008 -8.81076,0.15939 -6.32356,-0.045 -7.96652,0.0122 -8.47096,0.295 -0.69573,0.38998 -1.0837,0.44711 -1.33013,0.19586 z m -31.11266,-3.74519 c -0.12935,-0.34682 0.98519,-2.6132 2.80106,-5.6959 0.32151,-0.5458 0.69986,-1.24864 0.8408,-1.56189 0.46439,-1.03215 1.62913,-2.28863 2.69198,-2.904 1.04,-0.60216 1.08379,-0.60534 7.54603,-0.54719 6.49995,0.0585 6.49995,0.0585 7.62192,-1.11609 0.61707,-0.64601 1.19445,-1.39838 1.28304,-1.67192 0.0886,-0.27355 0.30589,-0.6644 0.48289,-0.86857 0.17699,-0.20417 0.90984,-1.48823 1.62855,-2.85348 1.62906,-3.09451 3.21204,-4.9681 4.4866,-5.31023 0.53543,-0.14373 3.89215,-0.22713 7.9041,-0.19639 5.7354,0.0436 7.05984,-0.0108 7.46015,-0.30837 0.2677,-0.19899 0.71176,-0.35977 0.9868,-0.35729 0.52348,0.005 2.91237,-2.30421 2.917,-2.81936 10e-4,-0.16216 0.51435,-1.1094 1.13975,-2.10496 0.6254,-0.99555 1.13741,-1.84553 1.1378,-1.88884 0.002,-0.25183 2.17355,-3.81728 2.62117,-4.30421 0.29489,-0.32078 1.14089,-0.84627 1.88001,-1.16775 1.32999,-0.57848 1.42953,-0.58374 9.64128,-0.50985 4.75626,0.0428 8.35673,0.17269 8.43637,0.30438 0.16912,0.2796 -0.13797,0.9947 -1.12919,2.6295 -0.4136,0.68214 -1.17505,2.02206 -1.69211,2.97761 -0.51706,0.95555 -1.1395,2.07227 -1.3832,2.48159 -0.24371,0.40932 -0.6118,1.0794 -0.81799,1.48905 -0.20617,0.40966 -0.81776,1.16721 -1.35908,1.68344 -1.57208,1.49923 -2.55282,1.64192 -10.7992,1.57115 -8.25228,-0.0712 -9.01934,0.0501 -10.68006,1.68337 -0.56835,0.55897 -1.03513,1.21242 -1.03729,1.45211 -0.002,0.23969 -0.22837,0.71628 -0.50269,1.0591 -0.27432,0.34281 -0.62123,0.88792 -0.77092,1.21136 -0.14968,0.32343 -0.52223,0.99559 -0.82789,1.4937 -1.311,2.13643 -1.94682,3.26298 -1.94852,3.4524 -0.004,0.42441 -1.42672,1.68898 -2.38522,2.11981 -0.88191,0.39642 -1.92511,0.45624 -8.81308,0.50544 -7.81276,0.0558 -7.81276,0.0558 -8.67961,1.04232 -0.73221,0.83331 -2.77709,4.12581 -3.07939,4.95823 -0.19012,0.52348 -1.42435,2.2662 -2.15869,3.04802 -1.26665,1.34858 -2.41302,1.53023 -9.26768,1.46855 -5.23453,-0.0471 -6.04905,-0.10573 -6.17549,-0.44484 z m -67.67179,-1.02779 c -0.39755,-0.15144 -0.47929,-0.37566 -0.41051,-1.12601 0.0858,-0.93689 0.0858,-0.93689 5.03545,-0.96009 3.44035,-0.0161 5.05349,0.0648 5.29031,0.2652 0.44301,0.37493 0.42877,1.70146 -0.0198,1.8693 -0.54831,0.20505 -9.34284,0.16203 -9.89519,-0.0484 z m 36.33138,0.45122 c -4.6656,-0.11729 -4.6656,-0.11729 -4.81058,-0.71866 -0.0797,-0.33072 -0.0692,-0.83319 0.0235,-1.11661 0.16207,-0.4958 0.34907,-0.51515 4.94619,-0.51182 5.4294,0.004 5.67652,0.0181 5.99399,0.34172 0.22851,0.23296 0.31617,1.66002 0.11324,1.84355 -0.25279,0.22862 -1.90899,0.27139 -6.2663,0.16182 z M 81.754082,258.42885 c -0.09049,-0.0922 -0.160684,-0.59579 -0.155977,-1.11895 0.0074,-0.81885 0.09979,-0.97328 0.6641,-1.10971 0.987998,-0.23888 11.122404,0.25422 11.482117,0.55867 0.444012,0.3758 0.376297,1.61454 -0.09796,1.79189 -0.540136,0.20199 -11.68667,0.0877 -11.892288,-0.12191 z m 55.786728,0.50197 c -0.0905,-0.0922 -0.16082,-0.58097 -0.15628,-1.08602 0.008,-0.91828 0.008,-0.91828 3.80774,-1.04918 2.0897,-0.072 9.73922,-0.0728 16.99891,-0.002 14.04242,0.13735 14.35947,0.16641 14.51536,1.33026 0.17952,1.34013 0.85621,1.2971 -17.76436,1.12955 -9.48026,-0.0853 -17.31088,-0.23056 -17.40137,-0.32285 z m 46.70598,0.28724 c -0.33015,-0.33659 -0.37838,-1.17153 -0.0931,-1.61169 0.21838,-0.33692 8.22292,-0.67029 9.59556,-0.39962 0.98032,0.1933 1.38216,1.04001 0.90675,1.91058 -0.25345,0.46414 -0.54017,0.48883 -5.19066,0.44698 -3.49646,-0.0315 -5.00818,-0.13176 -5.21855,-0.34625 z m 33.09083,0.24315 c -0.1642,-0.20177 -0.25959,-0.68193 -0.21197,-1.06702 0.0866,-0.70016 0.0866,-0.70016 4.44669,-0.86081 2.39808,-0.0884 4.7299,-0.0892 5.18183,-0.002 0.79134,0.15293 0.81854,0.19739 0.73637,1.20411 -0.0853,1.04534 -0.0853,1.04534 -4.96985,1.06889 -4.03791,0.0195 -4.93628,-0.0404 -5.18307,-0.34331 z m 72.46312,-0.1211 c 0.0101,-1.12691 0.0101,-1.12691 5.67538,-1.00889 5.66522,0.11797 5.66522,0.11797 5.73227,1.17857 0.0671,1.06057 0.0671,1.06057 -5.67537,1.0089 -5.74242,-0.0517 -5.74242,-0.0517 -5.73228,-1.17858 z m 75.09418,-1.76473 c -0.12944,-0.34707 0.77468,-2.38047 1.78888,-4.02328 0.33686,-0.54566 0.7328,-1.25121 0.87985,-1.5679 0.83377,-1.79557 4.09289,-4.99654 5.07828,-4.98768 0.18778,0.002 0.76164,-0.2176 1.27525,-0.48732 0.9043,-0.4749 1.40963,-0.48613 15.98175,-0.35501 8.27637,0.0745 15.22459,0.20509 15.44052,0.29032 0.21592,0.0853 0.39178,0.2433 0.39081,0.35131 -0.004,0.4896 -4.22161,7.42082 -5.03065,8.26815 -1.03611,1.08516 -2.21735,1.7449 -4.53111,2.5307 -1.61623,0.5489 -1.69361,0.55092 -16.38791,0.42924 -11.91419,-0.0982 -14.78748,-0.18526 -14.88567,-0.44853 z m -15.13498,-9.509 c 0.0826,-0.39497 0.45042,-1.14922 0.8174,-1.67612 0.36698,-0.52689 1.11322,-1.82262 1.65832,-2.8794 1.61917,-3.13906 1.46754,-3.08985 9.76698,-3.1703 7.68883,-0.0746 7.73407,-0.0654 6.95888,1.40488 -2.22062,4.21182 -3.29468,5.52827 -5.33723,6.54169 -1.22116,0.60589 -1.30198,0.61177 -7.62437,0.55488 -6.39013,-0.0575 -6.39013,-0.0575 -6.23998,-0.77563 z m -193.69451,-4.14992 c -0.54772,-0.25713 -2.03809,-0.36391 -5.64796,-0.40467 -2.69714,-0.0303 -4.95199,-0.13997 -5.01078,-0.24339 -0.0588,-0.10341 -0.17732,-0.9309 -0.2634,-1.83887 -0.25298,-2.66814 -1.28743,-2.47729 12.74332,-2.35104 7.849,0.0706 12.24525,0.20059 12.5568,0.37117 0.40729,0.223 0.47692,0.5385 0.46289,2.0974 -0.013,1.44315 -0.1009,1.86648 -0.41181,1.98274 -0.21742,0.0814 -2.76769,0.13046 -5.66728,0.10923 -4.10083,-0.0299 -5.411,0.0393 -5.89781,0.3122 -0.77796,0.43608 -1.88972,0.42257 -2.86397,-0.0348 z m -71.440515,-1.20685 c -0.06653,-0.11 -0.146993,-1.01396 -0.17879,-2.00879 -0.04431,-1.38624 0.02887,-1.86259 0.313227,-2.03908 0.204072,-0.12664 2.576463,-0.21214 5.271981,-0.18999 5.828094,0.0474 5.684237,-0.0164 5.661304,2.53228 -0.01189,1.32121 -0.103608,1.73421 -0.410611,1.84901 -0.592326,0.22151 -10.517172,0.0879 -10.657111,-0.14339 z m 104.246705,0.92451 c -0.18614,-0.12061 -0.37568,-0.94604 -0.45203,-1.96856 -0.12255,-1.64126 -0.0936,-1.78071 0.42595,-2.05316 0.42233,-0.22146 5.21471,-0.22673 19.77271,-0.0217 21.03381,0.29618 20.98536,0.29234 21.34127,1.68563 0.26341,1.03119 -0.23805,2.61484 -0.8807,2.78129 -0.84629,0.21922 -39.84931,-0.19156 -40.2072,-0.42348 z m 51.74557,0.528 c -0.67282,-0.20893 -1.34348,-2.4055 -0.95283,-3.12085 0.27089,-0.49605 0.84457,-0.64664 3.48447,-0.9147 2.31643,-0.23521 6.82723,0.0971 7.35248,0.54166 0.26126,0.22111 0.3585,0.65336 0.30174,1.34139 -0.0755,0.91515 -0.19469,1.07591 -1.21009,1.6318 -1.05022,0.57498 -1.37886,0.61736 -4.86247,0.62724 -2.05485,0.006 -3.90585,-0.0422 -4.1133,-0.10652 z m 30.83028,0.11568 c -0.34808,-0.27498 -0.58429,-1.92406 -0.44459,-3.10386 0.0582,-0.49135 2.45322,-0.7947 6.51534,-0.82523 2.73622,-0.0206 4.02009,0.0634 4.40765,0.28802 1.117,0.64762 0.9027,3.58296 -0.28401,3.89014 -1.12801,0.29199 -9.77696,0.0807 -10.19439,-0.24907 z m 20.8232,0.31411 c -0.37987,-0.26342 -0.55773,-3.01406 -0.21153,-3.27125 1.11727,-0.83 9.30268,-1.15321 10.73455,-0.42387 0.69741,0.35523 0.74262,0.46746 0.72505,1.79942 -0.0103,0.81074 -0.15626,1.55593 -0.33906,1.73592 -0.36072,0.35514 -10.41495,0.50241 -10.90901,0.15978 z m 23.23495,-7.06724 c -0.22362,-0.22827 -0.0615,-0.53426 0.84471,-1.59467 0.51917,-0.6075 1.66311,-2.37168 2.54209,-3.9204 3.21853,-5.6709 3.65279,-6.23393 5.43356,-7.04479 1.26111,-0.57422 1.40124,-0.58248 8.80053,-0.5183 4.6883,0.0402 7.57547,0.15856 7.66895,0.3131 0.16359,0.27044 -0.38142,1.47841 -1.79442,3.97718 -0.50163,0.8871 -1.42133,2.52908 -2.04375,3.64885 -0.62243,1.11977 -1.62701,2.57771 -2.23239,3.23986 -1.72058,1.88194 -2.45282,2.009 -11.56141,2.00628 -4.15534,-0.001 -7.60139,-0.0494 -7.65787,-0.10711 z m 59.91731,0.49413 c 10e-4,-0.16374 0.74039,-1.55782 1.64204,-3.09796 0.90165,-1.54013 1.98969,-3.47546 2.41787,-4.30071 1.06118,-2.04525 3.03547,-4.11112 4.63722,-4.85232 1.30479,-0.60378 1.30479,-0.60378 19.39899,-0.44097 14.30981,0.12876 18.09343,0.228 18.0905,0.47453 -0.002,0.17145 -1.09502,2.20983 -2.42886,4.52976 -2.62747,4.56988 -3.90125,6.09854 -6.14567,7.37536 -1.37693,0.78332 -1.37693,0.78332 -19.49585,0.69667 -13.9166,-0.0665 -18.1183,-0.15603 -18.11624,-0.38436 z"
       id="path271513" /><path
       style="fill:#191818;stroke:none;stroke-opacity:1"
       d="m 336.99227,264.71593 c -0.36158,-0.36864 -0.10555,-0.86186 1.03551,-1.99481 0.65685,-0.65219 1.57631,-1.91187 2.04325,-2.79928 0.46693,-0.88742 1.11637,-2.06 1.44317,-2.60574 0.32682,-0.54576 0.67422,-1.1599 0.772,-1.36477 0.59451,-1.24555 1.85309,-2.84315 2.82789,-3.58961 1.12835,-0.86406 1.12835,-0.86406 10.0532,-0.78375 8.38642,0.0755 8.9246,0.107 8.92086,0.52358 -0.002,0.24381 -0.159,0.66326 -0.34846,0.93213 -0.18945,0.26887 -0.87663,1.46441 -1.52704,2.65677 -3.59927,6.59822 -4.65851,7.94063 -6.60853,8.37523 -0.53108,0.11835 -4.49593,0.19008 -8.81076,0.15939 -6.32356,-0.045 -7.96652,0.0122 -8.47096,0.295 -0.69573,0.38998 -1.0837,0.44711 -1.33013,0.19586 z m -31.11266,-3.74519 c -0.12935,-0.34682 0.98519,-2.6132 2.80106,-5.6959 0.32151,-0.5458 0.69986,-1.24864 0.8408,-1.56189 0.46439,-1.03215 1.62913,-2.28863 2.69198,-2.904 1.04,-0.60216 1.08379,-0.60534 7.54603,-0.54719 6.49995,0.0585 6.49995,0.0585 7.62192,-1.11609 0.61707,-0.64601 1.19445,-1.39838 1.28304,-1.67192 0.0886,-0.27355 0.30589,-0.6644 0.48289,-0.86857 0.17699,-0.20417 0.90984,-1.48823 1.62855,-2.85348 1.62906,-3.09451 3.21204,-4.9681 4.4866,-5.31023 0.53543,-0.14373 3.89215,-0.22713 7.9041,-0.19639 5.7354,0.0436 7.05984,-0.0108 7.46015,-0.30837 0.2677,-0.19899 0.71176,-0.35977 0.9868,-0.35729 0.52348,0.005 2.91237,-2.30421 2.917,-2.81936 10e-4,-0.16216 0.51435,-1.1094 1.13975,-2.10496 0.6254,-0.99555 1.13741,-1.84553 1.1378,-1.88884 0.002,-0.25183 2.17355,-3.81728 2.62117,-4.30421 0.29489,-0.32078 1.14089,-0.84627 1.88001,-1.16775 1.32999,-0.57848 1.42953,-0.58374 9.64128,-0.50985 4.75626,0.0428 8.35673,0.17269 8.43637,0.30438 0.16912,0.2796 -0.13797,0.9947 -1.12919,2.6295 -0.4136,0.68214 -1.17505,2.02206 -1.69211,2.97761 -0.51706,0.95555 -1.1395,2.07227 -1.3832,2.48159 -0.24371,0.40932 -0.6118,1.0794 -0.81799,1.48905 -0.20617,0.40966 -0.81776,1.16721 -1.35908,1.68344 -1.57208,1.49923 -2.55282,1.64192 -10.7992,1.57115 -8.25228,-0.0712 -9.01934,0.0501 -10.68006,1.68337 -0.56835,0.55897 -1.03513,1.21242 -1.03729,1.45211 -0.002,0.23969 -0.22837,0.71628 -0.50269,1.0591 -0.27432,0.34281 -0.62123,0.88792 -0.77092,1.21136 -0.14968,0.32343 -0.52223,0.99559 -0.82789,1.4937 -1.311,2.13643 -1.94682,3.26298 -1.94852,3.4524 -0.004,0.42441 -1.42672,1.68898 -2.38522,2.11981 -0.88191,0.39642 -1.92511,0.45624 -8.81308,0.50544 -7.81276,0.0558 -7.81276,0.0558 -8.67961,1.04232 -0.73221,0.83331 -2.77709,4.12581 -3.07939,4.95823 -0.19012,0.52348 -1.42435,2.2662 -2.15869,3.04802 -1.26665,1.34858 -2.41302,1.53023 -9.26768,1.46855 -5.23453,-0.0471 -6.04905,-0.10573 -6.17549,-0.44484 z M 156.06543,243.91648 c -0.54772,-0.25713 -2.03809,-0.36391 -5.64796,-0.40467 -2.69714,-0.0303 -4.95199,-0.13997 -5.01078,-0.24339 -0.0588,-0.10341 -0.17732,-0.9309 -0.2634,-1.83887 -0.25298,-2.66814 -1.28743,-2.47729 12.74332,-2.35104 7.849,0.0706 12.24525,0.20059 12.5568,0.37117 0.40729,0.223 0.47692,0.5385 0.46289,2.0974 -0.013,1.44315 -0.1009,1.86648 -0.41181,1.98274 -0.21742,0.0813 -2.76769,0.13046 -5.66728,0.10923 -4.10083,-0.0299 -5.411,0.0393 -5.89781,0.3122 -0.77796,0.43608 -1.88972,0.42257 -2.86397,-0.0348 z m -71.440515,-1.20685 c -0.06653,-0.11 -0.146993,-1.01396 -0.178791,-2.00879 -0.04431,-1.38624 0.02887,-1.86259 0.313228,-2.03908 0.204072,-0.12664 2.576463,-0.21214 5.271981,-0.18999 7.065531,-0.10728 5.949402,-0.12689 5.926468,1.51581 -0.01844,1.32114 -0.368773,2.75068 -0.675775,2.86548 -0.592326,0.22151 -10.517172,0.0879 -10.657111,-0.14339 z m 104.246705,0.92451 c -0.18614,-0.12061 -0.37568,-0.94604 -0.45203,-1.96856 -0.12255,-1.64126 -0.0936,-1.78071 0.42595,-2.05316 0.42233,-0.22146 5.21471,-0.22673 19.77271,-0.0217 21.03381,0.29618 20.98536,0.29234 21.34127,1.68563 0.26341,1.03119 -0.23805,2.61484 -0.8807,2.78129 -0.84629,0.21922 -39.84931,-0.19156 -40.2072,-0.42348 z m 51.74557,0.528 c -0.67282,-0.20893 -1.34348,-2.4055 -0.95283,-3.12085 0.27089,-0.49605 0.84457,-0.64664 3.48447,-0.9147 2.31643,-0.23521 6.82723,0.0971 7.35248,0.54166 0.26126,0.22111 0.3585,0.65336 0.30174,1.34139 -0.0755,0.91515 -0.19469,1.07591 -1.21009,1.6318 -1.05022,0.57498 -1.37886,0.61736 -4.86247,0.62724 -2.05485,0.006 -3.90585,-0.0421 -4.1133,-0.10652 z m 30.83028,0.11568 c -0.34808,-0.27498 -0.58429,-1.92406 -0.44459,-3.10386 0.0582,-0.49135 2.45322,-0.7947 6.51534,-0.82523 2.73622,-0.0206 4.02009,0.0634 4.40765,0.28802 1.117,0.64762 0.9027,3.58296 -0.28401,3.89014 -1.12801,0.29199 -9.77696,0.0807 -10.19439,-0.24907 z m 20.8232,0.31411 c -0.37987,-0.26342 -0.55773,-3.01406 -0.21153,-3.27125 1.11727,-0.83 9.30267,-1.15321 10.73455,-0.42387 0.69741,0.35523 0.74262,0.46746 0.72505,1.79942 -0.0103,0.81074 -0.15626,1.55593 -0.33906,1.73592 -0.36072,0.35514 -10.41495,0.50241 -10.90901,0.15978 z m 23.23495,-7.06724 c -0.22362,-0.22827 -0.0615,-0.53426 0.84471,-1.59467 0.51917,-0.6075 1.66311,-2.37168 2.54209,-3.9204 3.21853,-5.6709 3.65279,-6.23393 5.43356,-7.04479 1.26111,-0.57422 1.40124,-0.58248 8.80053,-0.5183 4.6883,0.0402 7.57547,0.15856 7.66895,0.3131 0.16359,0.27044 -0.38142,1.47841 -1.79442,3.97718 -0.50164,0.8871 -1.42133,2.52908 -2.04375,3.64885 -0.62243,1.11977 -1.62701,2.57771 -2.23239,3.23986 -1.72058,1.88194 -2.45282,2.009 -11.56141,2.00628 -4.15534,-0.001 -7.60139,-0.0494 -7.65787,-0.10711 z"
       id="path271512" /></g></svg>
