<?xml version="1.0" encoding="UTF-8"?>
<!-- Created with Inkscape (http://www.inkscape.org/) -->
<svg width="1080" height="1080" version="1.1" viewBox="0 0 1080 1080" xml:space="preserve" xmlns="http://www.w3.org/2000/svg"><path d="m515.23 905.31c-76.683-5.3299-150-34.17-207-81.428-73.452-60.896-119.52-144.41-131.54-238.47l-1.9874-15.549-1.2445-30 1.1664-15.5c2.3111-30.71 4.6829-46.153 10.751-70 12.913-50.748 34.406-94.633 66.715-136.22l10.66-13.722 11.653-12.065c44.698-46.281 97.032-79.094 154.59-96.929 11.051-3.424 16.549-4.8392 37.674-9.6975 9.4584-2.1751 34.163-5.2064 53.406-6.553l16.846-1.1789 37.35 2.3578 14.093 1.9604c13.925 1.9369 16.777 2.5049 37.363 7.4407 53.533 12.835 111.48 42.988 149.98 78.047 50.602 46.075 79.575 88.098 103.81 150.56 4.569 11.778 9.7464 30.112 13.273 47 0.5168 2.475 1.6065 7.425 2.4216 11s2.4093 14.15 3.5427 23.5l2.0607 17 0.5865 16.5 0.58651 16.5-1.1662 15.847c-4.8761 66.257-25.797 126.82-62.408 180.65-13.498 19.849-25.581 34.108-46.607 55l-16.605 16.5-9.4851 7.5772c-40.56 32.401-86.345 55.579-134.99 68.334-38.787 10.171-78.302 14.116-115.5 11.53zm44.55-51.966c59.517-4.5332 111.37-23.44 160.95-58.684 15.82-11.246 38.382-32.038 52.946-48.792 15.835-18.216 24.26-30.231 37.517-53.5l7.1216-12.5 6.6047-15.5c15.287-35.875 23.533-72.529 25.421-113l0.58327-12.5-4.1282-43-2.4613-12.038c-3.9658-19.396-7.166-30.965-13.129-47.462l-5.6027-15.5-15.728-32-6.2458-10c-11.232-17.983-21.608-31.537-37.841-49.433l-8.5566-9.4328-12.5-10.946c-33.848-29.639-67.401-48.923-110.5-63.51-15.886-5.3766-40.74-11.016-55.5-12.593-3.025-0.32328-9.775-1.0296-15-1.5696l-9.5-0.9818-30-0.01-32 2.9579-13 2.6008c-79.647 15.935-143.92 56.746-193.81 123.06-9.7089 12.906-16.743 24.469-25.524 41.958-18.36 36.568-28.183 69.569-32.712 109.9l-1.6847 15-0.0112 17.5c-6e-3 9.625 0.24449 19.3 0.55699 21.5s0.84573 6.925 1.185 10.5c1.108 11.676 1.5081 14.371 3.637 24.5 9.8642 46.929 25.559 83.776 51.724 121.43 8.1959 11.796 10.941 15.113 28.842 34.863 14.108 15.565 38.676 35.978 58.797 48.852 30.27 19.369 58.563 31.376 96 40.739 16.789 4.1992 22.422 5.1855 37.5 6.5659 6.325 0.57904 13.075 1.2045 15 1.3898 1.925 0.18538 8.9225 0.40907 15.55 0.49709l12.05 0.16003zm-200.05-134.68c-0.825-0.3002-2.7156-1.6779-4.2014-3.0616l-2.7014-2.5158-0.50696-2.6095c-0.27882-1.4352-0.78789-6.4345-1.1313-11.109l-0.6243-8.5-2.3603-5-15.567-11.712-3.1797-4.8529v-8.0926l1.9909-2.6711c1.095-1.4691 3.3344-3.458 4.9764-4.4197l2.9855-1.7486 11.904-1.2442 8.1814 2.1207c4.4998 1.1664 9.5394 2.1207 11.199 2.1207h3.0176l7.7588-2.6418c4.2674-1.453 8.2088-2.9746 8.7588-3.3814 0.55-0.40679 6.85-3.4452 14-6.7521 7.15-3.3069 18.769-8.7602 25.819-12.119 7.0506-3.3584 13.167-6.1061 13.592-6.1061h0.77247l1.8367 6.25c1.0102 3.4375 3.5849 9.7841 5.7215 14.103s3.7439 7.9907 3.5716 8.1585c-0.17225 0.16774-8.4132 4.4562-18.313 9.5299s-22.7 11.711-28.445 14.75l-10.445 5.5255-8.5239 7.857-12.019 19.559-3.711 3.2583c-5.5255 4.8514-10.525 6.6986-14.356 5.3044zm348.02-1.0558-3.4808-1.7139-3.8985-4.0133-3.8985-4.0133-9.2306-16-9.1467-9-10.432-5.6342c-5.7376-3.0988-18.757-9.8488-28.932-15s-18.709-9.4999-18.965-9.6637c-0.25555-0.16388 0.0784-1.0639 0.74221-2 2.9744-4.1949 7.2139-13.364 9.195-19.886l2.1606-7.1134 15.683 7.5127c26.67 12.776 42.745 20.015 49.532 22.308l6.5132 2.2 3.8191-0.45511c2.1005-0.25031 7.7596-1.2715 12.576-2.2692l8.7568-1.8141 10.999 2.4615 6.9873 6.5899-0.0538 9.7638-2.7231 3.0664c-1.4977 1.6865-5.7214 5.2865-9.3859 8s-7.2356 5.8336-7.9358 6.9336l-1.2731 2-0.28957 9.7698-0.28958 9.7698-1.1468 2.2302c-0.63071 1.2266-2.301 3.4677-3.7117 4.9802l-2.5649 2.75-6.1258-0.0456zm-190.93-43.824-9.4077-1.5132-15.185-5.8721-12.091-7.9207-12.093-11.981-7.1128-13.63-2.3074-8-2.3074-8-0.1762-44-3.7061-9.2123c-2.0383-5.0668-3.7061-9.4543-3.7061-9.75 0-0.29573 0.87448-0.5377 1.9433-0.5377h1.9433l1.5408 2.1998c1.3789 1.9686 3.1888 7.1198 9.5919 27.3 1.0471 3.3 3.0057 11.232 4.3526 17.626l2.4488 11.626 3.1376 6.0675 3.5934 2.962c8.3166 6.8553 26.933 14.205 40.899 16.148l7.6942 1.0702 26.355-8e-3 9-1.4617c11.667-1.8948 18.421-4.277 28.33-9.9928l8.0618-4.65 3.1212-3.5548c3.8559-4.3916 4.5592-6.1828 7.5918-19.333 1.3318-5.775 3.5757-14.325 4.9864-19 1.4107-4.675 3.33-11.515 4.265-15.199l1.7-6.6993 4.7926-5.1014h3.818l-0.51695 1.25c-0.28432 0.6875-1.9851 5.525-3.7796 10.75l-3.2627 9.5-1.1728 48-6.0698 15.111-7.5206 11.33-5.6721 5.1939c-10.376 9.5009-21.259 15.111-35.672 18.387l-7 1.5911-31 0.81609zm11.71-41.666-1.5795-1.25-0.6428-6.0869-0.6428-6.0869 1.2764-3.3262h2.8112c1.5462 0 3.523 0.27315 4.393 0.60699l1.5818 0.60699v6.8112c0 3.7462-0.27315 7.523-0.60699 8.393l-0.60699 1.5818h-4.4038zm12.864 0.58334-0.66666-0.66667v-15.532l1.915-0.60779 1.915-0.60778 5.0984 1.2796 1.2516 3.9433-1.3545 11.67-2.1627 0.58015c-2.8926 0.77594-5.1835 0.75332-5.996-0.0592zm-24.667-1.0653c-1.375-0.2528-3.0625-0.92162-3.75-1.4863l-1.25-1.0266v-14.87l8.5 0.61499 0.57786 17.5-0.78893-0.13618c-0.43391-0.0749-1.9139-0.34302-3.2889-0.59582zm38.157-7.7007c0.20643-4.088 0.64986-7.7072 0.9854-8.0428 0.33553-0.33554 2.2408-0.8747 4.234-1.1981l3.6239-0.58808v16.048l-1.5818 0.60698c-0.86998 0.33385-2.9442 0.60699-4.6093 0.60699h-3.0275zm15.51 4.766-0.66666-0.66667v-14.716l2.5651-0.97525c1.4108-0.53638 3.2022-0.97525 3.9809-0.97525h1.4158l1.264 5.0363-1.3508 10.812-3.0868 1.076c-3.6514 1.2729-3.2937 1.2374-4.1217 0.40939zm-69.917-1.8922-2.75-1.505v-13.936h5.6177l3.484 2.5475-0.30085 6.9659-0.30084 6.9659-1.5 0.23336c-0.825 0.12835-2.7375-0.44387-4.25-1.2716zm-12.497-5.6911-3.2186-2.25-0.0173-7.314-0.0173-7.314 8 4.4963v14.632h-0.76409c-0.42024 0-2.2125-1.0125-3.9827-2.25zm95.352 0.66247c-0.33263-0.86682-0.60478-3.7032-0.60478-6.3031v-4.7271l1.25-1.5448c1.4518-1.7943 5.8381-4.8374 6.9725-4.8374h0.7775v13.624l-2.75 2.0022c-1.5125 1.1012-3.2654 2.3082-3.8952 2.6823l-1.1452 0.68012zm-105.78-10.412-1.6741-2.5-4.0437-16c-2.224-8.8-5.2325-19.963-6.6855-24.807l-2.6419-8.807 1.1041-1.1041 5.7172 4.071 2.5946 4.8236c1.4271 2.653 3.7792 7.8155 5.2271 11.472l2.6324 6.6486-0.27808 14.351-0.27807 14.351zm118.94-11.669-0.49852-13.831 0.72195-1c0.39707-0.55 1.9652-4.375 3.4847-8.5s3.9139-9.2144 5.3208-11.31c2.469-3.6772 5.8731-6.3537 6.8449-5.3819 0.58932 0.58933-1.8708 10.295-5.7514 22.692-1.6357 5.225-3.8403 13.744-4.8991 18.931l-1.9251 9.4312-2.7997 2.7997zm-67.518 10.946-3.25-0.40332v-7.3549c0-4.0452 0.27314-8.0667 0.60699-8.9366l0.60698-1.5818h7.5243l0.61984 3.75c0.34091 2.0625 0.62479 6.0644 0.63084 8.893l0.011 5.143-1.5818 0.60698c-0.86998 0.33385-1.6575 0.53498-1.75 0.44696-0.0925-0.088-1.6307-0.34154-3.4182-0.56336zm12.174-0.615c-0.28248-0.73611-0.38085-4.8986-0.21862-9.25l0.29498-7.9116 6.6306-0.63646 2.8694 2.3814v14.685l-1.9343 1.0352c-1.0638 0.56935-3.103 1.0352-4.5314 1.0352h-2.5971zm-25.424-0.60451-3.5-0.5571-0.29947-5.1694-0.29947-5.1694 0.86304-3.3306 0.86303-3.3306h6.8729l0.58596 16.814-0.79298 0.65008-0.79298 0.65007zm39.85-7.5571c-0.0825-4.125-0.195-8.0625-0.25-8.75l-0.1-1.25h7.9098l0.6954 2.5c0.89643 3.2227 1.0713 11.376 0.28778 13.418l-0.60699 1.5818h-7.786zm-54.85 4.211-2.5-1.2596-0.30908-5.4223c-0.16999-2.9822-0.0489-6.4588 0.26905-7.7257l0.57813-2.3034h6.5619l2.4 2.4v3.1604c0 1.7382-0.28617 5.2482-0.63593 7.8l-0.63592 4.6396-1.6141-0.0147c-0.88774-8e-3 -2.7391-0.58154-4.1141-1.2743zm68.636-3.3505c-0.34976-2.5518-0.63592-6.3682-0.63592-8.481v-3.8414l2.4209-0.60761c1.3315-0.33419 3.244-0.45226 4.25-0.26239l1.8291 0.34523 0.92638 6.8913 0.92638 6.8913-2.2872 1.852-2.2872 1.852h-4.5066zm-81.386-2.3495-3.25-1.9816 0.0137-3.7647c8e-3 -2.0706 0.285-4.7772 0.61663-6.0147l0.60298-2.25h1.8016c0.99087 0 2.5134 0.27315 3.3834 0.60699l1.5818 0.60699v14.786l-0.75-4e-3c-0.4125-2e-3 -2.2125-0.89544-4-1.9853zm95.355 0.40182c-0.3327-0.86699-0.6049-4.003-0.6049-6.9689v-5.3925l2.9503-1.5257c1.6227-0.83912 3.3903-1.5257 3.928-1.5257h0.9777l0.68813 5.5076 0.68812 5.5076-1.0393 1.2424c-0.57161 0.68334-2.3767 2.0275-4.0113 2.987l-2.972 1.7446zm-147.1-10.439c-3.3-1.5982-12.075-5.6524-19.5-9.0092-7.425-3.3568-14.85-6.7428-16.5-7.5244-1.65-0.78156-10.2-4.6627-19-8.6247l-16-7.2036-10 0.0218c-5.5 0.012-14.05 0.37623-19 0.80939l-9 0.78755-8.5263-2.3151-6.9737-6.123v-6.8921l2.8596-5.5299 7.8202-6.9265c4.3011-3.8096 8.0958-7.307 8.4327-7.7719 0.33687-0.46496 0.84288-5.644 1.1245-11.509l0.51197-10.663 1.5409-3.6695 1.5409-3.6695 4.0378-2.161h3.5979 3.5979l6.8284 2.8531 3.4088 3.5101c3.332 3.431 5.8956 7.2307 12.747 18.893l3.3814 5.7558 11.74 8.235 50.331 25.253 2.7325 5.6341c3.396 7.0022 5.3072 14.228 6.2457 23.616l0.72481 7.25-1.3515-0.06c-0.74332-0.033-4.0515-1.3677-7.3515-2.9659zm195.87-4.8332 0.65542-7.8591 2.3635-6.8909c1.3-3.79 3.1481-8.5157 4.1071-10.501l1.7436-3.6106 21.352-10.674c26.81-13.402 35.043-18.012 39.231-21.969l3.3203-3.1367 8.1212-15.575 8.704-9.681 6.8364-3.2441h8.2887l4.7446 4.7446 2.1534 7.7554 0.012 18.245 4.25 3.8858c2.3375 2.1372 5.375 4.7836 6.75 5.8808s3.9625 3.6966 5.75 5.7763l3.25 3.7813v8.6607l-4.0254 5.1174-10.11 3.3579-8.1824-0.59959c-4.5003-0.32978-12.457-0.87026-17.682-1.2011l-9.5-0.60146-7.5 2.9918c-4.125 1.6455-22.443 9.7897-40.707 18.098-18.264 8.3086-33.516 15.106-33.894 15.106h-0.68658zm-124.99-0.69328c-5.0153-0.8038-10.865-2.0623-13-2.7967l-3.8812-1.3352-0.87217-3.9078c-0.47969-2.1493-2.033-6.7751-3.4518-10.28l-2.5796-6.3718-11.668-11.668-16.082-8.0494-7.173-2.133c-3.9451-1.1731-9.2194-3.1683-11.72-4.4336l-4.5475-2.3007-3.2885-3.3358c-5.0452-5.1177-7.9494-11.897-9.5687-22.336l-0.62049-4 2.5141-14c1.3827-7.7 3.2326-16.925 4.1107-20.5l1.5966-6.5 0.23858-30-2.6037-8c-4.1172-12.65-5.667-18.657-6.3807-24.729l-0.66437-5.6528 3.5899-15.244-2.5651-2.5651-2.5651-2.5651-6.0868 8.4026-2.4118 11.354 1.1573 11.5 1.1574 11.5 4.9857 16.897-0.0306 28.103-0.84434 1.3319-0.84435 1.3319-6.4106-7.6639-8.7766-18-5.5069-18-0.048-39 1.7668-6.2837c6.4309-22.872 21.428-44.613 41.106-59.589l5.0888-3.873 11-5.3307c12.247-5.9348 23.906-10.238 36.176-13.353l8.1758-2.0752 27.648-3.2077 30 7.4e-4 26 3.0286 9 2.1606c4.95 1.1884 13.05 3.5062 18 5.1507l9 2.99 8.9229 4.4938c4.9076 2.4716 12.379 6.9292 16.603 9.9059l7.6797 5.412 6.146 6.5701c12.03 12.86 19.174 24.492 24.132 39.29l2.9364 8.7646 1.5362 9.4725 1.5362 9.4725 4e-3 8.0571 4e-3 8.0571-3.9155 20.886-2.0722 5.5c-4.1572 11.034-12.388 25.26-15.854 27.402l-0.88588 0.54751-0.62761-5.2248c-0.34518-2.8736-0.63152-9.3399-0.6363-14.369l-9e-3 -9.1447 2.0517-6.6428c1.1285-3.6535 2.9187-10.563 3.9784-15.355l1.9266-8.7126 0.0216-8.1243 0.0217-8.1243-1.5196-4.3071c-0.83579-2.3689-2.6533-5.7934-4.0388-7.6099l-2.5192-3.3029-1.9007 1.187c-1.0454 0.65285-2.3961 2.1126-3.0016 3.244l-1.1008 2.057 3.0808 8.732v16.328l-8.2181 26.921-1.0053 19 1.611 10.5c0.88602 5.775 2.7231 16.35 4.0824 23.5l2.4714 13 0.0588 13.137-1.59 5.354c-1.6816 5.6627-3.4654 9.014-6.8446 12.859l-2.0654 2.3502-5.5 2.7624c-3.025 1.5193-7.3 3.3136-9.5 3.9873-18.665 5.7159-31.408 13.384-37.162 22.363l-2.4436 3.8134-5.6273 17.373-17.768 4.7706-52 0.63853zm19.719-29.431c2.9157-2.1908 5.7734-4.7783 6.3504-5.75l1.0491-1.7666 0.33173-23.356 0.33174-23.356-1.2016-4.7875h-1.0182c-0.56004 0-3.0379 2.078-5.5063 4.6179l-4.4881 4.6179-8.1108 13.653-5.0686 14.575 0.44941 7.5185 0.44942 7.5185 4.3173 8.3928 1.757 1.0232c0.96637 0.56277 2.4994 1.0369 3.4066 1.0536l1.6496 0.0304zm34.824 1.3528 2.0692-2.6306 1.1066-4.1098 1.1067-4.1098-0.0992-15.133-1.6703-4.9429c-3.1403-9.293-10.498-20.655-17.168-26.511l-3.6793-3.2304-1.6659 5.7988 0.61476 23 0.61475 23 1.7661 2.5c0.97133 1.375 3.6717 3.9625 6.0009 5.75l4.2348 3.25h4.6994zm-73.924-50.96c6.8646-4.6262 22.41-23.922 26.694-33.136l2.4306-5.2264v-13.092l-4.625-8.3616-8.6555-6.5934h-14.97l-15.187 2.0503c-8.3531 1.1276-16.767 2.4633-18.697 2.9681l-3.5097 0.91787-8.5569 6.2928-3.9238 7.6913v11.731l2.565 7.3416c3.3431 9.5688 5.8933 14.542 10.146 19.786l3.4703 4.2792 9.7707 4.9512 10.548 1.7009 9-0.94253zm124.68 1.0945 4.9121-1.4587 8.4267-7.213 2.5938-4.426c1.4266-2.4343 3.1926-6.334 3.9245-8.666s2.2615-6.8163 3.3991-9.965l2.0684-5.725v-3.8758c0-2.1317-0.50906-5.4054-1.1312-7.275l-1.1312-3.3992-4.0607-4.2334-4.0606-4.2334-4.5581-1.453c-5.3923-1.7189-25.97-4.5706-38.262-5.3023l-8.7034-0.51814-5.1435 1.2909-7.8327 7.0764-1.7727 4.6418-1.7727 4.6418 0.0518 10.089 4.1207 9.1754 14.604 19.825 11.565 11.365 8.5869 2.0155 4.6316-0.45902c2.5474-0.25247 6.842-1.1155 9.5437-1.9178zm-413.86 362.25c-7.9066-8.3875-17.06-18.625-20.341-22.75-3.2807-4.125-6.2177-7.725-6.5266-8-1.1258-1.0022-21.639-29.667-25.405-35.5-25.776-39.926-41.908-73.733-55.831-117-5.4311-16.878-11.516-40.925-14.677-58-4.0802-22.042-6.237-43.635-7.4911-75l-0.47982-12 1.7835-39 1.6056-13.5c2.1772-18.307 5.9346-39.46 10.214-57.5l3.5579-15 6.7905-20.5c3.7348-11.275 8.2132-23.875 9.952-28 1.7388-4.125 3.7498-9.075 4.4688-11 2.4845-6.6516 13.335-28.809 20.631-42.131 13.27-24.228 28.216-46.494 45.892-68.369 12.547-15.528 14.373-17.594 28.443-32.191l10.901-11.309h1.2226 1.2226l20.682 20.857c11.375 11.471 21.369 21.838 22.209 23.037l1.5267 2.1797-29.212 30.069-10.227 13.344c-12.163 15.871-15.701 20.949-26.119 37.485l-7.8921 12.528-8.7744 17.5c-4.8259 9.625-9.6639 19.75-10.751 22.5s-3.7967 9.5723-6.0212 15.161c-10.222 25.679-19.288 61.168-23.208 90.839l-1.9813 15-0.48863 11.5c-0.26874 6.325-0.68936 17.35-0.93471 24.5l-0.44608 13 0.9279 15.5c3.3496 55.952 19.524 114.26 44.903 161.86 3.332 6.2505 6.0582 11.556 6.0582 11.79s0.8326 1.6453 1.8502 3.1355c1.0176 1.4902 4.4655 6.9845 7.6619 12.21 7.894 12.904 17.998 27.141 29.404 41.432l9.5233 11.932 27.44 28.136-23.182 23.25c-12.75 12.788-23.48 23.25-23.845 23.25s-7.1323-6.8625-15.039-15.25zm640.47-8.0006c-12.221-12.237-22.526-22.579-22.899-22.982l-0.67924-0.73269 27.799-28.559 9.7298-12.171c20.365-25.475 35.819-50.032 49.804-79.141 2.7312-5.6848 4.9659-10.511 4.9659-10.725 0-0.21393 1.2956-3.2177 2.8791-6.675 8.9866-19.621 17.594-47.813 25-81.887l2.0917-9.6235 4.2377-35.753 0.0543-30 0.0542-30-4.3521-34-3.4442-16.591c-6.1382-29.569-10.661-44.677-21.826-72.909l-6.1297-15.5-8.2302-16.22c-4.5266-8.9209-9.0839-17.471-10.127-19s-3.6149-5.7051-5.7143-9.2801c-4.2658-7.2639-18.97-28.872-22.796-33.5-1.3642-1.65-5.2939-6.5227-8.7328-10.828-3.4388-4.3056-12.15-13.921-19.358-21.368s-13.473-14.175-13.923-14.952l-0.81683-1.4126 44.505-44.939h1.128 1.128l11.577 11.75c6.3673 6.4625 13.088 13.55 14.935 15.75 1.8468 2.2 3.612 4.225 3.9228 4.5s4.3966 5.225 9.0795 11c48.766 60.138 81.465 131.5 96.828 211.33 1.1464 5.9565 3.2697 19.681 4.7186 30.5l2.6343 19.67 0.052 72-2.6721 19.5c-5.928 43.26-13.844 75.314-27.536 111.5-8.43 22.279-10.272 26.49-19.684 45-16.392 32.237-31.375 55.835-52.097 82.05-12.876 16.29-40.662 46.451-42.792 46.45l-1.092-5.6e-4z" fill="#fe0003"/></svg>
