<?xml version="1.0" encoding="UTF-8"?>
<!-- Created with Inkscape (http://www.inkscape.org/) -->
<svg width="1080" height="1080" version="1.1" viewBox="0 0 1080 1080" xml:space="preserve" xmlns="http://www.w3.org/2000/svg"><path d="m514.1 944c-32.02-1.4688-78.146-4.7779-97.5-6.9946-6.875-0.78744-16.55-1.8996-21.5-2.4715-18.613-2.1503-46.246-7.7839-51.381-10.475-3.5874-1.8802-8.4935-7.2356-11.019-12.029l-2.1001-3.9852v-9.7862l6.2006-10.837 12.19-10.144 8.4171-3.608 0.66985-3.0498 0.66985-3.0498 3.0911-2.601c1.7001-1.4306 4.7699-3.2727 6.8216-4.0937l3.7305-1.4927 1.6501-6.6834c0.90756-3.6758 4.9692-18.383 9.0259-32.683 4.0567-14.3 9.203-32.804 11.436-41.12 2.2332-8.3159 4.3419-15.853 4.6859-16.75l0.62556-1.6302h-1.6566c-0.91116 0-2.9678-0.678-4.5702-1.5067l-2.9136-1.5067-2.1956-8.154 0.66289-3.0181 0.6629-3.0181 8.0828-8.0828-0.54747-10.107-0.54746-10.107 0.73383-25.5 0.73382-25.5 2.6838-5.548 2.0786-0.45948c1.1432-0.25271 3.8786-0.57943 6.0786-0.72602l4-0.26655 0.55853-7.8869 0.55853-7.8869 5.8313-5.0158 33.561 1.1354 5.9937-5.0082c3.2966-2.7545 8.9087-8.4109 12.471-12.57l6.4777-7.5615 8.9867-18.719 2.4791-8.2438c1.3635-4.5341 4.0541-14.094 5.9792-21.244l3.5002-13 5.2453-32 0.94632-20c0.52047-11 1.6133-28.942 2.4285-39.872 0.81521-10.93 1.4822-20.337 1.4822-20.904v-1.0326l-25.616 1.2253-17.942 2.6162c-9.8681 1.4389-23.342 3.7733-29.942 5.1875l-12 2.5712-24.06 0.20871-8.0346-3.6208-1.3681-2.1896-1.3681-2.1896-0.47128-27.75-0.47129-27.75h-2.1533c-3.2518 0-12.405-2.5139-29.535-8.112l-15.462-5.0527-111.08 0.48652-5.4268-1.1686c-2.9848-0.64271-7.7886-2.2498-10.675-3.5713l-5.2483-2.4028-9.3977-8.6625-3.9054-8.2203c-4.1688-8.7745-7.8465-19.317-7.8465-22.492 0-1.0645-0.46583-2.8059-1.0352-3.8697l-1.0352-1.9343h-1.2218c-0.67201 0-5.7941-2.2431-11.382-4.9846l-10.16-4.9846-9.9685-9.7096-2.7238-5.3752c-1.4981-2.9564-3.7923-8.2139-5.0982-11.683l-2.3744-6.3082v-9.0099l-17.084-8.1565-9.4156-9.2879-4.9366-10-0.77836-6c-0.42809-3.3-1.062-11.915-1.4086-19.144l-0.63021-13.144 4.8836-3.1999 4.435-0.47277c2.4393-0.26002 64.493-0.71823 137.9-1.0182l133.46-0.54547 0.88868-0.88868 0.88869-0.88868-0.27844-26.234 3.29-6.9332 3.4124-2.109c4.074-2.5179 30.134-11.946 39.523-14.299 13.211-3.3105 35.685-7.5352 51.851-9.7469l16.5-2.2573 75-0.1194 8.5 1.3078c4.675 0.71928 13.225 1.9939 19 2.8325 22.566 3.2768 38.154 6.9125 53 12.362 4.125 1.5141 9.3 3.3195 11.5 4.0121 2.2 0.69256 6.0655 2.2939 8.59 3.5585l4.59 2.2993 6.2213 7.0857 0.60674 3.2714c0.33371 1.7993 0.75096 7.5464 0.92722 12.771 0.17627 5.225 0.37543 9.883 0.44259 10.351l0.1221 0.85101 42.25-0.61498c23.238-0.33823 48.775-0.82848 56.75-1.0894s37.45-0.7068 65.5-0.99077 64.967-0.78492 82.039-1.1132l31.039-0.59691 7.435 3.1066 0.99364 2.6135 0.99364 2.6135v7.8625c0 4.3244-0.46887 11.383-1.0419 15.685l-1.0419 7.8224-6.2323 12.888-7.8369 8.502-10.034 6.4388-10.313 2.3075-1.0318 6.932c-1.2101 8.1298-3.8902 17.203-6.856 23.21l-2.1122 4.2785-11.377 12.631-6.8113 3.5125c-3.7462 1.9319-8.9086 4.0743-11.472 4.761l-4.6608 1.2486-0.57552 2.145c-0.31654 1.1798-0.58166 4.0219-0.58917 6.3158l-0.0137 4.1708-7.0075 16.658-1.3501 1.0034c-0.74257 0.55186-2.2944 2.8543-3.4485 5.1165-2.795 5.4785-6.5342 9.8092-10.684 12.374l-3.4054 2.1047-14.605 4.0893-19.5-0.59987c-10.725-0.32993-33.937-0.87461-51.583-1.2104l-32.083-0.61051-4.4168 0.99584c-2.4292 0.54772-10.266 2.8787-17.415 5.18l-12.998 4.1841-12.002 2.0321c-6.601 1.1177-12.07 2.1016-12.154 2.1866-0.0837 0.0849-0.41979 11.629-0.74692 25.654l-0.5948 25.5-1.3961 3c-0.76785 1.65-1.7858 4.3307-2.262 5.957l-0.86594 2.957-4.9821 1.3866-25 0.199-12.5-2.0421c-6.875-1.1231-18.461-2.9192-25.747-3.9914l-13.247-1.9493-15.753-1.0049c-8.664-0.55271-16.54-1.0065-17.503-1.0085l-1.75-4e-3v6.8274c0 10.252 2.7681 49.837 4.5574 65.173 2.2897 19.625 5.0895 36.346 9.1254 54.5l3.557 16 2.9956 8.5c1.6476 4.675 4.7003 11.875 6.7838 16l3.7881 7.5 6.0701 8.1234c3.3386 4.4679 7.6726 9.5304 9.6311 11.25l3.561 3.1266 12.215 0.0711c6.7184 0.0391 16.149 0.41567 20.956 0.83684l8.741 0.76577 4.0181 3.6363v7.286 7.286l1.1498 0.71058c0.63236 0.39082 2.6961 0.84934 4.586 1.0189s4.298 0.58186 5.3513 0.91616l1.915 0.60781 0.92191 1.7226 0.9219 1.7226 0.61782 36.949 0.61781 36.949 9.9184 8.6764v6.0362l-1.974 2.7723-1.9741 2.7723-3.2759 1.3046c-1.8018 0.71757-3.4281 1.4166-3.614 1.5535-0.18593 0.13684 0.65005 1.5853 1.8577 3.2187l2.1958 2.9699 2.9173 11.359c1.6045 6.2473 6.1089 24.6 10.01 40.783l7.0924 29.424 1.2651 13.953 12.166 3.3245 6.1752 4.3971 2.7439 8.2316 10.663 3.9775 9.5662 9.2679 1.2044 4.5 1.2044 4.5-0.52241 5.8166-0.52242 5.8166-4.9959 7.5493-15.682 8.0892-6 1.7318c-3.3 0.9525-12.3 3.2514-20 5.1088l-14 3.377-16.5 2.4312c-31.671 4.6665-55.161 6.2807-101 6.9408l-31.5 0.45357zm14-214.49 37-1.1883 23 0.60196c12.65 0.33108 25.812 0.88792 29.25 1.2374l6.25 0.63544v-1.4498c0-0.79737-0.90999-4.924-2.0222-9.1703l-2.0222-7.7206-11.098-22.436-3.7759-5c-2.0768-2.75-6.4964-7.6617-9.8214-10.915l-6.0454-5.915-18.274-10.461-18.441-4.6836-19 0.21179-6.741 1.6148c-3.7075 0.88814-9.507 2.779-12.888 4.2019l-6.1467 2.5871-14.96 10.195-15.069 18.105-3.8203 8.0296-3.8204 8.0296-3.4058 12.5c-1.8732 6.875-3.279 12.725-3.124 13s6.5126 0.20255 14.128-0.16099c7.6154-0.36355 30.496-1.1957 50.846-1.8493zm-139.26-400.24c0.25934-2.8875 0.42369-21.9 0.36522-42.25l-0.10629-37-12.647-0.59924-11.353 3.2619-9.5311 6.0658-7.999 9.0874-5.9839 12.184-1.1693 8.0628-1.1693 8.0628 3.5165 10.874 6.0093 9.4448 11.489 10.555 6.0664 2.2919c5.7337 2.1662 16.829 4.9546 20.406 5.1286l1.6348 0.0795zm317.54 0.26664c7.5543-1.3428 13.915-3.9628 20.945-8.6268l5.2295-3.4696 2.4024-3.2102c3.532-4.7194 5.146-8.4067 7.0236-16.045l1.6801-6.8352 0.02-18.33-2.3983-7c-1.3191-3.85-3.6405-9.4508-5.1588-12.446l-2.7604-5.4463-11.386-11.386-6.1837-3.1215c-5.8268-2.9414-15.746-6.0996-19.158-6.0998l-1.5399-9e-5 0.1506 18.75c0.0828 10.313 0.24954 30.9 0.37047 45.75l0.21987 27-1.461 5.5132 0.67275 3.5861 0.67276 3.5861 2.1873-0.52583c1.203-0.28921 5.0152-1.0285 8.4715-1.6429z" fill="#f4d34e"/></svg>
