<?xml version="1.0" encoding="UTF-8"?>
<!-- Created with Inkscape (http://www.inkscape.org/) -->
<svg width="1080" height="1080" version="1.1" viewBox="0 0 1080 1080" xml:space="preserve" xmlns="http://www.w3.org/2000/svg"><path d="m316.65 812.06c-9.2428-1.8552-19.542-6.9426-27.343-13.507-3.8833-3.2674-10.686-12.583-14.028-19.211l-3.1469-6.2397-1.476-6.2603-1.476-6.2603-0.0296-13.402 1.1303-5.2992c0.62164-2.9146 2.2064-7.7398 3.5217-10.723l2.3914-5.4235 3.7015-4.5765c6.0807-7.5181 14.11-15.75 25.755-26.404 12.401-11.346 36.01-33.432 50.993-47.704 5.5036-5.2424 14.057-13.374 19.007-18.071s13.275-12.633 18.5-17.637c5.225-5.0035 10.625-10.067 12-11.252 1.375-1.1854 5.65-5.1791 9.5-8.8749s15.55-14.75 26-24.565 22.108-20.933 25.907-24.707c3.799-3.7738 7.3614-6.8615 7.9164-6.8615s4.8717 3.9426 9.5927 8.7613c4.721 4.8187 13.203 13.213 18.85 18.653l10.266 9.892-12.717 13.193-1.762 5.3222-1.762 5.3222 0.1038 15.83 2.0314 4.5923c1.1173 2.5258 3.3922 6.3105 5.0554 8.4105l3.024 3.8182 9.994 6.4132v1.0514c0 0.57828-4.1625 5.3708-9.25 10.65s-13.3 14.094-18.25 19.587c-4.95 5.4938-14.407 15.617-21.015 22.496-15.528 16.164-47.371 50.277-70.017 75.007-9.821 10.725-21.932 23.7-26.913 28.834l-9.0562 9.3339-18 8.6637-10.598 2.1684-7.2008-0.10957c-3.9604-0.0603-9.0008-0.47086-11.201-0.91244zm22.548-33.904c2.7884-1.0595 6.5172-3.0304 8.2864-4.3798l3.2165-2.4534 2.9175-5.3603 2.9175-5.3603 0.0762-16.02-2.9302-5.3236-2.9302-5.3236-3.7128-2.9406c-2.0421-1.6173-5.3131-3.6092-7.2689-4.4264l-3.5561-1.4858-10.564-0.01-9.7636 3.4998-7.6536 7.4276-4.5364 8.5825-0.0232 7.5707-0.0232 7.5707 6.039 11.808 7.961 5.3451 5 1.5329c2.75 0.84311 6.4577 1.5643 8.2393 1.6026l3.2393 0.0697zm391.73 33.843-5.7259-0.83909-15.548-6.3655-117.63-117.21-9.7212-13.039-3.8855-9.9612-1.2199-8.4666-1.2199-8.4666-1.8419-4.8476-1.8419-4.8476-7.8997-10.463-12.744-6.9085-11.5-0.0696c-6.325-0.0383-12.298-0.15077-13.272-0.25l-1.7723-0.18042-8.7776-8.091-2.3585-9.8312 2.4143-7.3153 33.912-33.611c18.651-18.486 34.911-34.167 36.133-34.846l2.2218-1.2346 3.6008-0.0354c7.2066-0.0709 12.684 2.8715 15.752 8.4622l1.6476 3.0024v28l5.3387 10.115 7.6613 7.4456 8.0677 3.9082 24.158 4.1031 10.264 3.7516 3.7551 3.0441c2.0653 1.6743 30.564 29.726 63.332 62.338l59.576 59.294 7.143 14.36 2.467 14.626-1.1513 16.014-1.5118 4.2512c-0.83148 2.3382-3.4441 7.5131-5.8057 11.5l-4.2939 7.2487-13 13.226-5.5 3.4602c-6.8134 4.2864-15.487 7.4622-24 8.7871-7.2162 1.1231-7.1772 1.1233-15.226-0.0562zm2.732-31.169 2.6176-2.2516 0.51469-3.9984 0.51468-3.9984-52.798-53c-29.039-29.15-54.136-54.012-55.771-55.25l-2.9728-2.25h-6.3387l-5.2727 5.2727v7.6059l106.34 106.36 6.1597 3.7562 4.3885 8e-3zm34.571-35.672 2.9231-2.9231-0.0153-3.3269c-8e-3 -1.8298-0.41699-3.9614-0.90793-4.737-0.49094-0.77552-23.743-24.285-51.671-52.243l-50.778-50.833-7.8124-5.414h-7.073l-3.7423 4.6216v8.8238l107.02 106.45 2.7417 1.2049c1.5079 0.6627 3.5638 1.2252 4.5686 1.25l1.8269 0.0451zm-311.89-252.58-68.363-68.505-2.1329 1.3182 1.259-2.037-33.45-33.494-7.5-3.6768c-4.125-2.0222-11.325-5.1778-16-7.0123s-10.647-4.2393-13.27-5.344l-4.77-2.0086-8.3067-12.618c-10.85-16.482-16.653-25.692-16.653-26.429 0-0.3273-3.375-5.6464-7.5-11.82-4.125-6.1738-7.5-11.521-7.5-11.883 0-0.85286 23.695-24.383 24.989-24.815l0.9846-0.32895 8.9625 5.829c4.9294 3.2059 14.498 9.3877 21.263 13.737s16.617 10.764 21.892 14.254l9.5913 6.3455 1.0177 2.246c0.55972 1.2353 3.1323 7.646 5.7168 14.246s6.1355 14.925 7.891 18.499l3.1919 6.4993 171.5 171.6v2.2928l-11.25 10.786c-6.1875 5.9324-11.689 10.793-12.225 10.802-0.53642 9e-3 -31.739-30.811-69.338-68.489zm163.81 29.85-3.5-4.6988-9.7375-6.6593-11.118-3.2321-12.475 1.0013-5.5796 3.1923c-3.0688 1.7558-8.0504 5.205-11.07 7.665l-5.4906 4.4726-1.7646-0.95629c-0.97055-0.52597-9.1089-8.4375-18.085-17.581l-16.321-16.625 0.3206-0.88504c0.57597-1.59 8.1924-9.2424 26.912-27.039 10.124-9.625 22.515-21.466 27.534-26.312l9.1262-8.8124-1.9654-6.1876c-1.081-3.4032-2.5843-9.5626-3.3408-13.688l-1.3755-7.5-0.067-22 1.4403-8.184c1.9314-10.974 3.5293-16.062 8.5785-27.316l4.2625-9.5 10.216-14.956 13.802-14.594 7.0991-5.2908c13.873-10.339 28.401-17.051 44.826-20.71l9.146-2.0372 26.127-0.052 6.6605 1.0748c3.6633 0.59112 9.6543 1.9995 13.313 3.1296l6.6529 2.0549-0.31341 0.87799c-0.17238 0.48289-15.388 16.241-33.813 35.017l-33.5 34.139-0.31378 3.4801-0.31377 3.4801 3.9194 12.193c2.1557 6.7061 5.1326 16.116 6.6154 20.911l2.6959 8.718 5.2075 4.0962 8.0946 2.3933c12.744 3.7681 22.492 6.3769 30.384 8.1318l7.2895 1.6209 2.7105-1.7177c1.4908-0.94476 17.176-16.285 34.855-34.089 17.68-17.804 32.411-32.371 32.737-32.371 1.0482 0 3.3101 6.405 5.6762 16.074l2.3069 9.4264-0.0932 30-6.0434 23.143-2.7987 5.9287c-1.5393 3.2608-5.9315 10.551-9.7606 16.201l-6.9619 10.272-18.342 17.535-7.3578 4.8474c-12.617 8.3122-26.605 13.886-43.007 17.136l-8.5 1.6843-28-1.1597-5.5-1.4791c-3.025-0.8135-7.6148-2.1547-10.2-2.9804l-4.6996-1.5013-7.8004 8.179c-4.2902 4.4985-11.85 12.355-16.8 17.459l-9 9.2798z" fill="#ececec"/></svg>
