<?xml version="1.0" encoding="UTF-8"?>
<!-- Created with Inkscape (http://www.inkscape.org/) -->
<svg width="1080" height="1080" version="1.1" viewBox="0 0 1080 1080" xml:space="preserve" xmlns="http://www.w3.org/2000/svg"><path d="m255.98 797.5c-49.504-5.4169-92.469-23.003-132-54.029l-10.5-8.241-12.014-12.373c-38.149-39.288-60.833-83.275-70.376-136.46l-1.9896-11.089-2.3584-29.822 0.65307-13c1.4869-29.598 5.3338-49.958 14.737-78l3.0181-9 16.644-34 7.918-12c4.3549-6.6 10.767-15.6 14.249-20l6.3312-8 27.187-27.08 11.5-8.5724c15.85-11.815 25.983-17.979 43.5-26.46l15-7.2627 27-8.9479 11.5-2.5399c6.325-1.3969 16.9-3.33 23.5-4.2957l12-1.7558 41-0.016 8 1.2558c4.4 0.69068 13.85 2.4005 21 3.7995l13 2.5437 14.5 4.7936c7.975 2.6365 19.322 6.915 25.215 9.5079l10.715 4.7142 24.631 14.374 23.482 17.462 8.1234 7.74c4.4679 4.257 21.438 21.69 37.711 38.74s34.773 36.316 41.109 42.814l11.521 11.814 18.442-19.314c10.143-10.623 27.216-28.539 37.939-39.814 33.535-35.261 42.612-43.468 63.611-57.512l11-7.3569 25-13.016 11.729-4.5791c14.677-5.73 32.899-10.76 48.716-13.446l12.188-2.0701 28.367-2.2348 28 2.3567 13 2.3914c69.78 12.836 129.66 55.805 168.95 121.24l6.7512 11.243 5.3036 11.744c9.8201 21.746 16.3 43.408 20.563 68.744l2.0193 12 1.1814 37-1.2008 12.5-1.2007 12.5-2.4856 13c-8.4358 44.122-24.908 79.824-53.02 114.91-39.933 49.846-94.065 81.64-155.36 91.25l-11.5 1.803-45-0.06-13-2.2283c-7.15-1.2256-18.942-3.786-26.205-5.6898l-13.205-3.4615-12.295-4.8734c-28.791-11.412-54.169-26.941-76.429-46.77-3.9236-3.495-26.199-26.397-49.5-50.894l-42.366-44.539-9.0019 9.2749c-4.951 5.1012-21.799 22.775-37.441 39.275-42.339 44.663-49.769 51.668-69.252 65.29-36.77 25.709-78.64 41.054-123.31 45.189l-11 1.0185-24-0.22475zm45-19.572 11.5-1.05 25-4.9374 11.5-3.5852c6.325-1.9719 16.984-5.9391 23.687-8.816l12.187-5.2308 10.813-6.2001c13.155-7.5428 25.391-16.21 37.051-26.244l8.762-7.54 21-21.948c29.732-31.074 55.382-58.086 60.447-63.655l4.3321-4.7632-5.8185-6.2368c-3.2002-3.4302-11.042-11.637-17.426-18.237-6.3844-6.6-18.064-18.862-25.954-27.25-7.8906-8.3875-14.665-15.25-15.053-15.25-0.38876 0-20.466 20.53-44.617 45.623l-43.91 45.623-19 14.313-10 5.1195c-12.341 6.3178-24.488 10.645-37.812 13.469l-10.188 2.1599-32 0.1142-19-3.5066-20.303-6.793-8.3487-4.1882c-4.5918-2.3035-12.399-6.9433-17.349-10.311l-9-6.1226-20.021-20-4.4893-6.237c-13.46-18.7-23.011-41.805-25.917-62.697l-1.0724-7.7104v-14.751-14.751l1.6076-9.4262c1.9106-11.203 5.2712-22.271 10.325-34.006l3.6948-8.5794 13.018-19.841 6.8166-7.7109c20.781-23.508 47.675-38.645 79.844-44.941l11.195-2.1908 28-0.132 9 1.6956c4.95 0.93257 13.05 2.8608 18 4.2849l9 2.5893 24 11.821 21 15.847 20.556 21.368c11.306 11.752 29.756 31.067 41 42.921 11.244 11.854 38.017 39.979 59.496 62.5 21.479 22.521 51.854 54.477 67.5 71.013 15.646 16.536 39.923 42.128 53.948 56.872l25.5 26.806 10.23 8.2142c34.317 27.556 69.392 43.161 112.77 50.173l9 1.4547 33 1.1377 12.5-1.6463c6.875-0.90544 17.607-2.788 23.848-4.1834l11.348-2.5371 23.303-7.9915 24-11.69 24-15.793 9-7.5773c47.645-40.113 76.944-92.878 85.682-154.3l1.2802-9-0.02-44-1.8468-12c-4.8216-31.329-15.254-61.066-30.52-87-7.0621-11.997-12.669-19.868-23.253-32.646l-8.8186-10.646-10.145-9.646c-28.043-26.664-62.034-45.858-97.56-55.088l-9.4912-2.466-29.177-4.2301-40.13 0.96115-12 2.1394c-30.258 5.3946-56.756 15.643-83.429 32.266-20.01 12.471-29.045 20.436-59.633 52.566-10.362 10.885-23.177 24.291-28.479 29.791-5.3014 5.5-15.133 15.821-21.848 22.935l-12.209 12.935 10.316 10.565c5.6738 5.811 15.933 16.419 22.799 23.574s16.972 17.658 22.458 23.339l9.9751 10.33 2.3932-2.839c1.3163-1.5614 6.5137-7.114 11.55-12.339 5.0361-5.225 23.926-24.915 41.978-43.755l32.821-34.255 17.112-12.842 21.197-10.959 18.355-6.1018 18.645-3.3268 26 0.0616 10 1.9902c28.608 5.6934 51.62 19.003 72.956 42.197l6.8916 7.4916 12.734 19.395 3.834 8.3024c4.8269 10.452 9.4277 24.751 11.692 36.339l1.7519 8.9637 6e-3 33-2.1639 10.065c-9.3949 43.697-33.499 77.548-69.975 98.269l-8.7266 4.9575-19 7.0499-17 3.6586h-33l-8.5-1.82c-16.945-3.6281-32.097-10.062-47.5-20.168-10.499-6.8891-17.535-13.161-33.125-29.529-7.0813-7.4348-25.509-26.785-40.949-43-15.441-16.215-51.891-54.454-81-84.975-64.469-67.596-85.651-89.842-108.97-114.45l-17.953-18.942-9.1029-7.9041c-24.039-20.873-50.059-35.585-80.939-45.764l-12.122-3.9958-29.932-5.8863-28.904-1.92-14.389 0.9087c-21.619 1.3653-38.294 4.613-59.111 11.512l-13.5 4.4743-32 15.81-8.5 5.6839c-12.414 8.3012-26.179 19.606-37.07 30.443l-9.5701 9.5229-7.6016 9.596c-4.1809 5.2778-10.564 14.117-14.185 19.644l-6.5833 10.048-12.836 25.713-9.2824 25.822-5.7948 24.248-3.3438 24.93 0.02476 37 1.6641 12.5c3.8556 28.962 10.337 50.43 23.096 76.5l6.3624 13 7.6572 11.443c4.2115 6.2936 10.939 15.519 14.949 20.5l7.2917 9.0571 9.8607 9.5244c12.545 12.117 24.571 21.666 38.14 30.285l10.72 6.809 12 5.8496c15.529 7.57 28.745 12.421 44.983 16.51l13.081 3.2947 11.968 1.6194c14.901 2.0163 17.555 2.2321 29.968 2.4365l10 0.16468zm-39.598-40.06c-4.454-0.46816-9.854-1.2255-12-1.683l-3.9018-0.83182 0.18157-1.4341c0.0999-0.78876 0.7042-4.0695 1.343-7.2905l1.1614-5.8564 3.0715 0.61431c1.6894 0.33787 8.4848 1.1083 15.101 1.712l12.03 1.0977 7.6116-1.0209 0.37098 0.65482c0.20404 0.36015 0.68138 3.9173 1.0607 7.9048l0.68977 7.25-9.3106-0.13288c-5.1208-0.0731-12.955-0.51592-17.409-0.98408zm513.6-0.95864c-6.9701-0.88145-29.221-5.8247-30.906-6.8661l-1.0182-0.62928 1.9659-6.3165c1.0812-3.4741 2.1655-6.6394 2.4094-7.034l0.44343-0.71749 8.9074 2.2456c4.8991 1.2351 12.685 2.7622 17.303 3.3937s9.8577 1.3601 11.645 1.6192l3.25 0.47107v14.909l-3.75-0.12681c-2.0625-0.0697-6.675-0.4967-10.25-0.94879zm47.617-3.6744c-0.29787-1.5125-0.81992-4.7888-1.1601-7.2807l-0.61853-4.5307 10.331-2.3266c8.503-1.915 22.079-6.2416 29.929-9.5383l1.5982-0.67116 2.6518 6.1146c1.4585 3.363 2.6518 6.6601 2.6518 7.3268v1.2122l-8.7097 3.2934c-9.4986 3.5917-30.018 9.1504-33.778 9.1504h-2.353zm-504.93-2.4164c-0.33442-2.3835-0.89088-5.7156-1.2366-7.4046l-0.62852-3.0709 5.8392-1.2968c4.8867-1.0853 22.372-6.9185 28.58-9.5348l1.7411-0.7337 2.105 4.8536c1.1578 2.6695 2.4889 5.8354 2.9582 7.0354l0.8532 2.1818-8.1993 3.1382c-8.6979 3.329-22.146 7.4285-27.926 8.5128l-3.4788 0.65263zm-112.19-7.2014c-8.5101-3.4868-22.844-10.88-26.628-13.735l-2.2765-1.7172 1.9561-3.6355c1.0758-1.9995 2.9058-4.8274 4.0665-6.2841l2.1104-2.6486 4.8966 3.1421c5.7363 3.681 22.663 11.806 26.633 12.785l2.75 0.67766v1.5389c0 2.1137-4.1219 13.255-4.884 13.201-0.3388-0.0239-4.2194-1.5198-8.6235-3.3243zm497.74-11.493c-9.4197-5.6614-18.909-12.409-25.13-17.87l-4.3984-3.8606 4.3984-5.1308c2.4191-2.8219 4.7338-5.1639 5.1437-5.2044s4.7861 2.9942 9.7248 6.7437c4.9387 3.7495 12.754 9.037 17.368 11.75l8.3883 4.9327-3.3756 6.75c-1.8566 3.7125-3.5231 6.75-3.7034 6.75s-3.967-2.1872-8.415-4.8606zm-322.65-9.8582c-1.9674-3.1453-3.5771-6.0066-3.5771-6.3584 0-0.35184 2.485-2.2896 5.5221-4.3062s9.7356-7.2091 14.885-11.539l9.3633-7.8725 5.3059 5.3727c2.9183 2.955 5.1073 5.5168 4.8645 5.6929-0.24278 0.17612-3.8164 3.2754-7.9414 6.8874-7.67 6.716-22.681 17.842-24.072 17.842-0.42556 0-2.3834-2.5734-4.3508-5.7187zm513.62-3.1194-4.0952-5.8382 12.139-8.5608 21.751-21.014 11.002 9.399-0.94349 1.7629c-2.5632 4.7894-31.775 30.09-34.742 30.09h-1.0161zm-751.27-17.816c-7.7696-8.0474-19.925-22.853-19.925-24.27 0-0.71692 10.382-8.0761 11.393-8.0761 0.23325 0 2.6384 2.8125 5.3448 6.25 2.7064 3.4375 8.5447 9.9477 12.974 14.467l8.0533 8.2171-10.265 11.258zm504.52-16.804c-1.0699-1.3516-7.3079-8.1224-13.862-15.046l-11.917-12.589 9.8124-9.9622 1.0928 0.27725c1.607 0.40773 28.416 29.082 28.423 30.4 3e-3 0.61745-2.0091 2.98-4.4719 5.25l-4.4776 4.1274h-2.6542zm-216.14-7.7926-5.1241-5.25 27.801-28.94 5.0077 4.9324c2.7542 2.7128 5.0077 5.3217 5.0077 5.7975 0 0.93579-26.152 28.709-27.034 28.71-0.29379 2.1e-4 -2.84-2.3621-5.6582-5.2496zm517.84-15.212c-2.9444-1.8762-5.5644-3.6222-5.8222-3.8799s0.76638-2.4237 2.2759-4.8131c3.4953-5.5329 10.461-20.513 13.431-28.884 1.2608-3.5534 2.5667-6.7853 2.9019-7.1821l0.60957-0.72139 13.587 4.0762-0.67872 3.0902c-2.1598 9.8333-17.655 41.84-20.213 41.751-0.4056-0.0141-3.1466-1.5607-6.091-3.4369zm-845.75-17.271c-5.1315-11.412-11.397-29.166-11.397-32.295v-1.6982l6.25-1.3827c3.4375-0.76049 6.6408-1.3845 7.1184-1.3866l0.8684-4e-3 2.689 9c1.479 4.95 4.4014 12.962 6.4944 17.804 2.093 4.8421 3.6421 8.9513 3.4426 9.1315-0.19955 0.1802-3.1776 1.7386-6.6179 3.4631l-6.2551 3.1355zm482.85-24.343c-7.8375-8.2336-14.25-15.314-14.25-15.735 0-0.42054 2.2548-2.9855 5.0105-5.6998l5.0106-4.9352 3.3194 3.4728c1.8257 1.91 8.4359 8.7779 14.689 15.262l11.37 11.789-10.9 10.816zm-107.03 6.7962-5.2334-5.2992 8.0513-7.8618 10.438 10.438-8.0224 8.0224zm493.78-41.434-3.5007-0.37739 6.7e-4 -22.909 6.7e-4 -22.909 4-0.61178c2.2-0.33647 5.394-0.84426 7.0977-1.1284l3.0977-0.51665 0.64522 6.8327c0.82536 8.7403 0.8293 26.884 8e-3 35.583l-0.6375 6.75-3.6054-0.16811c-1.983-0.0924-5.1807-0.33793-7.1061-0.5455zm-436.87-18.036-14.049-14.75 10.358-10.503 5.3623 5.2514c2.9493 2.8882 9.4483 9.663 14.442 15.055l9.08 9.8037-4.8719 4.9463c-2.6796 2.7205-5.1872 4.9463-5.5726 4.9463s-7.0226-6.6375-14.749-14.75zm-449.9 11.311-0.57946-0.93876 0.04034-33.122 0.76106-3.3688 0.76106-3.3688 7.1444 0.70337c3.9294 0.38686 7.1647 0.77782 7.1894 0.86881 0.0247 0.091-0.2003 8.9404-0.5 19.665l-0.54492 19.5-13.692 1zm400.47-62.98c-7.5331-7.9305-13.697-14.81-13.697-15.288 0-0.47768 2.2172-3.0524 4.9271-5.7215l4.9271-4.853 13.823 14.258c7.6026 7.8421 13.988 14.699 14.189 15.238l0.36597 0.98022-4.8284 4.9021c-2.6556 2.6962-5.0943 4.9021-5.4194 4.9021s-6.7545-6.4886-14.288-14.419zm-387.2-6.5658-6-1.7356 0.27974-2.3898c0.39471-3.3719 5.646-17.367 10.28-27.398l3.9232-8.4918h1.0369c0.57029 0 3.698 1.3433 6.9505 2.9852l5.9136 2.9852-4.1152 8.7648c-2.2634 4.8207-5.558 12.797-7.3215 17.725l-3.2063 8.9598-0.87057 0.16553c-0.47881 0.091-3.5706-0.61548-6.8706-1.57zm495.71-4.303c-2.3145-2.3583-4.2082-4.7038-4.2082-5.2122 0-0.50837 1.896-2.8562 4.2133-5.2173l4.2133-4.293 10.57 10.438-4.2064 4.286c-2.3135 2.3573-4.694 4.286-5.29 4.286s-2.9773-1.9295-5.2918-4.2878zm363.4-5.9648-2.8932-8.2474-12.598-24.624 12.384-7.8575 1.2907 1.7374c2.6402 3.5541 12.391 23.513 15.802 32.345l3.5294 9.1387-0.91073 2.3733-6.0905 1.6933c-3.3498 0.93131-6.4348 1.6921-6.8556 1.6907l-0.7651-3e-3zm-521.53-35.497-14.109-14.75 11.055-10.229 8.2126 8.6146c4.5169 4.738 10.909 11.425 14.204 14.86l5.9912 6.2456-4.9292 5.0044c-2.711 2.7524-5.2412 5.0044-5.6225 5.0044-0.38135 0-7.0424-6.6375-14.802-14.75zm188.23 9.5792-5.1708-5.1708 29.151-30.658h1.1446c0.62951 0 3.3158 2.2044 5.9696 4.8987l4.8251 4.8987-14.863 15.599c-8.1745 8.5795-15.093 15.6-15.375 15.601-0.28155 1e-3 -2.8388-2.3247-5.6827-5.1686zm-493.79-25.832c-2.741-2.1443-5.1154-4.2941-5.2764-4.7772-0.57013-1.7104 14.056-18.504 22.359-25.672l5.5219-4.7673 3.6898 4.2638c2.0294 2.3451 4.0747 4.9142 4.5451 5.7091l0.85535 1.4453-9.5442 9.6505c-5.2493 5.3078-11.034 11.54-12.855 13.849-1.8211 2.3091-3.5361 4.1982-3.8111 4.1979s-2.7426-1.7549-5.4836-3.8993zm783.62-15.743c-4.6005-4.5942-11.913-11.104-16.25-14.465-4.337-3.3618-7.8855-6.5282-7.8855-7.0364 0-1.0796 7.2615-11.728 8-11.731 1.583-7e-3 16.039 11.969 25.45 21.084l10.95 10.605-3.7267 3.2721c-2.0497 1.7997-4.727 4.0264-5.9495 4.9483l-2.2228 1.6762zm-514.73-5.3801c-2.3199-2.5889-16.576-13.696-21.405-16.677-1.925-1.1883-4.127-2.5727-4.8933-3.0765l-1.3933-0.91583 7.4524-13.326 2.6671 1.6985c8.9336 5.6893 30.167 22.128 30.167 23.355 0 0.95187-9.0692 11.068-9.9226 11.068-0.4221 0-1.6247-0.95663-2.6724-2.1258zm277.85-6.8102c-2.3375-2.7143-4.25-5.3939-4.25-5.9546v-1.0195l7.7834-5.925c8.9014-6.7761 19.776-13.919 25.947-17.044l4.2304-2.1419 3.0196 5.9818c1.6608 3.29 3.0196 6.4017 3.0196 6.9149v0.93306l-5.75 3.2293c-8.1182 4.5594-22.406 14.435-25.223 17.433-1.3064 1.3906-2.8593 2.5281-3.4509 2.5278s-2.9882-2.2213-5.3257-4.9356zm-495.64-18.735c-1.9838-3.1715-3.6069-6.096-3.6069-6.4988 0-1.5799 27.035-15.081 34.512-17.234l2.0119-0.57953 2.3168 6.46 2.3168 6.46-0.6377 1.0318c-0.35074 0.56751-1.2049 1.0318-1.8981 1.0318s-7.7542 3.2587-15.691 7.2415c-7.9368 3.9828-14.72 7.3793-15.074 7.5477-0.3537 0.16841-2.2662-2.2887-4.25-5.4602zm671.9-8.562-6.9967-3.029-11.36-2.869c-6.248-1.578-12.212-2.869-13.253-2.869h-1.8933v-1.6681c0-0.91745 0.49275-4.4976 1.095-7.956l1.095-6.2879 3.155 0.58502c8.261 1.5318 26.396 6.588 33.616 9.3722l8.039 3.1002v0.94927c0 1.1414-5.7409 13.949-6.1873 13.803-0.172-0.0561-3.4612-1.465-7.3094-3.131zm-514-1.9738c-2.75-1.1012-10.147-3.3143-16.437-4.918-6.2903-1.6037-11.65-3.1292-11.911-3.39-0.26082-0.26082 0.0889-3.6251 0.77711-7.4762l1.2513-7.002 2.6598 0.58785c13.724 3.0332 34.4 9.3142 36.034 10.947 0.20604 0.20583-0.66468 3.3182-1.9349 6.9163l-2.3095 6.5421-1.5651-0.1023c-0.86079-0.0563-3.8151-1.0033-6.5651-2.1044zm404.67-8.444-2.0862-6.8346 0.70732-0.59325c2.6693-2.2388 31.978-7.903 40.957-7.9155l4.25-6e-3v14.841l-6.75 0.66247c-5.4888 0.53869-22.212 3.6846-32.871 6.1833l-2.1212 0.49727zm-498.61-1.4744c-1.6974-7.4331-2.4071-11.36-2.1075-11.659 0.18623-0.18623 4.3234-0.96199 9.1938-1.7239l8.8552-1.3853 22-0.60639-0.28819 6.9549c-0.15851 3.8252-0.38351 7.0438-0.5 7.1526s-6.5118 0.70437-14.212 1.3235-15.89 1.3942-18.2 1.7223l-4.1996 0.59652zm47.468 303.07c22.897-2.8446 41.89-10.639 60.733-24.921l7.7409-5.8676 18.932-19.829c10.412-10.906 29.933-31.206 43.379-45.11l24.447-25.281-6.3476-6.719c-25.149-26.621-73.488-76.926-79.323-82.55l-7.0869-6.8312-8-5.3103c-15.05-9.99-26.922-14.945-44.284-18.483l-10.03-2.0441h-12.962-12.962l-8.5519 1.4913c-4.7036 0.82023-12.075 2.607-16.381 3.9707l-7.8291 2.4793-8.5 4.2901c-4.675 2.3596-11.2 6.0725-14.5 8.2509l-6 3.9607-21.278 21.057-5.6728 8.7485c-9.2772 14.307-14.314 26.876-17.648 44.037l-1.9009 9.7854v12.834 12.834l1.5468 8.881c2.0276 11.642 3.9122 18.016 8.452 28.589l3.7392 8.7082 13.072 19.584 13.972 14.346 16.586 12.297 10.066 4.873c21.804 10.555 44.677 14.653 66.593 11.93zm527.61-2.8418 8.1352-2.0204 8.8648-3.8356c10.547-4.5633 18.244-9.3697 28.254-17.642l7.3896-6.107 12.685-14.807 10.947-18.193 3.1438-7.9149c1.7291-4.3532 4.2194-12.155 5.5339-17.337l2.3901-9.4221 1.015-10.763 1.015-10.763-1.0356-10.4-1.0356-10.4-2.0754-8.5c-5.8295-23.876-17.405-43.764-35.531-61.046l-7.8312-7.4667-15-9.8795-8.6156-3.8104c-4.7386-2.0957-12.164-4.7908-16.5-5.9891l-7.8844-2.1787-36-0.1056-8.8574 2.339c-16.093 4.2498-27.893 10.024-41.972 20.537l-6.8295 5.1-28.084 29.5c-15.446 16.225-33.523 35.146-40.17 42.046-6.6477 6.9003-13.857 14.429-16.021 16.731l-3.9343 4.185 13.015 13.269c7.1584 7.298 25.998 26.994 41.865 43.769 32.118 33.956 36.389 38.005 48.237 45.74 13.49 8.8058 29.002 14.774 44.751 17.218l6 0.93113 26-0.76327z" fill="#dbdbdb"/><path d="m268.98 798.31c-44.105-3.159-82.23-14.852-118-36.191-4.125-2.4608-13.35-8.8412-20.5-14.179l-13-9.7047-9.3088-8.7763c-21.984-20.726-41.95-48.282-55.775-76.978l-6.2634-13-4.1434-12c-4.5329-13.128-9.0144-30.768-11.566-45.527l-1.638-9.4731-0.52736-23.203-0.52737-23.203 1.1669-11.297c3.2082-31.06 12.405-62.348 26.541-90.297l6.0693-12 8.6497-13c11.303-16.988 19.862-27.497 33.323-40.913l11-10.964 9.5893-7.6427c26.911-21.448 56.736-36.734 89.911-46.081l10.5-2.9584 28-4.8277 29.5-2.1963 29.187 2.1793 11.157 2.0034c48.426 8.6958 90.909 29.027 125.81 60.212l8.3425 7.4534 42 44.113c23.1 24.262 42.27 44.115 42.601 44.117 0.60935 5e-3 10.419-9.9776 32.917-33.495 29.094-30.413 37.169-38.742 50.455-52.04l14.028-14.04 10.04-7.5192c13.149-9.8477 25.892-17.67 41.375-25.4l12.586-6.2832 11.1-4.0551c14.388-5.2565 30.783-9.5802 46.4-12.237l12.5-2.1267 40.004-1.0394 14.998 2.1588c39.475 5.6819 70.106 17.342 101.81 38.756 15.071 10.179 24.339 17.866 37.704 31.272 13.8 13.843 20.893 22.437 32.252 39.074l8.5352 12.502 5.5655 10.515c14.143 26.721 23.462 55.597 28.29 87.658l1.6271 10.805 0.134 43-1.2985 10c-6.2269 47.954-22.442 88.204-50.962 126.5l-8.5643 11.5-31.096 31.156-11.5 8.5302c-19.466 14.439-36.478 24.021-57.197 32.215l-11.682 4.6203-25.186 6.9026-28.435 4.4888-40-0.0558-28-4.3494-26.25-6.9454-11.804-4.562c-21.557-8.3317-43.557-20.426-60.941-33.501-9.1659-6.8942-32.742-27.841-34.202-30.388-1.3272-2.3146-74.36-78.612-75.249-78.612-0.45196 0-2.5269 1.9125-4.611 4.25-5.6542 6.3417-55.982 59.276-70.925 74.599-7.1602 7.342-17.294 16.963-22.519 21.38l-9.5 8.0308-26.19 17.434-12.905 6.5386c-17.421 8.8267-36.318 15.795-55.905 20.614-21.383 5.2612-49.685 7.9005-69.5 6.4813zm35.789-20.386c27.757-3.0235 53.79-10.74 79.711-23.628l13-6.4635 11-7.3479c20.659-13.8 30.578-22.736 61.605-55.503 10.156-10.725 27.358-28.817 38.226-40.206l19.762-20.706-22.74-23.794c-12.507-13.087-27.238-28.466-32.736-34.176l-9.9958-10.382-4.4476 4.8818c-9.7923 10.748-53.668 56.032-72.094 74.409l-19.58 19.527-7.5 4.9677c-4.125 2.7322-11.268 6.8638-15.872 9.1813l-8.3724 4.2136-9.1276 3.0003c-12.775 4.1992-20.861 5.8906-34.017 7.1148l-11.384 1.0594-10.863-1.0984c-40.847-4.1301-73.033-21.414-99.613-53.493-11.235-13.559-22.114-36.842-26.866-57.5l-1.9554-8.5-1.1848-32 3.3649-23 7.7355-23.243 3.4947-6.9396c1.9221-3.8168 6.3296-11.187 9.7945-16.379l6.2998-9.4391 18.066-18.729 17-12.773 24-11.958 16-5.1408 22.699-3.8996h12.724 12.724l9.4262 1.6122c5.1844 0.88672 13.251 2.696 17.926 4.0207l8.5 2.4085 26 12.899 7.6344 5.7799c12.323 9.3294 17.001 13.972 66.807 66.303 11.243 11.813 34.166 35.877 50.941 53.477 43.225 45.353 60.794 63.848 93.091 98 15.604 16.5 38.227 40.224 50.273 52.721l21.903 22.721 8.6753 6.895c4.7714 3.7923 13.175 9.9158 18.675 13.608l10 6.7129 30 14.758 27.197 9.0111 12.402 2.4923c6.8209 1.3708 16.215 2.9622 20.875 3.5365l8.4738 1.0442 31.052-0.01 13-1.9141c16.66-2.453 24.142-4.2142 39.256-9.2403l12.263-4.0781 27.48-13.483 10.5-6.9608c43.535-28.861 75.882-69.902 93.921-119.16l4.1557-11.349 3.395-13.826 3.3949-13.826 1.6866-13.825 1.6867-13.825-0.5845-21.5-0.5846-21.5-1.9312-11c-7.401-42.154-23.884-78.732-50.252-111.52l-7.6551-9.5182-10.866-10.68c-5.9762-5.874-14.016-13.252-17.866-16.396-7.9759-6.5124-25.846-18.404-35.566-23.666-9.6101-5.2031-28.903-13.048-40.934-16.644l-10.5-3.1385-28-4.7716-23-1.3499-27.843 2.2506-12.673 2.4711c-40.566 7.9097-77.738 26.2-109.04 53.652-7.3743 6.4674-91.445 94.665-91.445 95.934 0 0.73675 25.34 27.618 58.787 62.362l5.7874 6.0118 5.7126-6.0838c3.1419-3.3461 19.687-20.671 36.766-38.5 17.08-17.829 33.28-34.835 36-37.792 2.7204-2.9568 8.8097-8.6195 13.532-12.584l8.5857-7.2076 17.316-10.459 18.831-7.8684 21.682-5.4506 37 0.0212 9.5 2.3526c17.198 4.2589 27.628 8.91 43.071 19.206l9.4294 6.2872 21.078 21.078 6.2937 9.4391c10.683 16.022 16.917 29.999 21.882 49.061l2.7349 10.5 0.012 44-5.4759 21.56-8.6251 21.44-4.1691 7.1223c-6.0351 10.31-14.86 21.84-22.936 29.967l-7.0452 7.0898-17.749 13.383-11 5.3657c-11.84 5.7756-19.676 8.5635-31.5 11.207l-7.5 1.6771-32 0.154-21-4.6511-8-3.0705c-13.813-5.3017-25.757-12.172-38.258-22.006l-6.2575-4.9229-41.205-43.158c-22.663-23.737-49.097-51.475-58.742-61.641-24.699-26.031-82.33-86.405-94.995-99.517-5.8439-6.05-22.381-23.408-36.75-38.573s-31.354-32.566-37.745-38.67l-11.621-11.097-11.992-8.3302c-20.431-14.191-36.86-22.493-60.223-30.428l-12.788-4.3436-29.425-5.9418-10.924-1.0578c-13.799-1.3362-25.95-1.3364-40.576-9e-4l-11.5 1.05-25 4.9374-11.495 3.5843c-26.845 8.3703-47.76 19.041-71.005 36.225l-11.5 8.5019-21.728 21.144-8.0639 10c-4.4351 5.5-11.139 14.663-14.897 20.363l-6.8335 10.363-14.874 30.274-9.0474 27-2.4433 11.5c-1.3438 6.325-3.0296 15.775-3.7462 21l-1.303 9.5-0.0168 40 1.27 10.129c2.8535 22.759 8.9605 45.375 17.921 66.366 8.211 19.235 18.983 36.967 33.701 55.476l7.9381 9.9826 18.169 18.047 10.6 8.2373c25.145 19.541 53.073 33.718 82.09 41.671l12.599 3.4531 12.333 2.0379c15.766 2.6053 17.3 2.7315 35.623 2.933l15.289 0.16811zm-32.789-39.617c-3.025-0.16777-9.8926-0.81078-15.261-1.4289l-9.7614-1.1239-1.0489-1.6971 2.296-13.185 2.6378 0.56488c6.3759 1.3654 18.355 2.4854 26.888 2.5139l9.25 0.0309v13.738l-3.75 0.61984c-2.0625 0.34091-4.2 0.54155-4.75 0.44586-0.55-0.0957-3.475-0.31124-6.5-0.47901zm504.5-1.4636c-4.4-0.5013-13.668-2.2742-20.595-3.9397l-12.595-3.0283 4.135-14.041 2.0272 0.50158c9.2272 2.2831 26.349 5.5292 32.319 6.1272l7.2917 0.73048-0.29167 7.1443-0.29168 7.1443-2 0.13641c-1.1 0.075-5.6-0.27374-10-0.77503zm45.895-7.0205c-0.4526-3.4875-0.83904-6.7183-0.85874-7.1796l-0.0358-0.83869 26-6.5916 14.958-5.991 5.7196 12.982-0.83886 0.76321c-2.6988 2.4555-28.515 10.465-40.48 12.559l-3.6413 0.63728zm-503.87 2.9091c-2.6418-11.633-2.6503-12.75-0.0972-12.75 2.2701 0 20.797-5.6199 27.235-8.2612l6.1647-2.5294 2.5853 5.9612c1.4219 3.2787 2.5853 6.3421 2.5853 6.8078v0.84654l-8.25 3.1557c-6.4416 2.464-27.813 9.0194-29.404 9.0194-0.16914 0-0.53746-1.0125-0.81849-2.25zm-114.55-10.125c-7.9126-3.4105-22.181-10.807-25.336-13.134l-1.8589-1.3708 7.4098-12.198 4.154 2.4116c10.546 6.1224 15.663 8.7193 22.154 11.243 3.85 1.4967 7.3793 3.0561 7.8428 3.4652l0.8428 0.74381-2.2268 6.1072-2.2268 6.1072-1.616-0.0665c-0.8888-0.0366-5.0012-1.5256-9.1388-3.3089zm497.67-11.875c-9.1405-5.5456-17.669-11.609-23.907-16.999l-3.7633-3.2513 9.6038-10.793 6.7446 5.3966c5.45 4.3607 19.675 13.916 26.522 17.816l1.344 0.76544-3.1084 6.1576c-1.7096 3.3867-3.4852 6.1577-3.9457 6.1577-0.4605 0-4.7313-2.3625-9.4906-5.25zm-320.96-8.8505c-2.0973-3.3553-3.6711-6.2106-3.4972-6.3452 0.17391-0.13459 3.0162-2.0698 6.3162-4.3004s9.7432-7.235 14.318-11.121l8.3182-7.065 1.6818 1.1228c0.925 0.61756 3.2514 2.913 5.1697 5.1009l3.4879 3.978-4.9879 4.449c-5.152 4.5954-25.6 20.238-26.491 20.266-0.27656 9e-3 -2.2188-2.7298-4.3162-6.085zm513.9-2.6197-3.9217-5.6443 3.3854-2.5678c7.9617-6.0388 20.803-17.176 24.784-21.495l4.302-4.6671 1.686 0.58325c0.92731 0.32078 3.6389 2.3515 6.0258 4.5127l4.3398 3.9294-9.8332 9.6433c-8.9722 8.7988-24.482 21.48-26.158 21.388-0.37865-0.0209-2.4532-2.5779-4.6102-5.6822zm-751.08-17.895c-6.1529-6.1529-20.502-23.222-20.491-24.374 5e-3 -0.50886 9.9346-7.0878 11.116-7.365 0.34156-0.0802 2.7717 2.5542 5.4003 5.8542s8.3726 9.6707 12.764 14.157l7.9852 8.1571-4.3855 5.0924c-2.412 2.8008-4.698 5.0926-5.08 5.0929-0.38195 2.7e-4 -3.6713-2.9764-7.3097-6.6147zm492.59-29.538-14.168-15.153 2.7907-2.9386c1.5349-1.6162 3.9692-3.7861 5.4097-4.822l2.619-1.8834 28.561 30.077-4.8619 4.9361c-2.674 2.7149-5.159 4.9361-5.5221 4.9361s-7.0358-6.8188-14.828-15.153zm-204.42 4.3242-4.756-4.8286 26.281-27.343h2.3902l8.8404 9.0078-5.4546 5.7461c-12.72 13.4-21.462 22.246-21.985 22.246-0.30782 0-2.6999-2.1729-5.3156-4.8286zm518.05-14.748c-3.1453-1.9674-5.7187-3.8329-5.7187-4.1456 0-0.3127 2.86-6.2405 6.3556-13.173s7.5855-16.036 9.0888-20.231l2.7332-7.6262 6.6612 1.9847c3.6637 1.0916 6.7962 2.1083 6.9612 2.2594 0.55337 0.5069-3.9443 12.901-7.6185 20.994-3.2584 7.1772-11.959 23.514-12.522 23.514-0.12196 0-2.7952-1.6097-5.9405-3.5771zm-846.88-19.128c-1.6721-3.6877-4.8321-12.064-7.0223-18.615l-3.9821-11.91 0.83497-0.74616c0.45923-0.41038 3.6439-1.4325 7.077-2.2713l6.2421-1.5252 1.0909 4.1363c1.9958 7.5674 5.8913 18.606 8.935 25.319 1.6542 3.6483 2.8688 6.7722 2.699 6.942-0.47206 0.47206-11.692 5.3757-12.3 5.3757-0.29381 0-1.9023-3.0172-3.5744-6.7049zm483.5-22.861c-7.611-8.0168-13.962-14.914-14.113-15.328-0.35532-0.97434 9.5748-9.3626 10.575-8.9329 0.41803 0.17962 6.934 6.8269 14.48 14.772l13.72 14.445-2.7501 2.8962c-1.5126 1.5929-3.9479 3.7575-5.4119 4.8101l-2.6618 1.9139zm-107.13 7.2776c-2.3145-2.3583-4.2082-4.745-4.2082-5.3038s1.5846-2.5518 3.5213-4.429l3.5213-3.413 10.148 10.148-6.3973 7.2861h-1.1882c-0.65351 0-3.0819-1.9295-5.3964-4.2878zm496.79-41.358c-1.375-0.22791-3.4-0.60633-4.5-0.84095l-2-0.42657v-44.873l13.611-1.8422 0.44724 0.72364c0.24598 0.39801 0.69334 7.402 0.99414 15.564l0.54691 14.841-0.79987 8.5-0.79986 8.5-2.5 0.13441c-1.375 0.0739-3.625-0.0521-5-0.27995zm-439.38-17.815c-7.4926-7.9001-13.623-14.796-13.623-15.324 0-1.1155 8.5694-9.2152 9.7496-9.2152 0.76406 0 28.25 28.441 28.25 29.232 0 0.21285-2.4197 2.476-5.3772 5.0293l-5.3772 4.6423zm-450.22 8.9422-0.63208-2.5184 0.37979-17.415c0.20889-9.5783 0.62567-17.661 0.92618-17.961l0.54639-0.54639 13.031 1.2169-0.1576 38.539-4.3896 0.60205c-2.4143 0.33112-5.4432 0.60204-6.7309 0.60204h-2.3414zm400.14-61.656-13.671-14.174 10.102-10.102 5.0942 4.9752c2.8018 2.7363 9.1785 9.3859 14.171 14.777l9.0763 9.8016-4.3658 4.4484c-2.4012 2.4466-4.899 4.4484-5.5508 4.4484h-1.185zm-386.41-5.9624c-3.504-0.97477-6.5033-1.9054-6.6651-2.068-0.8572-0.86191 11.388-31.878 14.526-36.796l0.95743-1.5 5.2761 2.8894c2.9018 1.5892 5.6512 3.2243 6.1096 3.6336l0.83355 0.74415-4.054 8.6129c-2.2297 4.7371-5.4387 12.536-7.131 17.331-1.6923 4.7947-3.1681 8.7644-3.2795 8.8215-0.1114 0.0571-3.0695-0.69368-6.5735-1.6684zm495.66-4.6136-4.6364-4.75 7.8416-8.7501 1.7532 1.3229c3.8984 2.9416 8.2532 7.3847 8.2532 8.4204 0 1.062-7.0711 8.5068-8.0798 8.5068-0.27249 0-2.5818-2.1375-5.1318-4.75zm365.58 1.1038c-3.5269-10.029-7.4114-19.123-11.947-27.969-2.98-5.8121-5.4182-10.881-5.4182-11.265s2.4751-2.1976 5.5003-4.0311l5.5003-3.3335 1.3462 1.1172c2.7943 2.3191 19.653 38.92 19.653 42.667 0 0.22212-2.5875 1.1525-5.75 2.0675s-6.3087 1.8743-6.9916 2.1317l-1.2416 0.46805zm-523.85-41.959-13.83-14.56 10.383-10.335 5.6676 6c3.1172 3.3 9.4741 9.9891 14.126 14.865l8.4589 8.8647-3.9123 3.6353c-2.1518 1.9994-4.6211 4.1875-5.4874 4.8625l-1.575 1.2272zm188.08 9.7591-4.8958-5.0184 2.7874-3.3176c1.533-1.8247 8.1339-8.8841 14.668-15.688l11.881-12.37 4.8756 4.37c2.6816 2.4035 4.9213 4.8755 4.9773 5.4933l0.10174 1.1233-29.5 30.426zm-494.21-26.823c-2.6916-2.0179-5.0681-3.8048-5.2812-3.9707-0.71178-0.55449 10.671-13.766 18.74-21.751l7.9737-7.8903 1.4516 0.55703c0.79837 0.30637 3.159 2.6407 5.2458 5.1874l3.7942 4.6303-6.9728 6.3639c-3.835 3.5002-9.5826 9.554-12.772 13.453s-6.134 7.089-6.5425 7.089c-0.4085 0-2.9449-1.651-5.6365-3.6689zm786.57-12.948c-5.5335-5.6865-20.491-18.571-24.906-21.454l-2.4052-1.5706 7.5396-11.359h1.0619c2.7184 0 25.002 18.948 31.249 26.571l3.8352 4.6804-4.9201 4.3357c-2.7061 2.3846-5.1605 4.353-5.4543 4.3741-0.29379 0.0211-2.9938-2.4892-6-5.5785zm-521.62-11.592c-3.7627-3.2279-10.539-8.332-15.058-11.342l-8.2164-5.4734 3.3567-5.701c1.8462-3.1356 3.7818-5.8427 4.3012-6.0159l0.94452-0.31484 10.415 7.422c5.7283 4.0821 12.786 9.6073 15.683 12.278l5.268 4.8563-9.8532 10.16zm282.19-2.863-4.7263-5.0528 1.7912-1.9793c4.8527-5.3622 32.033-23.896 35.044-23.896h1.333l6.2695 12.42-1.078 0.35933c-0.5929 0.19764-5.0346 2.839-9.8703 5.8696-7.6785 4.8122-11.246 7.3636-21.804 15.592l-2.233 1.7403zm-495.95-19.024-3.9169-6.0791 1.4169-0.91691c3.483-2.2539 23.013-11.951 28.717-14.259l6.3004-2.5491 0.60778 1.7004c0.33427 0.93524 1.4573 3.9072 2.4957 6.6044l1.8879 4.9039-0.79608 0.6808c-0.43784 0.37443-3.0461 1.4967-5.7961 2.4938-6.0559 2.196-19.994 9.0558-23.654 11.642-1.4599 1.0314-2.8099 1.8714-3 1.8666-0.19009-5e-3 -2.1082-2.7443-4.2626-6.0878zm670.81-8.9415c-5.9917-2.4536-16.497-5.4236-29.736-8.4072l-2.8475-0.6417 0.52572-2.2065c0.28915-1.2136 0.84048-4.3865 1.2252-7.0509l0.69946-4.8444 4.4454 0.66663c11.185 1.6773 38.344 10.168 39.738 12.424l0.47611 0.77037-2.9151 6.1641c-1.6033 3.3902-3.2718 6.1357-3.7076 6.101-0.43585-0.0347-3.9924-1.3734-7.9035-2.975zm-511.78-1.1063c-2.6926-1.0606-10.343-3.3428-17-5.0716-6.6574-1.7288-12.239-3.2347-12.404-3.3466-0.1648-0.11185 0.21889-3.181 0.85266-6.8204l1.1523-6.617 1.6474 0.0148c5.0588 0.0454 37.147 9.5191 37.147 10.967 0 1.5854-4.863 12.463-5.6441 12.625-0.47075 0.0975-3.0589-0.6905-5.7515-1.7511zm403.77-8.861-2.1242-6.9852 4.1242-1.0609c2.2683-0.5835 5.4742-1.4661 7.1242-1.9614 5.7393-1.7227 20.044-3.9598 27-4.2226l7-0.26444 0.58762 14.5h-3.6023c-5.3902 0-16.766 1.87-27.884 4.5838-5.4444 1.3289-9.9444 2.4116-10 2.406-0.0556-6e-3 -1.0569-3.1535-2.2252-6.9954zm-499.18-3.986c-0.65524-2.8386-1.1913-5.9787-1.1913-6.978v-1.8169l12.5-2.346 26.5-1.1513v14.284l-5.75 8e-3c-5.3599 7e-3 -17.382 1.1541-26.809 2.5578l-4.0587 0.60436zm64.309 303.08 12-3.0608 24-11.953 16.149-12.805 42.926-44.683c23.609-24.576 43.073-45.104 43.253-45.618l0.3271-0.93468-87.315-91.025-17.339-13.075-22-10.84-19.332-4.9976-21.06-2.448-23.608 2.3334-19 5.059-24 11.764-14 10.514-15.189 15.588-10.441 15.103-4.9706 10.406-4.9706 10.406-4.859 19.155-2.2115 21.52 0.62793 8c1.875 23.889 8.5739 43.623 21.385 63l4.6282 7 19 19 17.541 11.713 20.159 8.8719 8.3864 1.9918c4.6125 1.0955 10.98 2.4026 14.15 2.9047l5.7636 0.91296 28-0.74243zm513-0.0793 8-2.1347 22-10.551 16.268-12.3 14.994-15.938 4.4968-6.8257c12.974-19.693 19.812-40.238 21.386-64.25l0.63774-9.7314-1.2-9.8902-1.2-9.8903-2.4609-9.2075c-4.8211-18.038-13.61-34.89-25.704-49.286l-6.2954-7.4934-17.922-14.604-24-11.856-14.735-3.9911-20.801-2.3407-20.464 2.3212-16 4.197-9.32 4.3498c-11.426 5.3326-21.418 11.886-29.428 19.298-7.1114 6.5816-85.855 88.697-87.098 90.828l-0.84622 1.4502 7.8634 8.1668c14.056 14.598 46.569 48.773 62.473 65.667l15.534 16.5 17.822 13.644 22 10.784 7.9194 2.143c4.3557 1.1787 9.9807 2.5202 12.5 2.9812l4.5806 0.83814 31-0.74392z" fill="#d2d2d2"/><path d="m258.98 797.35c-37.977-4.5718-68.12-13.753-97.5-29.696-13.117-7.1179-19.233-11.156-34.5-22.776l-11.5-8.7527-11.68-11.823c-11.167-11.304-15.286-15.92-20.82-23.332-1.375-1.8414-3.4521-4.5053-4.6157-5.9198-8.693-10.567-22.558-34.732-30.256-52.732l-5.2005-12.16-7.8188-25.993-5.0196-25.744-2.3496-27.944 1.1971-36 1.0719-7.5c2.9933-20.944 9.9076-46.453 17.511-64.6 12.786-30.518 30.463-57.157 53.923-81.263l11.058-11.363 10-8.0749c5.5-4.4412 15.4-11.632 22-15.979l12-7.9038 30-14.626 10.118-3.5282c15.045-5.2463 27.208-8.3572 43.907-11.23l14.975-2.576 37.193-1.1296 11.384 1.192c6.2612 0.65559 18.143 2.5292 26.404 4.1636l15.02 2.9716 30 10.034 32 15.791 10.886 7.1121c5.9873 3.9117 14.987 10.426 20 14.477l9.114 7.3644 16.091 16.334c13.495 13.698 33.579 34.662 64.549 67.376 3.102 3.2767 7.4031 7.6521 9.558 9.7232l3.9181 3.7655 24.942-26.204c13.718-14.412 29.667-31.179 35.442-37.259 5.775-6.0805 16.069-16.591 22.875-23.356l12.375-12.3 12.267-9.2059c13.289-9.9728 23.386-16.269 38.983-24.31l10-5.1552 13.696-5.1297c17.086-6.3992 28.224-9.3827 47.326-12.677l14.978-2.5832 33-1.1239 10.5 1.209c5.775 0.66497 16.35 2.284 23.5 3.5977l13 2.3887 11 3.3949c57.051 17.607 105.4 55.763 139.59 110.16l6.237 9.9234 13.518 28.097 3.6457 10.5c4.7084 13.561 8.9532 30.019 11.448 44.387l1.9856 11.435 1.0466 14.737 1.0467 14.737-1.0368 15.602c-1.231 18.524-2.0371 24.173-6.0439 42.346l-3.0301 13.744-4.0542 12.213c-11.68 35.186-29.155 64.397-56.321 94.147l-10.456 11.451-24.399 20.445-24.177 15.996-30 14.605-12.415 4.0984c-21.817 7.2019-37.378 10.32-59.585 11.938l-11 0.80164-22-0.80071-14-1.9994c-42.358-6.0493-79.321-21.108-113.5-46.24-16.88-12.412-15.421-10.978-82.139-80.709-10.251-10.714-20.542-21.607-22.869-24.207l-4.2303-4.7265h-2.4263l-19.418 20.298c-10.68 11.164-26.59 27.926-35.355 37.25-31.963 33.999-45.325 46.043-67.063 60.451l-11 7.2909-34 16.547-12.415 4.1026c-15.946 5.2692-24.707 7.4843-40.115 10.142l-12.469 2.1511-23 0.27972c-12.65 0.15385-24.575 0.0901-26.5-0.14162zm51.603-19.905c27.783-3.642 51.672-11.296 78.397-25.12l12.5-6.4654 11.683-8.1902c20.018-14.033 27.641-21.184 66.831-62.69 9.607-10.175 22.041-23.225 27.632-29 14.953-15.447 20.345-21.412 20.085-22.223-0.1272-0.39759-3.3813-4.0042-7.2313-8.0146-3.85-4.0105-14.875-15.585-24.5-25.722s-20.985-22.055-25.244-26.485l-7.7436-8.0552-8.7748 9c-4.8261 4.95-19.544 20.25-32.705 34-13.162 13.75-30.704 31.772-38.982 40.048l-15.051 15.048-8 5.2692c-10.192 6.7128-23.544 13.256-35.009 17.158l-8.991 3.0592-22.699 3.9176h-24.451l-22.85-4.0604-8-2.5934c-4.4-1.4264-12.05-4.5222-17-6.8796l-9-4.2861-19-12.582-10.065-10.049c-11.596-11.578-16.227-17.51-23.426-30.009-7.819-13.575-13.127-27.646-16.615-44.04l-1.702-8-0.0726-36 1.8261-9.5 1.8261-9.5 3.4362-9.9156c4.347-12.544 9.4497-22.699 17.31-34.451l6.1938-9.2599 20.288-20.387 14-9.8853 26-13.212 10-2.6665c5.5-1.4666 14.707-3.4096 20.459-4.3178l10.459-1.6513 26.081 1.0338 10 2.1221c5.5 1.1672 12.925 3.0699 16.5 4.2284 9.0273 2.9252 24.885 10.94 35 17.69l8.5 5.6722 14.036 14c13.793 13.757 30.217 30.708 47.977 49.517 19.894 21.068 48.533 51.185 59.922 63.014 6.6355 6.8919 16.097 16.792 21.025 22 4.9284 5.2081 13.267 13.969 18.53 19.469s16.526 17.425 25.029 26.5c18.214 19.438 28.919 30.699 46.072 48.461 6.9254 7.1714 18.777 19.639 26.338 27.707l13.746 14.668 7.6623 6.447c17.446 14.679 34.928 25.993 53.846 34.849l10.663 4.9916 26.154 8.6888 12 2.5562c6.6 1.4059 15.825 3.1025 20.5 3.7702l8.5 1.214 34-0.0238 11.5-1.7464c34.827-5.2889 61.735-15.512 90.64-34.436l11.86-7.7644 9-7.5755c40.259-33.887 67.166-76.845 79.964-127.66l3.4658-13.763 1.6695-12.441 1.6695-12.441 0.06-38-3.5622-25-3.3092-13.5c-8.8492-36.101-24.815-67.412-49.351-96.786-8.758-10.485-14.372-16.217-27.821-28.407-12.182-11.041-31.185-23.466-48.784-31.897-21.373-10.238-36.355-15.051-59-18.953l-12-2.0679-29-1.1416-24 2.2313-26.474 5.0817-12.263 4.0885c-24.71 8.2381-45.908 19.236-66.763 34.636l-11.5 8.4921-16.573 16.612c-9.1154 9.1364-24.64 25.137-34.5 35.556-9.8596 10.419-22.036 23.244-27.06 28.5-5.0231 5.2555-10.998 11.574-13.278 14.041l-4.145 4.4857 0.27793 1.231c0.15286 0.67708 5.4652 6.5335 11.805 13.014s16.465 16.967 22.5 23.304 15.345 16.077 20.688 21.645l9.7152 10.125 9.3434-9.6453c5.1389-5.3049 20.342-21.119 33.785-35.143 13.443-14.024 29.616-30.834 35.941-37.356l11.5-11.859 16.591-12.481 8.7044-4.5877c11.309-5.9607 22.435-10.014 35.318-12.869l10.386-2.3013 31 8e-3 8.5 1.7922c27.357 5.7681 52.829 20.496 71.625 41.413l6.1246 6.816 14.284 21.247 3.3394 7.3382c4.1619 9.1456 9.1816 24.129 11.169 33.338l1.5104 7 0.61922 14.577 0.61921 14.577-2.4733 19.65-5.8688 20.901-9.691 21.718-13.046 19.577-16.376 17.484-18.742 14.087-16.902 8.9912-18.949 6.7716-17.741 3.4431-26 0.059-9.5-1.7951c-28.546-5.394-55.976-20.542-75.452-41.669-6.6321-7.1942-36.149-38.351-51.047-53.883-12.681-13.22-45.405-47.551-89.501-93.896-9.625-10.116-19.75-20.707-22.5-23.535-9.7368-10.015-42.343-44.302-59.015-62.057-9.296-9.9-22.771-23.887-29.944-31.083l-13.042-13.083-9.5-7.4799c-21.342-16.804-45.413-29.608-73-38.83l-9.5-3.1759-14-2.8716c-7.7-1.5794-18.37-3.345-23.711-3.9236l-9.7106-1.052h-13.796-13.796l-25.564 2.9904-11.212 2.5186c-43.507 9.7734-83.059 31.643-114.5 63.313l-10.291 10.365-7.0896 9.1564c-3.8993 5.036-9.7156 13.054-12.925 17.817l-5.8355 8.661-13.698 26.678-9.529 25.917-2.8738 11.379c-1.5806 6.2584-3.6706 16.402-4.6444 22.542l-1.7707 11.163-0.0188 49 1.7861 11.5c2.3386 15.057 5.9128 29.536 10.832 43.878l3.986 11.622 13.824 28.663 7.5733 11.42c14.274 21.526 28.03 37.041 46.466 52.412l10.5 8.7541 11 7.1637c29.31 19.088 60.175 30.817 94.963 36.086l12.037 1.8233 38.398 0.1774zm-54.78-40.839c-4.7728-0.63159-8.924-1.3946-9.225-1.6955l-0.54718-0.54718 2.3421-12.594 4.0539 0.63655c2.2296 0.3501 10.648 0.91134 18.707 1.2472l14.653 0.61065 0.59663 2.9832c0.32815 1.6407 0.59663 4.7269 0.59663 6.8582v3.875l-22.5-0.22554zm515.68-0.72c-3.3-0.46749-10.838-2.0391-16.75-3.4925l-10.75-2.6426 0.0326-1.1355c0.0179-0.62454 0.90129-3.6105 1.963-6.6355l1.9303-5.5 0.78704 0.14389c0.43287 0.0791 5.9736 1.2977 12.313 2.7079l11.526 2.564 16.449 1.3718-9e-3 1.6062c-5e-3 0.88343-0.29246 3.9687-0.63929 6.8562l-0.6306 5.25-5.1107-0.12194c-2.8109-0.0671-7.8107-0.50444-11.111-0.97194zm51.028-6.4848c-0.38748-3.6183-0.48041-6.8028-0.20651-7.0767 0.2739-0.2739 5.7022-1.8035 12.063-3.3992s15.207-4.3056 19.658-6.0222c4.4512-1.7166 8.1964-2.964 8.3228-2.7722 0.25962 0.3943 2.2151 4.7856 4.2445 9.5318l1.361 3.183-8.2354 3.1919c-6.8564 2.6574-33.022 9.9422-35.71 9.9422h-0.79229zm-504.56-1.0621-1.1379-5.4813 0.96486-2.5144 5.8511-1.298c3.2181-0.71389 10.126-2.8573 15.351-4.7631s10.211-3.6861 11.081-3.9562l1.5809-0.49108 2.7594 6.1488c1.5177 3.3818 2.6062 6.287 2.4191 6.4559-2.0607 1.8597-28.542 10.218-34.938 11.027l-2.7938 0.35357zm-114.53-6.3368c-8.2389-3.5512-22.211-10.898-25.118-13.207l-1.1725-0.9316 3.1057-4.996c1.7081-2.7478 3.4279-5.1951 3.8216-5.4385 0.39376-0.24335 6.2738 2.4282 13.067 5.9368 6.793 3.5086 14.504 7.174 17.135 8.1454l4.7838 1.7662-0.46478 1.1013c-0.25564 0.60568-1.253 3.4638-2.2164 6.3512l-1.7516 5.25-1.0674-0.0373c-0.58706-0.0205-5.1421-1.7936-10.122-3.9402zm503.06-8.5705c-6.641-3.5311-20.951-13.507-26.941-18.782l-4.9352-4.3459 7.7939-9.324h1.1098c0.61039 0 4.0806 2.3625 7.7116 5.25 5.9264 4.7129 23.365 16.12 25.972 16.989l1.0287 0.3429-2.5826 4.9591c-1.4204 2.7275-2.9694 5.5291-3.4422 6.2259l-0.85957 1.2668zm-325.36-11.518c-1.7322-2.7865-3.1495-5.4071-3.1495-5.8235 0-0.41637 3.0375-2.8509 6.75-5.41 3.7125-2.5591 10.125-7.5597 14.25-11.112l7.5-6.4594 4.75 4.6483c2.6125 2.5566 4.75 4.9002 4.75 5.2082 0 1.5468-28.581 23.959-30.601 23.995l-1.1005 0.0199zm514.03-2.6656-3.9306-5.788 6.1111-4.49c3.3611-2.4695 10.714-8.9193 16.339-14.333l10.228-9.843 2.785 1.9953c1.5318 1.0974 3.8867 3.1756 5.2331 4.6183l2.4481 2.6231-6.9481 7.0534c-6.9106 7.0154-19.045 17.506-25.142 21.736l-3.1937 2.2158zm-751.33-17.95c-8.4012-8.6156-19.852-22.431-19.852-23.952v-1.1575l4.8376-3.1042c2.6606-1.7073 5.115-3.1042 5.4542-3.1042 0.33916 0 2.2406 2.1375 4.2255 4.75s7.6119 8.8476 12.504 13.856l8.8956 9.1058-9.4173 10.424zm503.47-17.698c-1.5526-1.859-7.7408-8.6357-13.752-15.059l-10.929-11.679 9.8576-9.7667 28.426 30.385-4.6753 4.75c-2.5714 2.6125-4.9969 4.75-5.3901 4.75-0.39314 0-1.985-1.521-3.5376-3.38zm-215.52-7.37-4.6238-4.75 26.757-28 9.9068 10-13.171 13.753c-7.2438 7.564-13.412 13.751-13.708 13.75-0.29568-1e-3 -2.6183-2.1401-5.1614-4.7526zm517.45-15.356c-2.8875-1.6825-5.25-3.2221-5.25-3.4213s2.4516-4.9996 5.4479-10.667c2.9964-5.6679 7.0918-14.58 9.101-19.805s3.7754-9.6303 3.925-9.7895c0.14955-0.15925 3.0636 0.4866 6.4756 1.4352l6.2037 1.7248-0.6511 3.5648c-1.4002 7.6657-16.361 38.892-19.029 39.717-0.53522 0.16553-3.3356-1.0756-6.2231-2.7582zm-845.97-18.644c-4.3791-9.7909-7.033-16.847-9.2079-24.482l-1.9176-6.7319 3.7287-1.004c2.0508-0.55222 5.1211-1.2825 6.8228-1.6229l3.0941-0.61882 1.6093 5.8547c0.88513 3.2201 3.7008 11.147 6.257 17.616s4.4651 11.927 4.2421 12.13c-0.57139 0.51932-10.756 5.6092-11.224 5.6092-0.21186 0-1.7438-3.0375-3.4042-6.75zm491-14.984c-3.3564-3.7215-9.5157-10.141-13.687-14.266-4.1716-4.125-7.5864-7.9688-7.5885-8.5418-2e-3 -0.57299 2.0316-3.0395 4.5194-5.4811l4.5233-4.4393 13.928 14.481c7.6603 7.9646 13.943 14.706 13.961 14.981 0.0541 0.80521-1.2269 2.2597-5.519 6.2664l-4.0347 3.7664zm-114.58-1.0607-4.7222-4.7943 7.0609-6.8437 9.2847 9.2847-2.913 3.5016c-1.6022 1.9259-3.1549 3.5341-3.4506 3.5738-0.29568 0.0397-2.6626-2.0852-5.2598-4.7221zm495.52-41.424-6.2782-0.96364 0.48464-3.1589c0.26655-1.7374 0.74575-7.2089 1.0649-12.159l0.58025-9-2.0008-18.973 0.71374-0.6625c0.39255-0.36437 3.4982-0.97398 6.9014-1.3547l6.1876-0.69219 1.5273 7.6819-8e-3 31-0.75873 4.75-0.75872 4.75-0.68873-0.12743c-0.3788-0.0701-3.5139-0.56105-6.967-1.091zm-437.9-17.315c-7.0538-7.4432-12.957-14.123-13.118-14.843l-0.29311-1.3101 8.5468-8.2955 5.8477 5.7408c3.2162 3.1574 9.483 9.7021 13.926 14.544l8.0784 8.8028-4.3646 4.4472c-2.4005 2.446-4.6872 4.4472-5.0814 4.4472s-6.488-6.0899-13.542-13.533zm-450.67 6.9998c-0.82691-6.033-0.82547-20.964 0.0029-29.735l0.63916-6.7679 3.3537 0.51788c1.8446 0.28483 4.829 0.74455 6.6321 1.0216l3.2784 0.50375-0.0568 37.987-3 0.0136c-1.65 7e-3 -4.6198 0.28157-6.5995 0.60905l-3.5995 0.59541zm400.6-59.39c-7.2875-7.6572-13.25-14.313-13.25-14.791s2.0172-2.849 4.4827-5.2687l4.4827-4.3994 13.267 13.831c7.297 7.6072 13.432 14.261 13.632 14.786l0.365 0.95495-4.3232 4.405c-2.3778 2.4228-4.567 4.4048-4.865 4.4046-0.29798-2.2e-4 -6.5043-6.2654-13.792-13.923zm-387.58-6.5845c-2.6591-0.73072-5.0828-1.5767-5.386-1.88l-0.5514-0.5514 3.2169-9.2806c1.7693-5.1043 5.185-13.46 7.5904-18.568l4.3735-9.2874 6.0457 3.0518c3.3251 1.6785 6.0457 3.2804 6.0457 3.5596s-1.7629 4.0141-3.9176 8.2995c-2.1547 4.2854-5.3611 11.925-7.1254 16.978l-3.2078 9.1861-1.1246-0.0894c-0.61855-0.0492-3.3002-0.68727-5.9593-1.418zm496-4.3296-4.764-4.8368 4.0546-3.6631c2.23-2.0147 4.4096-3.6631 4.8435-3.6631 0.43391 0 2.6835 1.9304 4.9991 4.2899l4.2102 4.2899-8.5794 8.42zm363.77-5.0446c-1.5086-4.1901-5.4799-13.018-8.8251-19.618-3.3452-6.6-6.232-12.322-6.4151-12.716l-0.33298-0.7163 11.473-7.3389 1.3961 1.8857c4.7587 6.4276 19.568 40.427 18.203 41.791-0.28834 0.28834-3.2764 1.3808-6.64 2.4277l-6.1158 1.9034zm-509.46-22.868c-0.0182-0.4125-5.8519-6.825-12.964-14.25l-12.931-13.5 9.7608-9.8093 8.3335 8.8977c4.5834 4.8938 10.696 11.417 13.583 14.495 2.8875 3.0785 5.25 6.0238 5.25 6.5451 0 0.5213-1.9982 2.6181-4.4405 4.6596-4.2509 3.5533-6.5216 4.5734-6.5926 2.9618zm175.75-3.864-4.7879-4.5676 13.752-14.523c7.5637-7.9876 14.364-14.758 15.112-15.045l1.3598-0.52179 4.4364 4.354c2.44 2.3947 4.3191 4.6393 4.1759 4.988-0.44993 1.0952-28.133 29.93-28.711 29.906-0.30241-0.0127-2.7044-2.0786-5.3377-4.5908zm-494.49-26.471-5.2801-4.0521 9.2801-10.579c5.104-5.8184 11.432-12.398 14.061-14.622l4.7811-4.0428 3.1441 3.8143c1.7292 2.0979 3.6866 4.3209 4.3496 4.9401l1.2055 1.1257-12.381 12.779c-6.8094 7.0285-12.381 13.216-12.381 13.75 0 1.6763-1.3405 1.0607-6.7801-3.1138zm785.24-14.286c-3.8747-3.9542-10.962-10.304-15.75-14.11l-8.7051-6.9211v-1.1043c0-0.60739 1.1554-2.6543 2.5676-4.5486 1.4122-1.8944 2.9491-4.1078 3.4154-4.9188l0.84773-1.4745 11.413 7.8605 24.154 23.234-4.3203 3.9272c-2.3762 2.16-4.8283 4.2238-5.4491 4.5863l-1.1287 0.65907zm-521.68-11.427c-4.2464-3.6861-10.643-8.502-14.214-10.702s-6.5096-4.3443-6.5292-4.7652c-0.0196-0.42083 1.3594-3.2369 3.0643-6.2578l3.0999-5.4927 3.9607 2.226c4.9241 2.7675 27.067 19.971 27.543 21.4l0.34946 1.0484-4.1114 4.6708c-2.2613 2.5689-4.4106 4.6492-4.7764 4.6228-0.36576-0.0264-4.1394-3.0639-8.3858-6.75zm283.82-1.6354-4.5786-5.3594 6.7388-5.4192c7.9929-6.4276 16.542-12.268 24.587-16.797l5.8478-3.2922 0.92307 1.4007c0.50769 0.77038 2.0119 3.5219 3.3428 6.1146l2.4197 4.7139-19.381 11.548-15.32 12.45zm-495.35-18.339c-1.7875-2.6228-3.25-5.287-3.25-5.9204v-1.1516l10.25-5.4512c5.6375-2.9982 13.342-6.6691 17.12-8.1576l6.8702-2.7063 0.75636 0.82985c0.41599 0.45642 1.6724 3.3284 2.7919 6.3823l2.0356 5.5525-8.4987 3.4067c-4.6743 1.8737-11.886 5.3376-16.027 7.6975-4.1406 2.36-7.8141 4.29-8.1634 4.2889-0.34922-1e-3 -2.0974-2.1478-3.8849-4.7706zm670.78-9.4622-7.4693-3.0012-10.031-2.4061c-5.5169-1.3234-11.093-2.6414-12.392-2.929l-2.3615-0.52293 0.71009-6.703c0.39055-3.6866 0.87485-6.8746 1.0762-7.0844 1.1146-1.1611 31.048 7.0526 39.783 10.916l4.5472 2.0114-2.8685 6.0654c-1.5777 3.336-3.0161 6.198-3.1966 6.36-0.18045 0.16203-3.6893-1.0559-7.7974-2.7066zm-519.03-3.3991c-5.775-1.8864-13.334-3.9723-16.799-4.6353l-6.2988-1.2054 0.50103-2.0127c0.27557-1.107 0.80665-3.9352 1.1802-6.2848 0.37354-2.3497 1.0341-4.4915 1.4679-4.7596l0.78871-0.48744 8.3299 1.949c4.5815 1.072 12.83 3.4939 18.33 5.382l10 3.433-0.3316 1.3776c-0.18238 0.75766-1.2503 3.5151-2.3731 6.1276l-2.0416 4.75-1.1268-0.10202c-0.61977-0.0561-5.8519-1.6454-11.627-3.5319zm410.7-6.4864c-0.98879-3.3646-1.6389-6.2763-1.4448-6.4705 0.98757-0.98757 20.327-5.4403 27.743-6.3877 4.675-0.5972 10.188-1.3017 12.25-1.5655l3.75-0.47969 9e-3 2.2618c5e-3 1.244 0.2841 4.5536 0.62069 7.3548l0.612 5.093-16.787 1.1847-11.361 2.5647c-6.2488 1.4106-11.864 2.5641-12.477 2.5633l-1.1156-1e-3zm-498.18-0.0608c-0.66953-1.8853-2.4683-10.113-2.4973-11.422l-0.0245-1.1034 7.25-1.2086c3.9875-0.66476 12.762-1.4741 19.5-1.7985l12.25-0.58987v14.304h-7.7762c-7.4972 0-22.859 1.5126-26.479 2.6072l-1.7549 0.5307zm53.655 301.66 8.6767-1.5178 20.028-6.7317 16.75-9.1305 15.111-11.596 17.379-18.028c9.5582-9.9152 29.472-30.549 44.252-45.852l26.874-27.824-6.893-7.1479c-3.7911-3.9314-11.384-11.878-16.874-17.66-15.042-15.843-34.167-35.732-50.678-52.702-8.1414-8.368-14.803-15.68-14.803-16.25v-1.0355h-1.2722c-0.69969 0-2.8372-1.262-4.75-2.8044-14.719-11.868-34.633-20.343-55.927-23.8l-8.5513-1.3882-19 4.3e-4 -9 1.4747c-4.95 0.8111-12.375 2.4162-16.5 3.567l-7.5 2.0923-8.2399 3.8593c-4.5319 2.1226-12.182 6.422-17 9.5542l-8.7601 5.6948-19.169 19.25-12.14 18.562-4.1651 9.719c-2.2908 5.3455-4.5333 10.619-4.9833 11.719s-1.6551 6.5-2.678 12l-1.8598 10 0.132 31 4.4195 20.589 2.9853 7.515c4.2437 10.683 7.4297 16.692 13.996 26.396l5.7512 8.5 7.3558 7.2234c9.2138 9.048 16.673 14.819 26.597 20.58l7.7584 4.5031 9.5 3.4954c8.248 3.0347 18.39 5.6763 27 7.0323 1.375 0.21656 8.125 0.45359 15 0.52673l12.5 0.13299zm506.3 0.47951c4.9369-0.56554 12.503-1.9286 16.812-3.029l7.8363-2.0008 8.2468-3.8101c10.435-4.8208 18.178-9.7584 27.447-17.502l7.3186-6.114 14.614-17.569 11.273-20.431 7.0567-21.713 2.9073-19.287v-20l-2.8736-19-2.9802-9.1042c-3.5922-10.974-9.4858-23.141-15.876-32.775l-4.7227-7.1204-15.973-16.668-13.063-9.8725-22.24-11.009-19.76-5.0659-21.15-1.166-8.4248 1.208c-4.6336 0.66441-11.94 2.0944-16.237 3.1778l-7.8125 1.9698-17.146 7.9217-17.229 11.417-9 9.0476c-4.95 4.9762-23.148 23.896-40.44 42.043s-33.83 35.456-36.75 38.464l-5.3097 5.4684v3.1383l5.0868 4.9624c2.7977 2.7293 16.849 17.337 31.225 32.462 14.376 15.125 31.999 33.52 39.163 40.878l13.025 13.378 15.475 11.597 22.525 10.925 16.847 4.4136 8.5766 0.76469c4.7171 0.42058 9.4766 0.82374 10.577 0.89592 1.1 0.0722 6.0393-0.33149 10.976-0.89703z" fill="#ccc"/></svg>
