<?xml version="1.0" encoding="UTF-8"?>
<!-- Created with Inkscape (http://www.inkscape.org/) -->
<svg width="1080" height="1080" version="1.1" viewBox="0 0 1080 1080" xml:space="preserve" xmlns="http://www.w3.org/2000/svg"><path d="m141.33 654.2-38-0.85368-2.5-3.3581v-2.3817-2.3817l12.368-11.589-2.1853-6.657c-1.2019-3.6613-3.7598-10.686-5.6842-15.611l-3.4989-8.9542v-5.3254-5.3254l3.25-3.0678c4.0847-3.8557 29.277-20.414 41.39-27.204 26.552-14.885 65.725-30.213 94.86-37.12 16.583-3.9308 28.129-5.5836 56-8.0158 13.2-1.1519 26.025-2.5783 28.5-3.1698l4.5-1.0754 35-17.243c41.92-20.652 41.433-20.425 66.84-31.155l20.16-8.5147 13.5-4.4448c26.078-8.5861 47.76-12.974 75.5-15.28l10-0.83129 42-0.0382 11 0.86686c36.693 2.8916 73.58 8.7311 115.5 18.285 33.103 7.5443 74.956 17.859 112 27.601 46.259 12.166 78.696 19.969 91.546 22.022l6.3926 1.0212 8.7808-0.98955c4.8295-0.54426 13.886-1.9843 20.125-3.2l11.344-2.2104 3.3125 2.0787 1.845 5.176-8.7498 17.617-0.74876 14 3.118 7.3507 5.2678 5.6821c2.8973 3.1252 6.1154 7.305 7.1514 9.2886l1.8836 3.6064-1.1259 19.072-2.4694 9.578-2.4694 9.578-3.2306 6.422c-1.7769 3.5321-5.9332 10.377-9.2364 15.21l-6.0058 8.7878-7.607 6.5113-6.3114 2.162c-6.7672 2.3182-28.327 7.271-31.432 7.2207l-1.8796-0.0304 1.5-0.87743c0.825-0.48259 6.1326-2.0201 11.795-3.4167l10.295-2.5393 10.761-4.9266 4.6006-4.2407c5.1789-4.7737 9.953-11.047 14.033-18.439l2.7598-5 6.8327-20.848 1.1183-10.241 1.1182-10.241-2.6935-6.5027-5.8867-6.5834c-3.2377-3.6209-6.752-8.253-7.8097-10.294l-1.9229-3.7102v-15.972l4-7.7298c2.2-4.2514 4-8.0073 4-8.3464v-0.61665l-22.317 4.4917-27.578 2.4162-19.303-1.2068c-10.616-0.66375-24.028-1.6327-29.803-2.1532-17.147-1.5454-28.283-1.7307-51.303-0.85383l-21.803 0.83054-29.395 3.169-11 2.3757c-6.05 1.3066-12.575 2.6797-14.5 3.0512l-3.5 0.67554 1-0.97558c2.8833-2.8129 30.67-9.5068 53.5-12.888l18.5-2.7402 32.5 0.0388c17.875 0.0214 34.471 0.30295 36.879 0.62576l4.379 0.58692-0.87899-0.83831c-0.48344-0.46108-9.204-2.9418-19.379-5.5126-10.175-2.5709-26.15-6.6709-35.5-9.1111-9.35-2.4402-21.725-5.569-27.5-6.9528s-19.5-4.7325-30.5-7.4416c-29.061-7.1574-87.692-19.756-102.9-22.111-32.057-4.9649-39.261-5.8745-58.104-7.3363l-20-1.5516-34 0.0386-14.5 1.4239c-7.975 0.78314-19.041 2.1136-24.591 2.9565l-10.091 1.5326-12.909 3.467c-7.1001 1.9069-17.409 5.1063-22.909 7.1098s-11.8 4.2275-14 4.9423c-13.497 4.3851-44.39 18.469-86.368 39.374l-33.726 16.796-5.8448 1.1738c-5.9424 1.1934-17.149 2.3174-41.768 4.1892l-13.707 1.0421-11.293 2.0118c-31.042 5.5298-70.215 18.801-97.325 32.973-18.916 9.8883-46.772 27.411-51.303 32.272l-2.3349 2.505 2.0156 6.8452c1.1086 3.7648 3.2571 9.7702 4.7744 13.345l2.7587 6.5 0.42799 6.8311 0.428 6.8311-10.404 9.6152 0.83467 0.49211c0.45906 0.27066 5.7847 0.79893 11.835 1.1739 6.05 0.375 18.425 1.3117 27.5 2.0816s24.375 1.9068 34 2.5265 17.688 1.3116 17.917 1.5376c0.51017 0.50309-12.218 0.34566-61.417-0.7596zm263-0.779c-14.3-0.33081-25.281-0.70252-24.402-0.826 4.9345-0.69309 47.764-3.4066 75.402-4.7772l32-1.5869 118-1.105 32.5 1.1126c43.787 1.499 98.153 4.2022 100 4.9723l1.5 0.62558-32 1.3607-277 0.82547zm4.604-22.438 0.60399-0.65427 26.396-1.9838c14.518-1.0911 29.996-2.4121 34.396-2.9354 4.4-0.5234 20.825-1.8772 36.5-3.0084s36.825-2.7171 47-3.5242c18.062-1.4327 33.113-2.526 61.5-4.4676l14-0.95755 12.787-5.2144 14.213-9.636 7.0496-7.3656c9.678-10.112 14.902-17.243 23.341-31.866 9.3227-16.153 9.3113-16.131 8.8846-16.558-0.19978-0.19978-4.3935 0.0475-9.3193 0.54941-9.6772 0.98613-48.831 4.4714-67.456 6.0047-6.325 0.52068-25 2.0729-41.5 3.4494-41.463 3.4589-75.738 6.1014-118 9.097-19.8 1.4035-42.975 3.1408-51.5 3.8606l-15.5 1.3088-1.3389-0.69543-1.3389-0.69544 21.839-2.2306c12.011-1.2268 33.764-3.5283 48.339-5.1144 55.662-6.0575 65.502-7.0893 100-10.486 19.525-1.9222 46.975-4.846 61-6.4971 40.629-4.7832 62.563-6.9893 76.25-7.669l12.75-0.63317v1.5716c0 6.5912-21.198 41.541-35.368 58.312l-5.1322 6.0742-14.614 12.134-5.6928 3.033c-3.1311 1.6682-9.2034 4.211-13.494 5.6508l-7.8013 2.6178-14.199 0.92431c-31.804 2.0704-85.772 4.4388-135.7 5.9553-17.875 0.54294-40.825 1.2834-51 1.6454l-18.5 0.65826zm-47.366-28.105-1.7616-6.8056-6.1761-12.202-4.2752-5.2129c-8.8655-10.81-20.703-19.03-34.156-23.72l-6.8699-2.3947-16.349-2.3805-17.651 2.3382-14.386 4.8175-14.334 8.5523-13.469 13-7.6706 11.616-3.2611 9.1921-3.2612 9.1921-0.0589-2.0201c-0.0979-3.3591 3.8281-16.323 6.6076-21.819 8.5114-16.829 18.6-26.296 37.333-35.032l7.5-3.4976 19.688-3.2563 8.6592 1.0528c16.662 2.0259 26.053 5.6353 37.972 14.595l6.3057 4.7401 11.583 13.76 3.5489 7.2382c1.9519 3.981 4.3051 9.9727 5.2294 13.315l1.6804 6.0767-0.6663 5.6597zm539.89-0.13408-1.8718-6.8734-3.5893-7.5-3.5893-7.5-18.078-18.064-7-3.5948c-3.85-1.9771-9.7819-4.5391-13.182-5.6933l-6.182-2.0985-14.636-1.7736-4.5 0.35503c-2.475 0.19526-6.8389 0.58428-9.6975 0.86447l-5.1975 0.50944-7.0334 2.5371c-3.8684 1.3954-10.205 4.3655-14.081 6.6001l-7.0472 4.063-13.61 13.295-8.3878 12.47-5.8357 17.53-0.0552-3.0848-0.0552-3.0848 2.0936-6.4152c1.1515-3.5283 3.8821-9.865 6.068-14.082l3.9743-7.6664 9.3641-10.848 13-9.4752 14-6.616 15-3.6925h20l15 3.6806 14.11 6.8294 13.522 10.776 9.159 11.679 7.6049 16.313 1.6075 6.2034 1.6075 6.2034-0.61166 5.0272zm-766.63-15.838c0-1.0693 4.6824-2.7593 19.661-7.096 18.214-5.2735 20.006-6.0308 30.839-13.028 9.2039-5.9453 20.231-11.667 21.604-11.21l0.93916 0.31305-6.7714 5.4002c-3.7243 2.9701-10.497 7.8412-15.05 10.825l-8.2787 5.4244-11.616 4.7202-12.635 2.5582c-11.851 2.3996-18.692 3.1657-18.692 2.0934zm265.5-62.528 5-0.89838 25.5-1.0566c30.405-1.2598 59.225-3.2817 86.5-6.0685 21.73-2.2202 80.643-9.325 92.126-11.11l7.1264-1.1079 4.7202-12.899c2.5961-7.0943 5.5304-15.575 6.5208-18.846l1.8006-5.9469-1.1471-0.93875-1.1471-0.93876-7.5-1.0659c-4.125-0.58623-15.825-1.8147-26-2.73l-18.5-1.6641-36 1.2141-10.85 1.5112c-27.439 3.8217-39.144 6.6951-61.281 15.043l-14.869 5.6075-14.086 6.858c-7.7472 3.7719-18.586 9.3716-24.086 12.444-11.225 6.2697-14.324 7.2838-6.8146 2.2296 15.024-10.111 49.382-27.665 66.616-34.034 10.615-3.923 26.74-8.4427 41.133-11.529l9.7622-2.0935 33.476-3.2254 42 1.1668 14.5 1.5653c7.975 0.86092 18.55 2.2392 23.5 3.0629 27.082 4.5064 82.078 17.621 84.641 20.184l0.77801 0.77802-5.92 4.7372c-8.613 6.8921-17.447 12.394-23.588 14.692l-5.3815 2.0135-12.264 1.9752c-15.691 2.527-45.39 6.5094-67.764 9.0866-9.625 1.1086-22.675 2.6719-29 3.4739-6.325 0.802-17.575 1.9257-25 2.4971-7.425 0.57142-18.225 1.472-24 2.0013-9.2508 0.84782-22.467 1.5872-62 3.4684-5.775 0.27481-24.675 0.7117-42 0.97087l-31.5 0.47122zm255.51-25.988c10.721-1.676 23.993-3.9923 29.493-5.1475l10-2.1003 3.5-2.535c3.6747-2.6616 6-5.1214 6-6.3473 0-2.2139-47.894-13.864-63.854-15.532l-5.6591-0.59149-4.6437 12.867c-2.554 7.0769-5.6087 15.297-6.7882 18.268l-2.1445 5.4005 7.3017-0.61722c4.0159-0.33947 16.074-1.9884 26.795-3.6644z" fill="#fe5e60"/><path d="m192.1 654.68c0.97296-0.25355 2.323-0.23687 3 0.0371l1.231 0.49804-6-0.0742zm-69.102-1.2646-19.333-0.54242-1.4172-1.9411c-0.77947-1.0676-1.4172-2.5922-1.4172-3.388v-1.4469l12.304-11.421-0.62551-3.9012c-0.34402-2.1457-2.705-9.0762-5.2466-15.401l-4.6211-11.5-1.0822-11.43 3.3857-2.9648c4.8912-4.2831 11.598-8.9312 26.886-18.633l13.5-8.567 13-6.3716c21.022-10.303 30.75-14.32 53.5-22.091l21.5-7.3439 11.695-2.566c15.372-3.3728 28.011-5.074 52.305-7.0402l20-1.6187 13.701-2.808 31.149-15.447c37.94-18.815 50.02-24.531 63.649-30.119 5.775-2.3675 13.875-5.7438 18-7.5029 18.476-7.879 47.55-16.38 68.059-19.901l11.559-1.9844 30.642-2.3438 58.24 1.028 14.5 1.6303c27.505 3.0925 69.819 10.904 108.5 20.029 8.25 1.9463 20.85 4.8906 28 6.5428s18.85 4.5179 26 6.3681 22.675 5.866 34.5 8.9241c11.825 3.058 26.45 6.9046 32.5 8.548 12.17 3.3058 43.482 10.857 59 14.229l10 2.1729 19-1.1781 25-4.7374 3.6534 0.94814 1.9454 5.1168-9.347 18.832-0.50604 6.3043-0.50605 6.3043 4.301 8.8847 9.8098 10.071 2.2012 4.3146 2.2012 4.3146-0.64345 7.542c-0.3539 4.1481-1.5274 11.733-2.6078 16.855l-1.9644 9.313-3.8922 8.3059c-4.6996 10.029-10.829 19.258-17.459 26.291l-4.9242 5.2228-5.1307 1.9134c-6.0232 2.2462-29.509 7.596-30.221 6.884-0.26901-0.26901 3.6913-1.4977 8.8006-2.7304l9.2897-2.2412 12.509-5.6501 5.2651-5.3106c9.8611-9.9465 16.554-22.547 20.865-39.286l2.067-8.0244 1.0027-20-14.504-17-3.9496-8.8408 0.49863-6.9689 0.49862-6.9689 4.1088-8.0421c2.2598-4.4231 3.9457-8.2052 3.7463-8.4046s-4.8053 0.52649-10.235 1.6131c-5.43 1.0866-14.357 2.5241-19.838 3.1945l-9.9653 1.2189-41.069-1.2226-36-3.2822-49 1.0846-32 3.1732-14.342 3.0471c-7.8884 1.6759-14.55 2.8398-14.803 2.5865-1.5626-1.5626 30.011-8.955 50.698-11.87l16.448-2.3178 78.479 0.0786-0.73927-0.68391c-0.4066-0.37615-2.7643-1.1232-5.2393-1.6602-4.7946-1.0402-28.218-6.9584-62.5-15.791-30.558-7.8732-63.693-15.889-82-19.836-8.8-1.8974-24.325-5.2729-34.5-7.5011-30.3-6.6354-66.296-12.063-94-14.174l-15.5-1.181-39-0.051-12.5 1.1904c-50.772 4.8349-87.39 17.602-171.34 59.739-14.763 7.41-29.076 14.353-31.805 15.429l-4.9626 1.9561-9.1949 1.4285c-5.0572 0.78567-17.295 1.9418-27.195 2.5691l-18 1.1406-11.5 1.9758c-39.922 6.8587-80.271 21.224-113.58 40.436-14.915 8.6037-32.428 19.976-36.877 23.946l-3.9525 3.5271 1.1345 5.4088c0.62398 2.9748 2.5457 8.6242 4.2706 12.554 1.7248 3.9299 3.6394 9.545 4.2546 12.478l1.1186 5.3329-2.4381 8.1376-4.4676 3.0738c-2.4572 1.6906-4.4676 3.5022-4.4676 4.0257v0.95196l1.75 2e-4c0.9625 1.1e-4 10.525 0.71819 21.25 1.5957 10.725 0.87754 28.05 2.1682 38.5 2.8682l19 1.2727-24-0.076c-13.2-0.0418-32.7-0.32008-43.333-0.61842zm273.83-1.5886c29.834-2.8366 89.195-5.2225 149.5-6.0088l46-0.59981 37 1.1084c20.35 0.6096 44.65 1.557 54 2.1054s23.75 1.2321 32 1.5194c8.25 0.28733 16.575 0.83724 18.5 1.222l3.5 0.69962-22.5 0.53905c-12.375 0.29647-92.025 0.57489-177 0.61869l-154.5 0.0796zm27.5-22.043c1.65-0.22771 12-1.081 23-1.8962s26.525-2.1531 34.5-2.9731 27.775-2.4117 44-3.5372 34.45-2.4725 40.5-2.9936 18.65-1.4258 28-2.0106 21.63-1.4588 27.29-1.9423l10.29-0.87896 1.2101-0.92175c0.66556-0.50696 2.7851-1.5292 4.7101-2.2716 1.925-0.74241 7.166-3.7406 11.647-6.6626l8.1466-5.3128 6.8534-7.3565c8.853-9.5029 16.375-20.114 25.236-35.601l7.1223-12.447-1.5051-1.3216-11.5 1.32c-21.664 2.4866-156.42 13.736-202.5 16.905-12.65 0.86984-34.25 2.4564-48 3.5257-13.75 1.0693-26.575 1.8969-28.5 1.8392l-3.5-0.10492 1.5-0.3606c0.825-0.19833 15-1.724 31.5-3.3903s42.375-4.3747 57.5-6.0184 43.475-4.5714 63-6.5059 44.95-4.637 56.5-6.0058c20.244-2.3991 31.396-3.6341 62.5-6.9215 14.212-1.5021 34.626-2.2731 35.556-1.3429 2.1843 2.1843-20.32 39.951-32.939 55.278-2.2642 2.75-4.5667 5.5758-5.1167 6.2796s-4.825 4.4924-9.5 8.4192l-8.5 7.1396-8.08 3.7992c-4.444 2.0895-10.638 4.4654-13.764 5.2798l-5.6843 1.4806-8.2357 0.57256c-40.947 2.8467-206.71 8.8003-193.24 6.9401zm333.57-25.055c-0.14825-2.2798 4.2248-14.994 7.1733-20.855 4.3376-8.6231 8.3802-14.267 14.496-20.238l5.3651-5.2378 7.1381-4.1689c8.4048-4.9086 14.261-7.1648 24.525-9.4484l7.5208-1.6732 22.207 0.99644 17.929 6.2711 5.5356 3.6479c3.0446 2.0064 7.6909 5.4378 10.325 7.6255l4.7896 3.9776 9.2236 12.926 7.6679 17.786 1.0937 8.536-1.8686-5.5c-1.0277-3.025-3.5612-8.8386-5.63-12.919l-3.7614-7.4192-16.493-16.493-20.811-9.8938-16.99-3.5483-20.01 1.2299-5.6118 1.5169c-6.8951 1.8638-13.342 4.6753-20.745 9.0475l-5.6429 3.3324-6.6396 6.5149c-9.6127 9.4321-14.218 16.582-18.427 28.605-1.2566 3.5901-2.3182 6.0123-2.3592 5.3827zm-396.5-3.8149-0.64902-3.4596-8.0706-16.125-11.332-12.24-13.64-9.5788-14.382-5.9694-15.416-3.1682h-6.3585c-7.7394 0-16.073 1.4112-24.726 4.1872l-6.5 2.0853-14 8.0526-16.2 16.175-2.8208 4.5c-1.5515 2.475-3.8913 6.975-5.1996 10l-2.3787 5.5 0.57327-3.5c1.2474-7.6157 10.188-23.21 18.203-31.75l3.8224-4.0727 16.778-10.372 12.222-4.5688 15-2.5037 18 1.2123 12 3.0745 16.201 7.929 7.2684 6.7294c3.9976 3.7012 9.0359 9.1219 11.196 12.046l3.9277 5.3167 3.457 8.0768c3.1898 7.4526 5.413 15.882 4.1886 15.882-0.28408 0-0.80858-1.5568-1.1655-3.4596zm-225.57-14.005c0-1.0975 4.7974-2.7994 18.572-6.5885l14.67-4.0353 4.956-2.5114c2.7258-1.3813 8.0456-4.4918 11.822-6.9122 8.2374-5.28 18.99-10.812 19.679-10.123 0.66896 0.66896-16.957 13.678-24.608 18.162-8.1348 4.7676-14.725 6.94-30.216 9.9605-13.426 2.6179-14.874 2.8173-14.874 2.048zm260.25-21.225c0.9625-0.25153 2.5375-0.25153 3.5 0l1.75 0.45732h-7zm18.296-41.237-0.47123-0.76247 16.713-0.65475c9.1921-0.36012 22.788-1.1084 30.213-1.6628s20.025-1.4875 28-2.0735c21.165-1.5551 47.677-4.3809 89.5-9.5394l37-4.5636 1.1787-1.1585c1.4071-1.383 10.517-25.955 12.38-33.391l1.3106-5.2322-0.60132-0.60132c-0.78446-0.78446-17.518-2.8637-35.768-4.4443l-14.5-1.2558-44 1.0644-14 2.1664c-7.7 1.1915-19.4 3.5049-26 5.1408l-12 2.9744-28 10.213-14 6.7955c-7.7 3.7375-18.725 9.3187-24.5 12.403-14.2 7.5829-9.6932 4.197 6.9095-5.1911 15.757-8.9101 36.709-19.075 48.916-23.733 17.95-6.8493 42.298-12.793 62.675-15.299l13-1.599 44 0.0338 12.5 1.2123c17.152 1.6635 32.615 3.7655 44.5 6.0489 27.525 5.2885 70.852 15.988 72.855 17.991l0.87949 0.87948-8.2591 6.1238c-9.8809 7.3262-14.734 10.222-21.689 12.944l-5.2132 2.0398-27.787 3.9616c-15.283 2.1789-35.662 4.8876-45.287 6.0193-9.625 1.1318-25.375 2.9911-35 4.1318-31.585 3.7434-86.677 7.3632-129 8.4761-13.475 0.35432-27.084 0.79299-30.242 0.97484l-5.7416 0.33062zm217.48-22.116c12.152-1.4949 50.318-7.7754 57.92-9.5311l6.4465-1.4888 3.217-2.4537c4.1965-3.2009 6.3901-5.4232 6.3901-6.4738v-0.84704l-6.25-2.0564c-12.593-4.1434-57.215-14.107-63.179-14.107h-1.2963l-6.6399 18.25c-3.652 10.038-6.6387 18.588-6.6371 19 4e-3 0.94891-0.0819 0.9514 10.029-0.29244z" fill="#fe2c2f"/><path d="m151.49 653.75c-0.0918-0.0666-10.961-0.43797-24.154-0.82517l-23.987-0.70399-0.74725-1.1748c-0.41099-0.64616-0.75414-2.3583-0.76256-3.8047l-0.0153-2.6298 10.85-8.1917 1.1667-3.6759-1.4017-4.4363c-0.77095-2.44-2.6119-7.5863-4.0911-11.436-1.4792-3.85-3.5936-9.4694-4.6988-12.488l-2.0094-5.4876 0.54954-3.3864 0.54955-3.3864 1.7099-1.8894c2.1271-2.3504 28.925-20.428 36.376-24.539 3.025-1.6689 8.5094-4.7004 12.188-6.7366 3.6782-2.0362 7.6156-3.7721 8.75-3.8576 1.1343-0.0855 2.0624-0.46146 2.0624-0.83557s0.58297-0.90391 1.2955-1.1773l1.2955-0.49711 0.28476 3.7803h-3.9937l1.2394 2.0054 2.1687-1.1606c1.1928-0.63835 2.7467-1.7387 3.4532-2.4452l1.2846-1.2846-3.2847-1.8382 1.0382-0.64163 1.0382-0.64162 3.0542 1.172-1.0877 2.8345h2.4471l-0.91812-4.8028 4.0925-2.0025c12.64-6.1848 40.076-16.008 56.443-20.209l4.351-1.1168 1.1314 1.1314h-3.4514l1.0703 1.7318 5.0921-0.97342-2.08-2.5063 6.2678-1.557c8.4092-2.0889 31.152-5.3959 42.268-6.146 18.472-1.2465 32.188-2.7202 38.336-4.1189l6.3364-1.4415 0.80885 0.49989 0.80884 0.4999 0.98908-2.5775 19.072-9.7055c10.49-5.338 19.764-9.7055 20.61-9.7055 0.8459 0 1.538-0.35135 1.538-0.78077s1.35-1.2903 3-1.9131c1.65-0.62281 3-0.94646 3-0.71924 0 1.0041-3.9832 4.2632-5.5881 4.5723l-1.7697 0.34082 0.28316 2-3.2792 1.1503 3.2514 1.2477 0.64048-2.018 0.64049-2.018 1.438 1.819 1.438 1.819-0.18497-1.5c-0.10174-0.825 0.15914-2.2875 0.57973-3.25l0.76471-1.75h3.186l-1.2 1.2c-0.66 0.66-1.2 1.5921-1.2 2.0714v0.87142l1.5-1.5c0.825-0.825 1.5-1.9821 1.5-2.5714v-1.0714h1.3c0.715 0 1.8951 0.5625 2.6224 1.25l1.3224 1.25-1.2082-2.3446-1.2082-2.3446 4.0033 1.2706 0.69702-1.1278 0.69703-1.1278-1.0705-1.0705-1.0705-1.0705-1.2924 1.0352c-0.71081 0.56938-2.4174 1.3314-3.7924 1.6933l-2.5 0.65805 3.5-1.8478c1.925-1.0163 4.4-2.3708 5.5-3.0101 3.918-2.2767 25.902-12.276 28.329-12.885l2.4695-0.6198-1.6073 2.6007 2.3416-1.4472-1.0211-1.6522 2.9245-1.1222 0.60113 0.97264 0.60112 0.97264 0.94721-0.58541 0.94722-0.58541-0.99542-1.6106 5.2314-2.2201c13.727-5.8253 26.918-10.892 33.731-12.955 4.125-1.2491 8.625-2.6578 10-3.1304 10.997-3.7797 29.091-7.6416 49.5-10.565l12-1.7189 68-0.0518 15.5 1.7052c26.753 2.9431 52.661 6.9471 53.93 8.3346l0.57017 0.62355-5.4395-0.9845 1.0575 1.7111 12.382 4e-3 19.5 3.937c10.725 2.1653 25.35 5.3314 32.5 7.0356s18.625 4.4006 25.5 5.992c11.882 2.7503 31.55 7.6374 40.75 10.125l4.25 1.1493v4.5428l2.8071 1.0772 4.6929-1.3129-6.4462-1.0503 1.4999-2.3958 23.317 5.9479c12.824 3.2714 23.526 5.9479 23.782 5.9479 0.25588 0 0.13985 0.52647-0.25783 1.1699l-0.72307 1.1699 3.5003-1.3432 46.867 11.459-0.44861 1.169-0.4486 1.169 5.7532 0.84439 3.3792-1.8911-0.7356 1.1902-0.73561 1.1902 7.6969-1.2772-2.3117 1.6496 25.112-0.49558 3.1996 2.4956-2.5654-3.2837 3.7827-0.44399c2.0805-0.24419 8.1523-1.2628 13.493-2.2636l9.7103-1.8196 1.5397 1.2778 1.5397 1.2778-0.0147 2.6276-0.0147 2.6276-1.3949 2.5c-0.76717 1.375-2.8137 5.2933-4.5478 8.7073l-3.1529 6.2073v6.46 6.46l2.1859 4.3327 2.1859 4.3327 10.742 11.339 1.0058 2.6454 1.0058 2.6454v6.4868 6.4868l-4.3023 21.396-2.7011 6.337c-1.4856 3.4853-3.3301 7.0853-4.0988 8-0.76878 0.91467-1.9134 2.788-2.5437 4.163s-3.4626 5.774-6.294 9.7756l-5.1481 7.2756-8.2416 5.9702-6.2298 1.9242c-3.4264 1.0583-7.9647 2.1885-10.085 2.5115l-3.8554 0.58732 6.5-2.3503c11.325-4.0948 14.668-6.477 22.366-15.934l3.858-4.7398 2.0849 1.2885-1.3921-2.2525 1.6566-2.5282 1.6566-2.5282h2.77l0.15845-1.75c0.0871-0.9625 0.0928-2.5353 0.0127-3.4951-0.0802-0.9598 0.73339-3.9756 1.8079-6.7018 1.0746-2.7262 2.8246-8.4659 3.8891-12.755l1.9354-7.7982 1.3215-16.358-1.5517-3.0007c-0.85345-1.6504-3.8493-5.6199-6.6575-8.8212-2.8082-3.2013-6.3005-7.8455-7.7608-10.321l-2.655-4.5 0.14873-7 0.14872-7 1.5608-4.261c0.85844-2.3435 2.929-6.2496 4.6013-8.6802 4.3603-6.3374 4.0377-7.6489-1.3752-5.5909-1.4003 0.53238-8.2921 1.9637-15.315 3.1808l-12.769 2.2128-49-0.33689-34-3.7607 6.5-0.29044c3.575-0.15975 7.4-0.22726 8.5-0.15002l2 0.14043-5-3.0574 20.5 1.2538v-2.8651l-26.75-6.6668c-14.712-3.6668-31.7-8.001-37.75-9.6317-6.05-1.6307-19.774-5.0374-30.498-7.5706-10.724-2.5331-23.774-5.7451-29-7.1377-5.226-1.3926-16.477-4.0061-25.002-5.8078-26.167-5.5302-44.267-9.5275-44.898-9.9156-2.3293-1.4319-60.217-9.9732-79.102-11.671l-13.5-1.2139-51-0.1798-11.758 1.2648c-6.4669 0.69564-18.392 2.4429-26.5 3.8828s-15.755 2.6707-16.992 2.7352c-1.2375 0.0645-2.25 0.41897-2.25 0.78777s-1.4625 0.96748-3.25 1.3304-5.725 1.573-8.75 2.6891c-18.79 6.9328-36.751 13.025-38.272 12.982l-1.7716-0.0505 0.95612 1.547-5.7064 2.3032c-3.1386 1.2667-12.168 5.3914-20.065 9.166-7.8972 3.7745-14.54 6.8628-14.761 6.8628-0.40927 0-12.665 6.0579-37.88 18.724-7.7 3.8679-16.925 8.3868-20.5 10.042l-6.5 3.0093-15.997 3.283-15.001 0.95091c-23.867 1.5129-28.175 1.9896-43.001 4.7581-7.7 1.4378-15.195 2.6408-16.655 2.6733l-2.6545 0.059 0.77655 1.2565-2.8351 0.56702c-1.5593 0.31185-3.9145 0.36165-5.2338 0.11066l-2.3987-0.45635 1.3245 0.61925 1.3245 0.61926-17.384 5.8062c-9.561 3.1934-20.226 6.9612-23.7 8.373l-6.3169 2.5668-1.748-1.0803v1.8566l-6.0659 2.6307c-3.3362 1.4469-6.9628 2.6307-8.059 2.6307h-1.9931l1.0324 1.6704-3.7072 1.7554c-12.276 5.8128-47.8 28.376-52.54 33.371l-2.8324 2.9847 1.7406 6.3593c0.95735 3.4976 2.6088 8.1059 3.6698 10.241s2.56 5.9598 3.3309 8.5l1.4018 4.6185 0.0108 5.7074 0.0108 5.7074-3.5998 2.7926c-1.9799 1.536-4.5674 3.5414-5.75 4.4566l-2.1502 1.6639 0.71209 0.71483 0.71208 0.71483 13.288 0.84022c7.3084 0.46212 18.013 1.3361 23.788 1.9423s16.575 1.4763 24 1.9337l13.5 0.83165-16.333-0.15267c-8.9832-0.084-16.408-0.20721-16.5-0.27385zm813.71-35.931 0.59553-1.5519-0.98854 0.61096c-0.5437 0.33602-0.98855 1.0344-0.98855 1.5519 0 1.4384 0.71677 1.1215 1.3816-0.61095zm6.6184-11.448 1.0704-2h-0.79464c-0.43705 0-1.3567 0.9-2.0436 2l-1.249 2h0.97329c0.53531 0 1.455-0.9 2.0436-2zm-853-22.883c0-0.48585 0.87843-1.1131 1.9521-1.3938l1.952-0.51048 0.469 1.1438 0.469 1.1438 0.0636-1.5c0.035-0.825-0.31854-2.103-0.78565-2.84l-0.84929-1.3399-2.6354 2.6354c-2.8587 2.8587-3.1751 3.5445-1.6354 3.5445 0.55 0 1-0.39752 1-0.88337zm859.35-0.65976c-0.32568-0.84872-0.80662-1.3287-1.0688-1.0665s-0.17998 0.95653 0.18255 1.5431c0.98605 1.5955 1.5624 1.2855 0.8862-0.4766zm2.1962-7.9407 0.68515-5.4838-0.77195-1.7662c-0.42458-0.9714-0.70052-2.1037-0.61321-2.5162 0.0873-0.4125-0.29124-0.75-0.84124-0.75h-1v16h1.8561zm-855.04 3.4838 0.61804-1h-1.059c-0.58246 0-1.059 0.45-1.059 1s0.19845 1 0.44099 1 0.71909-0.45 1.059-1zm53.637-28.788-1.3117-0.43723-2.1131 2.1131 4.7365-1.2386zm3.8633-1.6532c0-0.24254-0.4189-0.69988-0.9309-1.0163l-0.9309-0.57533-1.2562 2.0326h1.559c0.85746 0 1.559-0.19845 1.559-0.44099zm4.5-1.559c-0.33992-0.55-1.379-0.99311-2.309-0.98469l-1.691 0.0153 1.5 0.96938c0.825 0.53315 1.8641 0.97626 2.309 0.98468l0.80902 0.0153zm149.85-31.532c-0.78123-2.0359-1.2526-1.8338-1.0796 0.46275l0.14543 1.9307 0.74874-0.46275 0.74875-0.46274zm603.15-8.468c-0.33992-0.55-1.068-1-1.618-1h-1l0.61803 1c0.33992 0.55 1.068 1 1.618 1h1zm32.216-1.75 0.15257-2.75-0.80933 2c-0.68261 1.6868-0.53688 3.5 0.28131 3.5 0.12258 0 0.29153-1.2375 0.37545-2.75zm-118.72-15.25c-0.825-0.53316-1.864-0.97627-2.309-0.98469l-0.80902-0.0153 0.61803 1c0.33992 0.55 1.379 0.99311 2.309 0.98468l1.691-0.0153zm-48-9c0-0.55-0.19844-1-0.44098-1s-0.7191 0.45-1.059 1l-0.61803 1h1.059c0.58246 0 1.059-0.45 1.059-1zm-3.0528-2.1314 3.2456-1.1314-1.3464-0.85326c-0.74051-0.4693-2.2089-0.86016-3.263-0.86858l-1.9167-0.0153 1.316 1.316-1.1138 1.342c-1.3546 1.6322-1.0581 1.6525 3.0783 0.21059zm-381.95-5.8686c0-0.55-0.19844-1-0.44098-1s-0.7191 0.45-1.059 1l-0.61803 1h1.059c0.58246 0 1.059-0.45 1.059-1zm13.354-5.5196-0.51961-1.3541-1.3541 0.51962-1.3541 0.51961 0.51961 1.3541 0.51962 1.3541 2.7082-1.0392zm4.187-1.4138c-0.36253-0.58659-1.3076-1.0665-2.1001-1.0665h-1.441v2.118l0.9309-0.57533 0.93091-0.57533 0.66923 1.0828c0.36808 0.59556 0.89423 0.85784 1.1692 0.58284s0.20339-0.97994-0.15915-1.5665zm41.459-15.508c0-0.24254-0.45-0.71909-1-1.059l-1-0.61804v1.059c0 0.58246 0.45 1.059 1 1.059s1-0.19845 1-0.44099zm19-3.952c0-0.21616-0.69837-0.66101-1.5519-0.98855l-1.5519-0.59553 0.61095 0.98854c0.58726 0.9502 2.4929 1.4054 2.4929 0.59554zm63.729-8.2112-0.60417-0.60417-2.625 1.0504 3.8333 0.158zm4 0-0.60417-0.60417-2.625 1.0504 3.8333 0.158zm-178.73 215.09c1.9766-0.56882 24.52-2.1015 61.5-4.1811l30-1.6871 176-0.104 28.279 1.7439c15.553 0.95911 31.941 1.7438 36.417 1.7438h8.1381l-0.7136 0.7136c-0.39248 0.39247-2.605 0.84681-4.9167 1.0096-6.8547 0.48279-336.34 1.2322-334.7 0.76132zm534-8.4845c1.375-0.44036 3.4-0.80064 4.5-0.80064h2l-2.5 0.80064c-1.375 0.44035-3.4 0.80064-4.5 0.80064h-2zm-474-15.992c5.225-0.46221 12.65-1.067 16.5-1.344s11.05-0.9651 16-1.5291c4.95-0.56398 18.675-1.743 30.5-2.6201 11.825-0.87708 32.975-2.497 47-3.5999s35.982-2.6432 48.793-3.4229l23.293-1.4176 6.2073-2.7248c3.414-1.4986 9.3985-4.8972 13.299-7.5523l7.0915-4.8274 15.572-16.002 2.4112 3.2975v-3.2646h-0.83333c-1.502 0-0.87589-1.4448 2.1667-5 1.6474-1.925 2.9964-3.8696 2.9977-4.3214l2e-3 -0.82143 1.5714 1.5714c0.86429 0.86428 2.2301 1.5714 3.0352 1.5714h1.4638l-1.0854-2.028-1.0854-2.028-0.94983 0.58703-0.94983 0.58702v-1.129c0-0.62095 1.9489-4.36 4.3309-8.309 2.382-3.949 6.0869-10.413 8.2332-14.364l3.9023-7.1835-1.1626-1.1626-24.902 2.4493c-13.696 1.3471-31.427 2.9465-39.402 3.5542s-18.775 1.5408-24 2.0734c-8.8535 0.90259-45.208 3.8845-91 7.4641-39.42 3.0815-72.782 5.4417-83.5 5.9071l-11 0.4777 8-0.96299c4.4-0.52965 19.25-2.0881 33-3.4632s26.8-2.7241 29-2.9978c19.715-2.4526 86.277-9.2449 106.75-10.894 3.7146-0.29909 11.365-1.2147 17-2.0347 9.8632-1.4352 28.933-3.6076 61.746-7.0339l15.5-1.6185 16.646 0.6083-12.148 23.731-6.749 10.047c-12.083 17.988-17.158 24.495-24.375 31.259-10.124 9.4878-18.774 14.803-31.095 19.108l-7.1338 2.4924-11.573 0.86565c-6.365 0.47611-18.548 1.1425-27.073 1.481s-17.75 0.7975-20.5 1.0202c-15.497 1.2548-69.349 3.2389-105.5 3.887l-25.5 0.45715zm193-14.424v-1.4167l2.5-1.0088-4.714-0.1579 1.1016 2.8708-2.3876 0.97132 3.5 0.1578zm-3.5071-0.57188 0.61096-0.98854-1.5519 0.59553c-1.7324 0.66479-2.0494 1.3816-0.61095 1.3816 0.51754 0 1.2159-0.44485 1.5519-0.98855zm40.731-32.29-0.27652-1.5708 2.053-1.2688 0.0306 2.618 1.8861-2.9833-1.9665-1.9665-4.907 5.7106 0.57006 0.92237 0.57005 0.92237 2.3167-0.81306zm8.2671-10.996c-0.20469-1.6174-0.69552-3.2299-1.0907-3.5833l-0.71856-0.64255 0.59014 1.6515 0.59013 1.6515-2.0952 0.54793-2.0953 0.54792 1.1486 1.384c0.63171 0.76117 1.7998 1.3839 2.5958 1.3839h1.4473zm-74.201-22.629 0.78943-0.097-2.5789-2.7787-0.5 0.64298c-0.275 0.35364-2.525 0.69684-5 0.76265-2.475 0.0658-5.539 0.17668-6.809 0.24635l-2.309 0.12669 0.49895 0.80731 0.49895 0.80732 7.3101-0.21035c4.0205-0.11568 7.6653-0.25398 8.0995-0.30731zm4.7106-1.0656v-0.96861l-1.5 0.5756c-0.825 0.31658-1.5 0.75246-1.5 0.96862 0 0.21615 0.675 0.39301 1.5 0.39301h1.5zm90-8.0314c0-0.55-0.47655-1-1.059-1h-1.059l0.61803 1c0.33992 0.55 0.81648 1 1.059 1s0.44098-0.45 0.44098-1zm194.08 60.573c-0.10567-2.5791-7.6282-18.014-10.385-21.309-4.065-4.8576-15.174-15.365-17.694-16.736-5.7117-3.1074-11.932-5.827-19-8.3064l-7.5-2.6311-29-0.091-12.732 3.518-16.392 8.1225-3.7598 3.4444-3.7598 3.4444-1.9062-1.1781 0.27478 0.96084 0.27477 0.96085-5.0428 5.3635c-2.7735 2.9499-6.3007 7.5363-7.8382 10.192l-2.7954 4.8285-1.1421-1.1421 5.3459-8.7575c2.9403-4.8166 5.8552-9.2704 6.4776-9.8973 0.62243-0.62692 2.2468-2.4651 3.6098-4.0849 1.363-1.6198 6.1164-5.4945 10.563-8.6104l8.085-5.6653 13.225-4.978 21.219-3.3048 1.5509 2.5095 0.79432-2.383 16.931 2.3182 15.287 5.8952 16.919 12.762 8.3173 9.6815 3.8654 7.5c2.126 4.125 4.648 9.6044 5.6045 12.177l1.7392 4.6766-1.0577 2.6469zm-73.329-51.554c0.4125-0.12703 2.1-0.21262 3.75-0.1902l3 0.0408-1.75-0.50812c-0.9625-0.27947-1.75-0.92513-1.75-1.4348v-0.92667h-4.882l-1.0703 1.7318-5.0477-0.96494v0.94991c0 0.52245 0.1875 1.1374 0.41667 1.3666 0.41767 0.41767 5.9251 0.36938 7.3333-0.0643zm14.979-1.6232-0.60417-0.60417-2.625 1.0504 3.8333 0.1578zm-481.73 52.431c0-2.2072-5.8533-13.695-9.338-18.326-3.9209-5.2116-7.9458-9.1905-14.426-14.261l-5.2644-4.1193-17.021-8.1625-15.45-3.0213-16-0.0226-7.5 1.4842c-8.1445 1.6118-12.283 3.1149-21.5 7.8088l-6 3.0556-14.575 12.986-4.2749 6.1264c-2.3512 3.3695-5.1046 8.0434-6.1188 10.387-1.0141 2.3431-2.0513 4.0528-2.3048 3.7993-1.4538-1.4538 10.264-21.776 16.6-28.789l3.6286-4.0164 7.1946-4.8549c8.6394-5.8298 15.735-9.1743 23.995-11.31l6.1443-1.5888h8.3294l-0.48983 0.79256-0.48984 0.79256 6.3616 0.31073-4-1.9232 20 0.84818 15 5.4318 13 8.3934 12.361 12.071 7.9993 12.376 5.461 13.919-0.66043 0.66043-0.66044 0.66043zm399.56-3.1195 0.68278-1.7931 1.1196 1.1196-2.4852 2.4667zm-622.56-9.1236c0-0.45285 7.3582-2.7344 24.465-7.5859 6.0309-1.7103 11.431-3.4917 12-3.9585 0.56914-0.46685 1.9348-1.0041 3.0348-1.1938l2-0.34502 3.4594-4 0.95434 1.4522 0.95433 1.4522-1.0703 1.7318-2.9016-1.1134 0.70831 1.1461 0.70831 1.1461-4.2211-1.1038-2.8364 4.3288-6.3776 2.2435c-9.1739 3.2272-30.878 7.3038-30.878 5.7997zm46.651-16.051-0.56332-1.468 1.7322-1.0705 3.5086 1.3464-1.3061-2.1133 2.8904-2.3988 2.3966 1.4812-1.3744-2.2238 5.8118-3.0054 1.2536 1.2536v-2.0123l5.5-2.3469-3 2.5538c-3.6728 3.1265-15.183 11.472-15.822 11.472-0.2551 0-0.71731-0.66059-1.0271-1.468zm232.62-6.225c0.97296-0.25355 2.323-0.23687 3 0.0371l1.231 0.49804-6-0.0742zm18.731-40.307c7.975-0.45975 21.7-1.3498 30.5-1.978 8.8-0.62813 20.275-1.1604 25.5-1.1829l9.5-0.0408 2-0.83024c1.1-0.45663 14.375-2.2152 29.5-3.9079 35.911-4.019 67.641-7.8832 76.943-9.3706l7.4428-1.1901 3.9382-10.5c2.166-5.775 4.2423-10.725 4.614-11 0.37167-0.275 1.2733-1.9769 2.0036-3.7821 0.7303-1.8051 1.5358-3.0741 1.79-2.8199s-1.4076 5.7811-3.693 12.282c-2.2854 6.5009-4.2414 12.27-4.3468 12.82l-0.19161 1 15.353-0.46483 23.824-4.0243c13.103-2.2134 26.684-4.7023 30.18-5.5308l6.3565-1.5065 4.0735-3.4868c2.2404-1.9177 4.4425-3.4868 4.8935-3.4868s0.82-0.62041 0.82-1.3787v-1.3787l-3-1.1213c-1.65-0.61673-4.2375-1.5505-5.75-2.075-4.6077-1.598-30.954-7.774-45.02-10.553l-13.27-2.6221-5.4156 0.62908-3.2804 8.9117-2.5434 0.8478 0.78361-1.2679c0.43099-0.69735 0.93022-2.9971 1.1094-5.1105l0.32578-3.8426-1.7202-0.90754c-1.7338-0.9147-9.6739-1.993-31.72-4.3076l-12-1.2599-41 0.1088-9.5 1.1829c-5.225 0.65059-15.125 2.1064-22 3.2352l-12.5 2.0523-10.5 2.9889c-14.748 4.1983-30.422 10.131-44.909 17-6.825 3.2359-12.597 5.6961-12.826 5.4671-0.40781-0.40781 11.883-7.5987 12.988-7.5987 0.30881 0 4.984-2.0664 10.389-4.5921 18.623-8.7018 30.673-12.71 56.857-18.913l10-2.3688 31.855-3.1265 36.145 6e-3 16 1.5015c18.777 1.7621 27.202 2.8962 41.5 5.5861 16.244 3.056 46.572 9.8502 56 12.545 4.675 1.3364 10.893 3.1106 13.818 3.9426l5.3178 1.5128-6.3178 5.0535c-7.6791 6.1424-17.748 12.216-23.818 14.366-5.8866 2.0856-16.655 4.1306-31.5 5.982-17.453 2.1766-19.004 2.3817-30 3.9646-5.5 0.79174-16.525 2.1602-24.5 3.0409s-21.659 2.4813-30.41 3.5567c-29.972 3.6834-89.939 7.4228-133.59 8.3302l-21.5 0.44694zm207.49-19.989 0.61096-0.98854-1.5519 0.59553c-1.7324 0.66479-2.0494 1.3816-0.61095 1.3816 0.51754 0 1.2159-0.44485 1.5519-0.98855zm57.965-11.079-0.65963-1.0673 4.2012-1.0986v-1.8798l-5.8912 3.48 0.50463 0.81652c0.27755 0.44908 0.95464 0.81652 1.5046 0.81652h1zm47.042 22.996c6.4172-2.1808 21.186-5.5621 31-7.0976l6-0.93871 8 1.1362-1.5-1.0686-1.5-1.0686 9.3091 0.60881-0.92713-1.5 2.309-0.0765c1.27-0.0421 3.209-0.25702 4.309-0.47763s9.875-0.67277 19.5-1.0048l17.5-0.60368-3 2.117-3.3317-1.0357-1.4773 2.3904 2.0994-1.2975 1.0317 2.6887-42.322 1.2284-14.5 1.5765c-7.975 0.86706-18.55 2.4205-23.5 3.4521s-10.35 2.1309-12 2.443l-3 0.56737zm48.229-7.5326-0.60417-0.60417-2.625 1.0504 3.8333 0.158zm42.825-0.30778-0.56361-0.91194 6.0811 0.32181c3.3446 0.177 6.3467 0.58738 6.6713 0.91195l0.59013 0.59013h-12.215zm20.446-2.9944v-0.90638l2 0.52301c1.1 0.28765 2 0.69553 2 0.90638s-0.9 0.38337-2 0.38337h-2zm-12.188-0.77674 1.3125-0.52522 1.2083 1.2083-3.8333-0.158zm60.938-1.9792c0.6875-0.27742 1.8125-0.27742 2.5 0l1.25 0.50438h-5zm-494.25-1.1247c1.0532-1.1579 15.358-9.213 16.361-9.213 0.97414 0-2.9814 2.4817-10.361 6.5004-3.85 2.0966-6.55 3.3173-6 2.7126z" fill="#fe080b"/></svg>
