<?xml version="1.0" encoding="UTF-8"?>
<!-- Created with Inkscape (http://www.inkscape.org/) -->
<svg width="1080" height="1080" version="1.1" viewBox="0 0 1080 1080" xml:space="preserve" xmlns="http://www.w3.org/2000/svg"><g transform="translate(4.0997)"><path d="m529.89 839.84c-0.50941-0.47819-3.3263-1.3708-6.2598-1.9836l-5.3336-1.1142-1.8328 1.1328v-2.0799l-2.75-0.65494c-1.5125-0.36022-3.875-1.2081-5.25-1.8842s-4.525-2.1905-7-3.3655-6.525-3.711-9-5.6358c-2.475-1.9247-5.5125-4.0214-6.75-4.6592s-2.25-1.4988-2.25-1.9133-1.4625-2.3387-3.25-4.276c-4.1766-4.5267-4.9952-5.613-6.5177-8.6493-0.68946-1.375-2.1421-3.85-3.2281-5.5-2.2371-3.3989-4.0042-7.1789-4.0042-8.5651 0-0.5142-0.45-0.9349-1-0.9349h-1v-2.8333l-2.5-1.1667 2.4821-1.1607-3.147-3.147 1.2262-6.5363-1.6253-1.0045 0.22902-9.8257c0.1851-7.9414 0.89323-15.522 1.8052-19.326 0.0659-0.275 0.46664-2.2363 0.89044-4.3585 1.3419-6.7194 6.8935-17.096 14.139-26.428 4.0671-5.238 14.848-15.214 16.442-15.214 0.61666 0 1.3802-0.675 1.6968-1.5l0.5756-1.5h1.6705c0.91878 0 2.5581-0.60651 3.643-1.3478s4.1009-2.149 6.7023-3.1282l4.7298-1.7804-1.253-2.2437 1.2252 1.1285 1.2252 1.1285 4.281-1.2884c2.3546-0.70862 5.8068-1.4161 7.6715-1.5722 1.8648-0.15609 3.7962-0.49035 4.292-0.7428s3.0834-0.44048 5.75-0.41785l4.8484 0.0412v-2.8949l2.0326 1.2562-1.1507 1.8618 4.309 0.15231c5.2713 0.18633 5.6115 0.24941 9.1241 1.6918 1.5483 0.63577 3.7008 1.1559 4.7832 1.1559s4.205 1.1335 6.9388 2.5188l4.9707 2.5188 2.5634-0.46483c3.4472-0.6251 8.4287-2.881 8.4287-3.817v-0.75589h4.118l-0.71353-1.1545-0.71352-1.1545 1.8288 1.1303 6.6212-2.784-0.72504-1.1731-0.72503-1.1731 2.309 1.427v-2.2528l3.9874 1.2656-1.2404-3.2324 5.253 1.3184v-2.3348l1.7702 1.0941 7.8649-3.5648c4.3257-1.9606 9.8899-4.4926 12.365-5.6265 2.475-1.1339 7.3856-3.3633 10.912-4.9543l6.4125-2.8926 2.3858-3.2628 3.0921 1.1866 1.0098-3.8616h2.3053l-0.72306 1.1699-0.72306 1.1699 1.914-0.78339c1.0527-0.43086 2.6599-0.99894 3.5716-1.2624l1.6576-0.479 0.59243-2.1576 0.59243-2.1575 1.5 2.2761 4.5-2.138c2.475-1.1759 8.1-3.6874 12.5-5.581s8.225-3.7192 8.5-4.0568c0.275-0.33757 2.075-1.2202 4-1.9614s3.95-1.8406 4.5-2.4432c0.55-0.60259 1.45-1.1207 2-1.1514 0.55-0.0307 2.2375-0.41696 3.75-0.85841l2.75-0.80264v-1.7832h1.941c1.0675 0 2.1953-0.41157 2.5062-0.91459l0.56525-0.91459-1.1562-0.38541c-0.63593-0.21198 0.51659-0.38541 2.5611-0.38541h3.7174l0.89615-1.45c0.49288-0.7975 1.3626-1.5062 1.9326-1.575 0.57006-0.0688 1.4865-0.18125 2.0365-0.25l1-0.125-0.5-2.25 1.3892-0.50474 1.3892-0.50473-0.77839 1.2595-0.7784 1.2595 2.7784-1.0095-0.23801-1.089-0.238-1.089 2.6367 1.0118 9.9196-4.6827c5.4558-2.5755 10.145-4.9568 10.42-5.2919 0.275-0.33504 0.95-0.6096 1.5-0.61013s4.15-1.5056 8-3.3446c3.85-1.839 9.1305-4.3135 11.734-5.499s4.7414-2.5195 4.75-2.9645l0.0156-0.80902 1.9186 1.1858 1.7907-0.97493c0.98487-0.53621 5.7587-2.795 10.609-5.0196l8.8179-4.0446-1.2396-2.0057 2.8143 1.0799 5.3948-2.4099c2.9671-1.3255 8.5448-3.8598 12.395-5.6319s7.9-3.612 9-4.0886c1.1-0.47663 5.15-2.3285 9-4.1153 3.85-1.7868 7.3375-3.1606 7.75-3.0529 0.4125 0.10769 0.75-0.22507 0.75-0.73947v-0.93527l3.5-1.2656c1.925-0.69609 3.5-1.5727 3.5-1.9481s1.0125-1.0119 2.25-1.4146 2.5875-0.84889 3-0.99163 1.425-0.31577 2.25-0.38452l1.5-0.125v-3.118l1.723 1.0649 8.3885-3.4551c4.6137-1.9003 9.1235-3.4634 10.022-3.4734l1.6334-0.0183 0.60029 1.75c0.33016 0.9625 1.0475 2.7743 1.5941 4.0262l0.99381 2.2762-2.593 2.2238c-1.4262 1.2231-4.0035 3.457-5.7275 4.9642-1.7239 1.5072-3.9219 3-4.8844 3.3174-0.9625 0.31735-1.75 0.96634-1.75 1.4422 0 0.47587-0.9 1.1509-2 1.5l-2 0.63477v1.2796c0 0.70379-0.92534 2.3465-2.0563 3.6505l-2.0563 2.3709-0.79839-1.2918-0.79838-1.2918-1.3953 1.3435c-0.76742 0.73891-3.3022 2.7278-5.6328 4.4198l-4.2374 3.0763 1.4749 1.6289-1.1209-0.63957-1.1209-0.63957-2.2821 1.9792c-1.2551 1.0886-2.5507 1.9798-2.8791 1.9805-0.32835 6.7e-4 -1.9045 1.1257-3.5025 2.5-1.598 1.3743-3.3121 2.4988-3.809 2.4988h-0.90348l0.61804 1 0.61803 1h-1.3556c-0.74559 0-2.2346 0.67265-3.309 1.4948-1.7122 1.3102-30.319 22.756-32.953 24.704-0.55 0.40675-3.5812 2.7784-6.7359 5.2703-3.1547 2.4919-6.0797 4.5428-6.5 4.5574s-2.7152 1.8147-5.0998 4c-2.3846 2.1853-4.7737 3.9733-5.309 3.9733h-0.97337l1.4461 2.3399-3.2262-1.238 1.2454 3.2454-3.3472-1.2844v2.9372l-1.0117-0.25c-0.55646-0.1375-3.2488 1.325-5.9831 3.25l-4.9714 3.5 0.94325 2.6039-1.9358-1.1964-2.0964 1.1219c-1.153 0.61706-2.8693 1.8754-3.8141 2.7962-0.94475 0.92087-2.8232 2.4645-4.1743 3.4302-1.3511 0.96575-8.1473 5.9158-15.103 11-6.9553 5.0843-13.655 9.9191-14.888 10.744-1.233 0.825-3.1923 2.4051-4.354 3.5114-1.1616 1.1062-4.7102 3.7249-7.8858 5.8192-3.1756 2.0943-6.8083 4.8424-8.0728 6.1068s-4.7195 4.0003-7.6779 6.0797-5.8507 4.1617-6.4272 4.6273c-2.7899 2.2528-30.229 22.761-34.352 25.675-2.5832 1.8258-5.5968 4.0822-6.6968 5.0141-1.1 0.93196-3.575 2.7983-5.5 4.1474s-4.0074 2.9178-4.6275 3.4859c-0.62011 0.56811-2.1283 1.7079-3.3516 2.5329s-3.6727 2.85-5.4432 4.5l-3.2192 3-1.288 9.4347-1.288 9.4347-2.4963 6.0653c-1.373 3.3359-3.4283 7.8653-4.5674 10.065-2.513 4.8534-12.499 17.296-16.757 20.879l-3.092 2.6017 1.4392 2.3286-1.2132-0.74981-1.2132-0.74982-7.8314 5.4272-21.551 8.7165-5.618 0.0469 0.46364 0.75 0.46363 0.75-17.309-0.29778-2.1476 1.7502zm435.25-58.913-1.7456-0.33017 0.11627-18.421 0.11626-18.421 5.0309-1.2627 50.787 1.3595 7.0202-1.317v-3.7493c0-2.0621-0.7009-9.9995-1.5576-17.639l-1.5575-13.889-2.4425-10.136c-1.3433-5.5748-2.4424-10.975-2.4424-12-1e-4 -1.0252-2.674-12.664-5.942-25.864l-5.9419-24-3.4878-10c-12.043-34.53-35.96-86.5-39.807-86.5-0.46325 0-4.775 2.3713-9.5816 5.2696s-10.314 6.1118-12.239 7.1411-7.5891 4.283-12.587 7.2304l-9.0869 5.3589h-4.8407l-2.9379-4.75c-1.6158-2.6125-3.7974-6.325-4.848-8.25-1.0506-1.925-2.6691-4.4-3.5966-5.5-2.2027-2.6122-5.1028-9.0792-5.1028-11.379v-1.8111l1.8287-1.655c1.0058-0.91024 2.3558-1.655 3-1.655h1.1713v-2l1.25-4e-3c0.6875-2e-3 6.65-3.2083 13.25-7.125 6.6-3.9167 14.588-8.4667 17.75-10.111l5.75-2.99v-3.1831l-4.2191-6.0434c-2.3205-3.3239-5.0205-6.9158-6-7.982-0.97948-1.0662-1.7809-2.2804-1.7809-2.6981 0-0.69663-9.5611-12.711-11.032-13.863-0.35115-0.275-1.05-1.2514-1.553-2.1698-0.50299-0.91837-3.1713-4.0684-5.9296-7-2.7583-2.9316-9.3513-10.28-14.651-16.33-11.245-12.837-17.901-19.321-34.334-33.444-6.6-5.6726-14.473-12.568-17.496-15.323-3.0231-2.7552-6.6231-5.7311-8-6.6131-1.3769-0.88196-3.3759-2.3947-4.4421-3.3615-1.0662-0.96689-2.4912-1.758-3.1667-1.758s-1.3781-0.40173-1.5614-0.89273-2.8639-2.6285-5.9569-4.75-8.3558-5.7698-11.695-8.1073-6.5463-4.25-7.1264-4.25c-0.58018 0-1.0557-0.3375-1.0567-0.75-3e-3 -1.0538-8.41-6.25-10.113-6.25h-1.4046l-1.4539 2.25c-0.79963 1.2375-2.612 4.5-4.0274 7.25-1.4154 2.75-5.4819 9.9072-9.0367 15.905-3.5547 5.9977-6.4631 11.205-6.4631 11.571 0 1.0032-3.2232 4.0236-4.2937 4.0236-0.51511 0-2.1222-0.93266-3.5714-2.0726l-2.6349-2.0726v-6.7368l1.0346-0.6394c0.56902-0.35167 2.808-4.2308 4.9756-8.6203 2.1676-4.3895 4.852-9.139 5.9654-10.554 1.1134-1.4155 2.0244-3.0288 2.0244-3.5852s1.5477-3.3433 3.4393-6.1931c1.8916-2.8498 4.1904-7.0589 5.1086-9.3535 0.91812-2.2946 2.018-4.172 2.4441-4.172 0.42614 0 1.0392-0.7875 1.3624-1.75 0.59267-1.7651 2.6902-5.3254 3.6821-6.25 0.29503-0.275 2.2825-3.875 4.4165-8 4.8695-9.4125 8.3476-15 9.3372-15 1.1135 0 12.132 5.8083 15.306 8.0685 1.4919 1.0623 3.2717 1.9315 3.9552 1.9315 0.68345 0 3.1647 1.575 5.5139 3.5s4.537 3.5 4.8616 3.5 2.454 1.35 4.7317 3 4.5034 3 4.9459 3 1.8485 1.0125 3.1244 2.25c1.276 1.2375 3.8568 3.375 5.7352 4.75 4.0389 2.9564 14.025 10.745 19.218 14.99 2.0255 1.6554 4.0548 3.0099 4.5094 3.0099s1.4161 0.94382 2.1366 2.0974c0.72041 1.1536 1.5236 1.8836 1.7849 1.6223s2.2109 1.1574 4.3326 3.1526c2.1216 1.9952 7.5258 7.0027 12.009 11.128 7.8178 7.1927 10.327 9.546 23.603 22.133 6.346 6.017 19.976 20.768 22.414 24.258 0.8102 1.1596 2.2722 3.0084 3.249 4.1084s4.3569 5.15 7.5114 9 7.2366 8.6436 9.0714 10.652c2.9413 3.2204 11.05 14.513 17.842 24.848 1.2652 1.925 3.6838 5.525 5.3749 8 6.9157 10.122 12.978 19.89 12.978 20.913 0 0.59809 0.3375 1.091 0.75 1.0952 0.4125 4e-3 1.2433 1.0168 1.8462 2.25 2.6813 5.4847 9.7901 17.308 10.796 17.956 0.6093 0.39244 0.9008 0.84244 0.6477 1s0.5745 2.424 1.8392 5.0365l2.2994 4.75h2.1549l-1.2406 1.2406 2.9667 5.8769c1.6316 3.2323 3.8931 8.3532 5.0255 11.38 1.1323 3.0265 2.3807 5.5028 2.7742 5.5028 0.3934 0 0.7781 0.7875 0.8548 1.75 0.077 0.9625 3.0334 8.95 6.5704 17.75s7.8877 20.5 9.6682 26 4.0711 12.25 5.0901 15c2.0817 5.6178 2.9533 8.8815 6.0094 22.5 1.1725 5.225 2.7654 11.315 3.5399 13.533s1.4148 5.3684 1.4229 7c0.01 1.6316 0.6872 5.8189 1.509 9.305 0.8219 3.4862 2.6348 12.936 4.0287 21l2.5345 14.662 1.0143 17.5 1.0144 17.5 0.8254 2.0407 0.8253 2.0407 0.1709 12.392c0.094 6.8158 0.3924 12.751 0.6631 13.189l0.4921 0.79626-1.1108 2.0756-1.1109 2.0756-52.225-0.30497c-28.724-0.16773-53.011-0.45354-53.971-0.63514zm-963.35-21.737 0.6398-20.567 1.0667-8.6832c1.1048-8.994 2.7278-20.09 5.9505-40.683 1.4837-9.4813 5.2458-26.823 10.413-48 0.1342-0.55 0.57703-2.575 0.98406-4.5 0.40703-1.925 1.0886-4.4 1.5146-5.5 0.42602-1.1 2.4797-7.4 4.5637-14 2.084-6.6 4.2173-13.106 4.7406-14.458s1.8781-5.177 3.0107-8.5 2.3721-6.4917 2.7544-7.0417 1.5139-3.25 2.5147-6c7.5838-20.839 32-68.294 44.409-86.313 1.0176-1.4777 4.4961-6.7367 7.7299-11.687 8.8563-13.556 25.926-35.856 39.803-52 3.3095-3.85 14.582-15.574 25.05-26.054l19.033-19.054 12.664-10.777c15.745-13.398 30.751-25.015 41.836-32.385 4.675-3.1086 8.725-5.8958 9-6.1939s2.3-1.7099 4.5-3.1374c10.984-7.127 15.503-9.9125 21-12.945 3.3-1.8201 7.1262-4.0808 8.5026-5.0238 4.0118-2.7484 36.576-19.076 47.497-23.814 14.619-6.3433 15.435-6.6806 22-9.0969 3.3-1.2146 8.1975-3.0658 10.883-4.1138 2.6858-1.048 5.244-1.9055 5.6849-1.9055s2.0683-0.5248 3.6166-1.1662c1.5483-0.64141 3.0401-1.2242 3.3151-1.2952 0.275-0.0709 5.225-1.6219 11-3.4467 19.684-6.2197 31.487-9.2308 51.5-13.138 11-2.1478 22.25-4.3572 25-4.9099s13.55-2.0258 24-3.2736l19-2.2687 81 0.1362 16.5 2.1918c17.302 2.2983 19.103 2.5603 28 4.0736 3.025 0.51449 8.65 1.4621 12.5 2.1058s7.9 1.5325 9 1.9751 5.15 1.3242 9 1.959c13.094 2.1593 48.68 12.938 76.857 23.279l2.8574 1.0487 1.9739-2.7705-0.50939 1.6104-0.5094 1.6104 17.806 7.6859c14.388 6.2109 39.149 18.384 40.847 20.082 0.44749 0.4475-5.5396 11.686-12.791 24.011-2.9124 4.95-7.1869 12.375-9.4988 16.5-4.8183 8.5968-6.987 12.365-11.393 19.794-1.7268 2.9117-3.1397 5.5208-3.1397 5.798 0 0.42182-6.659 11.246-7.5198 12.223-0.23725 0.2694-12.382-5.519-13.304-6.3411-0.49214-0.43866 2.3606-5.6859 10.86-19.974 8.5094-14.306 12.964-22.15 12.964-22.825 0-1.0696-38.641-18.088-48.026-21.152-3.0109-0.98297-5.9244-2.0966-6.4744-2.4748-0.55-0.37816-3.025-1.2986-5.5-2.0454-2.475-0.74682-5.668-1.9285-7.0954-2.6259-1.4275-0.69742-6.1525-2.2327-10.5-3.4118-4.3475-1.1791-9.2546-2.5279-10.905-2.9973-19.833-5.6427-54.281-12.801-69.5-14.442-19.998-2.1562-34.377-3.4338-39.119-3.4758l-5.6192-0.0497-0.61984 3.75c-0.34091 2.0625-0.62478 12.36-0.63084 22.883l-0.011 19.133-1.75 0.36664c-0.9625 0.20164-9.0625 0.23264-18 0.0689l-16.25-0.29775v-45.958l-9.75 0.50194c-14.582 0.75069-26.442 1.6709-29.25 2.2696-1.375 0.2931-5.65 0.87997-9.5 1.3042-12.219 1.3463-30.464 4.6354-45 8.1123-2.2 0.52624-5.575 1.3179-7.5 1.7593-12.672 2.9054-39.024 11.115-48.5 15.11-1.1 0.4637-8.075 3.1879-15.5 6.0537-11.311 4.3658-37.537 16.147-38.836 17.445-0.21037 0.21037 0.56659 1.7154 1.7266 3.3444 1.16 1.6291 2.1091 3.2612 2.1091 3.6268 0 0.80266 15.541 27.874 18.262 31.812l1.9248 2.7852-1.2156 1.4648c-0.6686 0.80562-1.5987 1.4648-2.0669 1.4648-0.46822 0-6.7249 3.375-13.904 7.5s-13.404 7.5-13.833 7.5-6.3216-9.225-13.095-20.5l-12.315-20.5h-0.99812c-3.5999 0-41.62 27.42-64.2 46.3l-12.06 10.084-15 15.058c-14.511 14.566-25.229 26.141-32.5 35.097-1.925 2.371-6.9098 8.5072-11.077 13.636-8.8283 10.865-19.217 24.881-18.748 25.296 1.0071 0.89044 11.815 7.5293 12.258 7.5293 0.29074 0 3.0135 1.5896 6.0506 3.5324 3.0371 1.9428 6.3083 3.8292 7.2694 4.192 3.0105 1.1365 21.248 12.379 21.242 13.095-3e-3 0.37448-2.8157 5.1813-6.25 10.682-3.4343 5.5005-7.3684 12.138-8.7424 14.75l-2.4983 4.7491h-1.0477c-0.57624 0-4.3306-2.024-8.343-4.4979-4.0124-2.4738-9.6168-5.7826-12.454-7.3527-7.3491-4.067-11.236-6.3358-18.891-11.025-3.7026-2.2684-7.1333-4.1243-7.6239-4.1243h-0.89192l-10.514 20.75c-18.083 35.688-27.456 59.73-36.353 93.25-0.80293 3.025-2.1256 7.975-2.9392 11-1.9637 7.3008-2.3296 8.8671-3.0365 13-0.32928 1.925-0.99675 4.85-1.4833 6.5-1.4112 4.7859-3.9716 19.123-4.9848 27.913-0.51273 4.448-1.107 8.9872-1.3207 10.087s-0.69778 6.275-1.0759 11.5c-0.37808 5.225-0.91056 10.288-1.1833 11.25l-0.49588 1.75h64.135v36h-107.32z" fill="#dcdcdc"/><path d="m525.96 837.54c-2.2-0.44046-5.344-1.0674-6.9866-1.3932-1.6426-0.32577-5.8674-1.8985-9.3883-3.495-3.5209-1.5965-7.0144-2.9027-7.7634-2.9027s-2.1566-0.7875-3.1282-1.75-3.0974-2.6139-4.724-3.6698c-4.5095-2.9273-5.3462-3.641-11.501-9.8106l-5.7163-5.7304-4.6463-7.9966c-2.5555-4.3981-4.6463-8.6819-4.6463-9.5196v-1.523h-1.8566l-1.0772-5.25c-0.59243-2.8875-1.4895-7.725-1.9935-10.75l-0.9164-5.5 0.38221-8.6061c0.62121-13.987 1.9669-19.77 7.0143-30.141 1.8767-3.8562 4.8825-9.0318 6.6796-11.501 4.5952-6.3147 18.111-19.574 19.023-18.662 0.25252 0.25251 1.0284-0.22676 1.7241-1.065s1.8474-1.5242 2.5592-1.5242 1.4442-0.34686 1.6276-0.77079c0.44609-1.0315 12.205-5.8338 17.833-7.2829 6.536-1.6828 10.465-2.1179 20-2.2142l8.5-0.0859 16 3.522 4.6474 2.4159c2.556 1.3287 5.4926 2.4159 6.5256 2.4159h1.8782l10.725-5.5c5.8989-3.025 11.4-5.5 12.224-5.5h1.4991v-1c0-0.55 0.46876-1 1.0417-1 0.57293 0 3.8354-1.2968 7.25-2.8818 3.4146-1.585 8.4583-3.8831 11.208-5.107 2.75-1.2238 7.7-3.4711 11-4.9938s9.6-4.4276 14-6.4551 11.15-5.1808 15-7.0073c3.85-1.8264 9.25-4.3177 12-5.5363 2.75-1.2185 7.7-3.4839 11-5.0342s10.5-4.9125 16-7.4716 12.7-5.9219 16-7.4729c3.3-1.551 10.275-4.8296 15.5-7.2857s11.075-5.0676 13-5.8033c1.925-0.7357 3.725-1.6112 4-1.9455s5.9-3.0095 12.5-5.9447c6.6-2.9352 14.376-6.3997 17.28-7.6989 2.9038-1.2991 5.6788-2.3621 6.1667-2.3621s1.037-0.35007 1.2204-0.77793c0.18334-0.42785 3.2583-2.0648 6.8333-3.6376 3.575-1.5728 11.1-5.0478 16.722-7.7221 5.6221-2.6743 10.547-4.8624 10.943-4.8624s3.8968-1.5334 7.7779-3.4076c35.224-17.01 45.409-21.592 47.99-21.592h1.339l3.3375 7.0332-1.3048 1.2801c-0.71764 0.70404-4.4548 3.6139-8.3048 6.4663s-7.45 5.5385-8 5.9689c-2.5278 1.9784-6.4643 4.8851-8.4663 6.2514-3.709 2.5314-19.1 13.886-22.409 16.532-1.7186 1.3742-3.603 2.8808-4.1876 3.3481s-2.0856 1.3969-3.3355 2.0658c-1.2499 0.6689-3.2465 2.0525-4.437 3.0747-3.0693 2.6353-6.111 5.0527-10.423 8.2834-2.058 1.5421-6.6668 5.0379-10.242 7.7686-3.575 2.7306-6.95 5.3062-7.5 5.7233-0.55 0.41718-2.575 1.8591-4.5 3.2044-3.9638 2.7699-4.3575 3.064-8.5 6.3484-1.65 1.3082-8.85 6.7131-16 12.011-7.15 5.2977-14.245 10.759-15.767 12.136-1.522 1.3774-3.097 2.5115-3.5 2.5203-0.40299 9e-3 -2.2562 1.3588-4.1182 3-1.862 1.6412-3.7057 2.984-4.097 2.984-0.39132 0-1.7928 0.9384-3.1145 2.0853-3.3928 2.9443-5.722 4.7052-20.403 15.425-15.325 11.19-17.047 12.495-21 15.925-1.65 1.4314-4.8 3.8316-7 5.3339s-4.5074 3.1814-5.1275 3.7314c-0.62011 0.55-2.1326 1.675-3.361 2.5-1.2284 0.825-7.6419 5.55-14.252 10.5-6.6103 4.95-15.039 11.25-18.731 14s-8.6959 6.4896-11.12 8.3102c-2.4244 1.8206-5.457 4.0706-6.7392 5-1.2822 0.9294-3.3072 2.5235-4.5 3.5424-1.1928 1.019-2.894 2.369-3.7803 3l-1.6115 1.1474-0.60605 6.5c-0.76758 8.2325-1.8502 12.825-4.9849 21.145-3.4077 9.0451-4.1506 10.317-10.72 18.355-8.3219 10.181-17.191 17.469-24.966 20.515-1.925 0.75419-3.725 1.6332-4 1.9533-0.70939 0.82573-13.772 4.8406-18.255 5.6109-2.0654 0.35487-7.4654 0.7278-12 0.82873l-8.2446 0.18352zm440.18-58.614-1.6839-0.32332v-33.971l2.0876 1.2902 3.0648-2.5436 1.3476 2.0689 1.75-0.0154c0.9625-8e-3 1.75-0.29792 1.75-0.6432v-0.62779l54 0.65502v-2.8654c0-1.576-1.1182-11.828-2.4849-22.783l-2.485-19.918-2.4983-12c-5.9086-28.382-13.674-56.413-20.778-75-9.4871-24.824-25.77-60.485-32.433-71.032l-2.8205-4.4645-1.5 8e-3c-0.825 4e-3 -4.425 1.8819-8 4.1726s-9.425 5.7317-13 7.6467-9.8795 5.5969-14.01 8.182c-4.1305 2.5851-8.4904 5.0114-9.6886 5.3917l-2.1786 0.69147-3.6406-5.6912c-2.0023-3.1301-4.0173-6.6819-4.4776-7.8927-0.46037-1.2109-1.4639-2.8339-2.2301-3.6068-0.76621-0.77284-2.6973-3.8078-4.2912-6.7444l-2.8981-5.3392 2.4575-1.922c1.3516-1.0571 5.8325-3.8277 9.9575-6.1569 4.125-2.3292 8.2265-4.6867 9.1144-5.2388 1.4123-0.87827 6.2271-3.7044 10.886-6.3895 0.825-0.47552 3.525-1.8735 6-3.1067s5.2752-3.124 6.2226-4.2019l1.7226-1.9598-1.7097-2.673c-0.94031-1.4702-2.278-3.2677-2.9726-3.9945-0.69463-0.72679-1.263-1.6314-1.263-2.0102s-1.0214-1.8092-2.2698-3.1786c-1.2484-1.3694-4.6972-5.8648-7.664-9.9898-2.9668-4.125-5.6695-7.725-6.006-8-0.3365-0.275-2.1752-2.5171-4.086-4.9824s-5.3184-6.5153-7.5725-9c-2.2541-2.4847-8.1517-9.0253-13.106-14.535-9.7334-10.824-18.292-19.565-22.898-23.386-1.5936-1.3218-5.1711-4.4718-7.9499-7-4.9853-4.5356-11.531-10.175-20.578-17.73-8.855-7.3946-12.023-9.869-13.148-10.268-0.62204-0.2208-1.9565-1.1706-2.9655-2.1106-1.009-0.94002-4.4045-3.4594-7.5456-5.5985-3.1411-2.1392-5.8611-4.2269-6.0444-4.6394-0.18333-0.4125-0.90109-0.75-1.595-0.75s-2.0762-0.9-3.0716-2c-0.99549-1.1-2.209-2-2.6968-2-0.48776 0-1.8529-0.9-3.0336-2s-2.7369-2-3.4582-2h-1.3114v-2h-1.4503c-0.79767 0-1.8102-0.56324-2.25-1.2516-0.65728-1.0287-3.2245-2.5615-7.4217-4.4311-0.70262-0.31298-18.878 30.874-18.878 32.393 0 0.53897-0.9 1.7944-2 2.7899-1.1 0.99548-2 2.3601-2 3.0325s-0.67275 1.7809-1.495 2.4633l-1.495 1.2407-5.01-3.2827 0.0187-1.227c0.0259-1.7001 8.5403-18.406 10.054-19.727 0.31512-0.275 0.86993-1.175 1.2329-2s2.2164-4.2 4.1187-7.5c1.9023-3.3 4.4454-7.8 5.6514-10s2.4698-4.225 2.8084-4.5 1.7156-2.525 3.0599-5c1.3443-2.475 3.0577-5.1205 3.8075-5.8789l1.3633-1.3789-0.54606-1.423-0.54605-1.423 1.7306 1.0695 2.615-5.7328c2.3175-5.0805 4.4243-9.0149 6.9469-12.973l0.79035-1.24 5.1971 2.6212c2.8584 1.4417 5.4221 2.9332 5.6971 3.3146s2.525 1.7849 5 3.1188c2.475 1.334 4.725 2.6504 5 2.9254s1.2278 0.95 2.1174 1.5c7.4338 4.5963 33.892 23.513 37.383 26.728 1.65 1.5195 3.2899 2.7648 3.6442 2.7673 0.35434 3e-3 2.0137 1.2421 3.6875 2.7546s5.1655 4.55 7.7594 6.75c2.5939 2.2 5.9508 5.125 7.4598 6.5 1.509 1.375 5.7447 5.1592 9.4127 8.4093 9.327 8.2643 30.775 29.663 38.536 38.448 3.575 4.0464 7.4 8.3244 8.5 9.5068s3.327 3.9467 4.9489 6.143 3.9844 4.9075 5.25 6.025 2.3011 2.58 2.3011 3.25 0.35179 1.2182 0.78175 1.2182c0.88475 0 13.897 17.405 19.811 26.5 2.146 3.3 4.1816 6.225 4.5236 6.5 0.34198 0.275 2.1207 2.975 3.9527 6s3.5932 5.725 3.9138 6c0.32064 0.275 1.9271 2.75 3.5699 5.5 1.6428 2.75 3.5536 5.9 4.2462 7s1.5237 2.7875 1.8469 3.75 0.89597 1.75 1.2729 1.75c0.3769 0 2.2369 3.0375 4.1333 6.75 1.8965 3.7125 3.6962 6.975 3.9995 7.25 1.8651 1.6914 22.949 46.949 22.949 49.262 0 0.73613 0.4072 1.7659 0.9048 2.2884 1.1454 1.2026 11.826 30.726 15.899 43.95 4.1396 13.438 9.8571 35.615 11.086 43 0.5491 3.3 1.9634 10.275 3.1429 15.5s2.3465 11.3 2.5934 13.5c0.3836 3.4179 2.0322 14.622 2.8693 19.5 1.1436 6.6636 2.8827 37.001 2.9469 51.407l0.058 12.907-51.066 0.0929c-28.086 0.0511-51.824-0.0526-52.75-0.23045z" fill="#fd0003"/></g></svg>
