<?xml version="1.0" encoding="UTF-8"?>
<!-- Created with Inkscape (http://www.inkscape.org/) -->
<svg width="1080" height="1080" version="1.1" viewBox="0 0 1080 1080" xml:space="preserve" xmlns="http://www.w3.org/2000/svg"><path d="m528.07 840.83c-2.2-0.45096-5.4941-0.94331-7.3202-1.0941s-3.5402-0.6301-3.809-1.0651l-0.48879-0.79088h-5.7639l-0.53326-0.86283c-0.29329-0.47455-2.6824-1.4537-5.309-2.176-2.6267-0.72223-5.0008-1.5952-5.2758-1.94-0.275-0.34475-2.1101-1.6044-4.078-2.7993-1.9679-1.1949-5.5456-3.7294-7.9503-5.6324l-4.3723-3.4599-1.9084 1.1794 0.63806-1.0324 0.63806-1.0324-3.7884-4.3721c-2.0836-2.4047-4.8106-5.8399-6.06-7.6339l-2.2716-3.2618-1.6213 1.002 0.0917-1.2392c0.0504-0.68158-1.3504-4.3187-3.1129-8.0825-1.7625-3.7638-3.2046-7.4763-3.2046-8.25v-1.4068l-3.5-0.0306 1.2581-0.79874 1.2581-0.79873-1.4973-4.936-1.4973-4.936-0.0216-10.5h-2l-0.0401-1.25-0.04-1.25-16.799-11.5h-3.2386l1.1507-1.8618-2.0326-1.2562v1.059c0 1.9543-1.6045 1.0836-2.557-1.3877l-0.94304-2.4467-17.182-12.964c-9.4504-7.1304-18.113-13.26-19.25-13.621-1.1372-0.36092-2.0676-1.0446-2.0676-1.5193v-0.86306l-4.5-0.64007 0.13888-1.7495 0.13889-1.7495-1.1389-0.11842c-0.62638-0.0651-1.5098-0.054-1.9632 0.0248l-0.82433 0.14319 1.1813-1.9114-2.0326-1.2562v2.0553l-1.5-0.5756c-0.825-0.31658-1.5-1.004-1.5-1.5276v-0.95203l1.25 0.71934c2.4791 1.4267 0.0705-0.48624-10.25-8.1404-20.024-14.85-21.502-15.959-22-16.484-0.275-0.2906-2.4045-2.0107-4.7323-3.8225l-4.2323-3.2941-2.0355 1.258v-3.118h-1.0422c-1.0819 0-2.5796-1.0953-6.1529-4.5l-2.0991-2 1.4122 2.5-0.80902-0.0153c-0.44496-8e-3 -1.484-0.45842-2.309-1l-1.5-0.98469 1.5-1.0868 1.5-1.0867-4.235 0.91696 0.11751-1.2175 0.11752-1.2174-4.7587-3.6543c-2.6173-2.0098-5.0328-3.6543-5.368-3.6543-0.33514 0-2.0602-1.2375-3.8335-2.75s-4.2336-3.425-5.4673-4.25c-6.2373-4.1709-23.95-17.538-26.62-20.088-1.6762-1.6014-3.5887-2.9116-4.25-2.9116-0.66132 0-1.2024-0.36026-1.2024-0.80059 0-0.44032-2.0398-2.0899-4.5329-3.6658-2.4931-1.5759-5.5857-3.8031-6.8725-4.9494-5.6357-5.0205-8.8501-7.5842-9.5089-7.5842-0.38974 0-1.581-0.79816-2.6472-1.7737-1.0662-0.97553-6.6636-5.2857-12.439-9.5781s-11.293-8.4442-12.261-9.2263c-0.96878-0.78207-1.9995-1.4219-2.2905-1.4219-0.6138 0-5.7074-3.5135-9.7252-6.7082l-2.7771-2.2082-1.6465 0.63184-1.6465 0.63183 1.1398-2.9703-5.7868-3.8769-3e-3 -1.7832c-3e-3 -1.8388 4.6498-11.717 5.5189-11.717 0.26844 0 2.8201 1.125 5.6703 2.5l5.1822 2.5 2.5628 0.0153c2.6904 0.0161 5.918 1.555 5.0628 2.414-0.275 0.27622 2.1483 1.8566 5.3851 3.512l5.8851 3.0098 1.7298-1.069v2.0269l7.25 3.4356c22.266 10.552 28.211 13.277 37.75 17.31 12.883 5.4463 17.072 7.4734 18.815 9.1045l1.3459 1.2592 1.8388-1.1364v0.8149c0 0.4482 1.2375 1.3467 2.75 1.9966s5.3375 2.31 8.5 3.6891l5.75 2.5074 0.0153-0.69497c8e-3 -0.38223 0.45153-0.02 0.98469 0.80503l0.96937 1.5 0.0153-1.309 0.0153-1.309 1.0163 0.62811 1.0163 0.62812-1.2831 2.0761 4.5009-1.4285-0.60535 0.97949-0.60536 0.97949 11.966 5.3699 2.3035-1.4236-0.6418 1.0385-0.6418 1.0384 3.2373 1.2566c1.7805 0.69115 11.892 5.4684 22.47 10.616 10.578 5.1477 19.459 9.3594 19.735 9.3594s5.1915 2.2062 10.923 4.9027c5.7314 2.6965 11.476 5.2276 12.765 5.6247 1.2893 0.39711 8.8993 4.0409 16.911 8.0973s14.88 7.3753 15.262 7.3753 4.1772 1.6217 8.433 3.6038 11.024 5.1321 15.041 7c4.0166 1.8679 7.5527 3.3962 7.858 3.3962 0.49617 0 17.218 7.8223 21.566 10.088l1.7274 0.90024 5.2726-2.1083c2.9-1.1596 7.9792-2.895 11.287-3.8565l6.0147-1.7482 17.189-1.4318 6.3909 1.1296c7.2291 1.2778 18.137 4.1525 18.891 4.9784 0.275 0.30145 2.7096 1.5898 5.4102 2.8629 6.0054 2.8312 14.977 9.6435 21.907 16.634 5.7452 5.7955 6.4492 6.7752 10.223 14.225l2.6204 5.1737 1.4834 0.56921 1.4834 0.56922-1.2197 1.9735 4.0426 13.088 1.0494 8.4449 1.0494 8.4449-2.2275 18.562-3.0412 6.4838 1.1574 3.0162h-0.83952c-0.46173 0-2.2831 2.8125-4.0476 6.25s-4.5285 8.05-6.1423 10.25-3.477 5.2375-4.1403 6.75l-1.206 2.75h-2.4268l-0.63093 1.9879-0.63092 1.9879-6.3729 1.7356 0.476 2.2167-2.6556-1.019-1.2998 1.5662c-1.5323 1.8463-14.189 7.9932-22.021 10.694l-5.5 1.897-9 0.94954c-4.95 0.52224-9.225 0.90558-9.5 0.85186-0.275-0.0537-2.3-0.46663-4.5-0.91758zm-66-46.95c0.33991-0.55 0.81647-1 1.059-1s0.44099 0.45 0.44099 1-0.47656 1-1.059 1h-1.059zm504.17-12.83-1.7456-0.33017 0.11579-18.344 0.11578-18.344 3.2988-1.2659 52.997 1.1184 6.5434-1.2276v-3.7493c0-2.0621-0.6982-9.9995-1.5515-17.639l-1.5516-13.889-1.9041-8c-1.0473-4.4-2.3995-10.925-3.005-14.5-0.6054-3.575-2.1888-10.775-3.5188-16-1.3299-5.225-3.7726-14.949-5.4281-21.609-4.7102-18.948-12.998-41.32-27.003-72.891-9.1839-20.703-17.194-35.5-19.217-35.5-0.46324 0-4.775 2.3714-9.5816 5.2697s-10.314 6.1118-12.239 7.1411-7.6454 4.3165-12.712 7.3049l-9.2119 5.4335-4.4911-0.6491-2.7702-4c-1.5236-2.2-3.722-5.8-4.8852-8s-2.8796-4.9-3.8142-6c-2.2073-2.598-5.1156-9.0671-5.1156-11.379v-1.8111l1.8287-1.655c1.0058-0.91024 2.1201-1.655 2.4762-1.655 0.3561 0 6.8457-3.6531 14.421-8.1179s16.361-9.4666 19.524-11.115l5.75-2.9971v-3.1831l-4.2191-6.0434c-2.3205-3.3239-5.0205-6.9158-6-7.982s-1.7809-2.2804-1.7809-2.6981c0-0.69664-9.5611-12.711-11.032-13.863-0.35115-0.275-1.05-1.2514-1.553-2.1698-0.50299-0.91837-3.1713-4.0684-5.9296-7s-9.3513-10.28-14.651-16.33c-11.245-12.837-17.901-19.321-34.334-33.444-6.6-5.6726-14.473-12.568-17.496-15.323-3.0231-2.7552-6.6231-5.7311-8-6.6131-1.3769-0.88197-3.3759-2.3947-4.4421-3.3616s-2.4912-1.758-3.1667-1.758c-0.67546 0-1.3781-0.40173-1.5614-0.89273s-2.8639-2.6285-5.9569-4.75-8.3558-5.7698-11.695-8.1073-6.5463-4.25-7.1264-4.25c-0.58017 0-1.0557-0.3375-1.0566-0.75-3e-3 -1.0624-8.4168-6.25-10.137-6.25h-1.4295l-1.9656 3.2286c-1.0811 1.7757-3.0906 5.3639-4.4656 7.9738s-5.1997 9.3695-8.4994 15.021c-3.2997 5.6519-5.9997 10.533-6 10.848-9.7e-4 0.93029-3.2784 3.9286-4.2943 3.9286-0.51511 0-2.1222-0.93266-3.5714-2.0726l-2.6348-2.0726v-6.7368l1.0346-0.6394c0.56901-0.35167 2.808-4.2308 4.9756-8.6203 2.1676-4.3895 4.852-9.139 5.9654-10.554 1.1134-1.4155 2.0244-3.0288 2.0244-3.5852s1.5477-3.3433 3.4392-6.1931c1.8916-2.8498 4.1905-7.0589 5.1086-9.3535 0.91813-2.2946 1.9981-4.172 2.3999-4.172 0.4018 0 1.5904-1.7948 2.6414-3.9885 1.051-2.1937 2.2484-3.9937 2.6609-4 0.4125-6e-3 0.75-0.39394 0.75-0.86141 0-1.2336 9.9204-19.404 11.466-21.001l1.3072-1.3508 3.8635 1.7926c2.1249 0.98592 5.5958 2.8652 7.7131 4.1762s5.9423 3.5314 8.5 4.9342 5.5794 3.394 6.7149 4.4246c1.1354 1.0307 2.3768 1.8739 2.7587 1.8739 0.38181 0 2.5578 1.35 4.8356 3s4.5034 3 4.9459 3 1.8485 1.0125 3.1244 2.25c1.276 1.2375 3.8568 3.375 5.7352 4.75 4.0389 2.9564 14.025 10.745 19.218 14.99 2.0255 1.6554 3.9176 3.0099 4.2045 3.0099 0.287 0 1.5687 1.0125 2.8482 2.25s4.5251 4.05 7.2124 6.25 7.6998 6.7 11.139 10 10.858 10.275 16.486 15.5c5.6282 5.225 11.627 11.032 13.33 12.904 1.7034 1.8722 3.997 4.3617 5.097 5.5323 3.3267 3.5402 9.8334 11.041 12.714 14.657 5.6481 7.09 14.379 17.543 17.591 21.059 2.9413 3.2204 11.05 14.513 17.842 24.848 1.2652 1.925 3.6838 5.525 5.3749 8 6.9157 10.122 12.978 19.89 12.978 20.913 0 0.59809 0.3375 1.091 0.75 1.0952 0.4125 4e-3 1.2426 1.0168 1.8446 2.25s3.527 6.5474 6.5 11.809c2.973 5.262 6.2638 11.224 7.3129 13.25l1.9075 3.6828h2.0184l-0.6204 0.62032-0.6203 0.62033 2.9667 5.8769c1.6316 3.2323 3.8931 8.3532 5.0255 11.38 1.1324 3.0265 2.3807 5.5028 2.7742 5.5028 0.3934 0 0.7781 0.7875 0.8548 1.75 0.077 0.9625 3.0334 8.95 6.5704 17.75s7.8877 20.5 9.6682 26c1.7806 5.5 4.0711 12.25 5.0901 15 2.0817 5.6178 2.9534 8.8815 6.0094 22.5 1.1725 5.225 2.7655 11.315 3.5399 13.533 0.7745 2.2184 1.4148 5.3684 1.4229 7 0.01 1.6316 0.6872 5.8189 1.509 9.305 0.8219 3.4862 2.6348 12.936 4.0287 21l2.5345 14.662 1.0144 17.5 1.0143 17.5 0.8254 2.0407 0.8253 2.0407 0.1709 12.392c0.094 6.8158 0.3924 12.751 0.6631 13.189l0.4921 0.79626-1.1108 2.0756-1.1109 2.0756-52.225-0.30497c-28.724-0.16773-53.011-0.45355-53.971-0.63514zm-963.35-21.737 0.6398-20.567 1.0667-8.6832c1.1048-8.994 2.7278-20.09 5.9505-40.683 1.4837-9.4813 5.2458-26.823 10.413-48 0.1342-0.55 0.57703-2.575 0.98406-4.5s1.0886-4.4 1.5146-5.5 2.4797-7.4 4.5637-14c2.084-6.6 4.2173-13.106 4.7406-14.458s1.8781-5.177 3.0107-8.5 2.3721-6.4917 2.7544-7.0417c0.3823-0.55 1.5139-3.25 2.5147-6 7.5838-20.839 32-68.294 44.409-86.313 1.0176-1.4777 4.4961-6.7367 7.7299-11.687 8.8563-13.556 25.926-35.856 39.803-52 3.3095-3.85 14.582-15.574 25.05-26.054l19.033-19.054 12.664-10.777c15.745-13.398 30.751-25.015 41.836-32.385 4.675-3.1086 8.725-5.8958 9-6.1939 0.275-0.29808 2.3-1.7099 4.5-3.1374 10.984-7.127 15.503-9.9125 21-12.945 3.3-1.8201 7.1262-4.0809 8.5026-5.0238 4.0118-2.7484 36.576-19.076 47.497-23.814 14.619-6.3433 15.435-6.6806 22-9.097 3.3-1.2146 8.1975-3.0658 10.883-4.1138 2.6858-1.048 5.244-1.9055 5.6849-1.9055s2.0683-0.52479 3.6166-1.1662c1.5483-0.64142 3.0401-1.2242 3.3151-1.2952 0.275-0.0709 5.225-1.6219 11-3.4467 19.684-6.2197 31.487-9.2308 51.5-13.138 11-2.1478 22.25-4.3572 25-4.9099s13.55-2.0258 24-3.2736l19-2.2687 81 0.1362 16.5 2.1918c17.302 2.2983 19.103 2.5603 28 4.0736 3.025 0.51449 8.65 1.4621 12.5 2.1058 3.85 0.64372 7.9 1.5325 9 1.9751 1.1 0.44259 5.15 1.3242 9 1.959 13.094 2.1593 48.68 12.938 76.857 23.279l2.8574 1.0487 0.98694-1.3853 0.98695-1.3853-0.5094 1.6104-0.50939 1.6104 17.806 7.6859c14.388 6.2109 39.149 18.384 40.847 20.082 0.44749 0.44749-5.5396 11.686-12.791 24.011-2.9124 4.95-7.1869 12.375-9.4988 16.5-4.8183 8.5968-6.987 12.365-11.393 19.794-1.7268 2.9117-3.1397 5.5208-3.1397 5.798 0 0.42182-6.659 11.246-7.5198 12.223-0.23725 0.26939-12.382-5.519-13.304-6.3411-0.49215-0.43865 2.3606-5.6859 10.86-19.974 8.5094-14.306 12.964-22.15 12.964-22.825 0-1.0696-38.641-18.088-48.026-21.152-3.0109-0.98296-5.9244-2.0966-6.4744-2.4748s-3.025-1.2986-5.5-2.0454-5.668-1.9285-7.0954-2.6259c-1.4275-0.69742-6.1525-2.2327-10.5-3.4118-4.3475-1.1791-9.2546-2.5279-10.905-2.9973-19.833-5.6427-54.281-12.801-69.5-14.442-19.998-2.1562-34.377-3.4338-39.119-3.4758l-5.6192-0.0498-0.61984 3.75c-0.34091 2.0625-0.62479 12.36-0.63084 22.883l-0.011 19.133-1.75 0.36663c-0.9625 0.20165-9.0625 0.23264-18 0.0689l-16.25-0.29774v-45.958l-9.75 0.50194c-14.582 0.7507-26.442 1.6709-29.25 2.2696-1.375 0.29311-5.65 0.87998-9.5 1.3042-12.219 1.3463-30.464 4.6354-45 8.1123-2.2 0.52624-5.575 1.3179-7.5 1.7593-12.672 2.9054-39.024 11.115-48.5 15.11-1.1 0.4637-8.075 3.1879-15.5 6.0537-11.311 4.3658-37.537 16.147-38.836 17.445-0.21038 0.21037 0.56659 1.7154 1.7266 3.3444s2.1091 3.2612 2.1091 3.6268c0 0.80266 15.541 27.874 18.262 31.812l1.9248 2.7852-1.2156 1.4648c-0.6686 0.80561-1.5987 1.4648-2.0669 1.4648-0.46821 0-6.7249 3.375-13.904 7.5-7.1789 4.125-13.404 7.5-13.833 7.5s-6.3216-9.225-13.095-20.5l-12.315-20.5h-0.99812c-3.5999 0-41.62 27.42-64.2 46.3l-12.06 10.084-15 15.058c-14.511 14.566-25.229 26.141-32.5 35.097-1.925 2.371-6.9098 8.5072-11.077 13.636-8.8283 10.865-19.217 24.881-18.748 25.296 1.0071 0.89045 11.815 7.5293 12.258 7.5293 0.29074 0 3.0135 1.5896 6.0506 3.5324s6.3083 3.8292 7.2694 4.192c3.0105 1.1365 21.248 12.379 21.242 13.095-3e-3 0.37449-2.8157 5.1813-6.25 10.682s-7.3684 12.138-8.7424 14.75l-2.4983 4.7491h-1.0477c-0.57624 0-4.3306-2.024-8.343-4.4979-4.0124-2.4738-9.6168-5.7825-12.454-7.3527-7.3491-4.067-11.236-6.3358-18.891-11.025-3.7026-2.2684-7.1333-4.1243-7.6239-4.1243h-0.89192l-10.514 20.75c-18.083 35.688-27.456 59.73-36.353 93.25-0.80293 3.025-2.1256 7.975-2.9392 11-1.9637 7.3008-2.3296 8.8671-3.0365 13-0.32928 1.925-0.99675 4.85-1.4833 6.5-1.4112 4.7859-3.9716 19.123-4.9848 27.913-0.51273 4.448-1.107 8.9872-1.3207 10.087-0.21364 1.1-0.69778 6.275-1.0759 11.5-0.37808 5.225-0.91056 10.288-1.1833 11.25l-0.49588 1.75h64.135v36h-107.32z" fill="#dcdcdc"/><path d="m524.07 839.35c-4.4-0.68216-10.925-2.2257-14.5-3.4301l-6.5-2.1898-14-8.6813-6.3233-6.4084c-3.4778-3.5246-8.5199-9.5247-11.205-13.333l-4.8812-6.925-2.4253-7c-3.3135-9.5636-4.6598-15.658-4.6974-21.264l-0.0318-4.7356-1.2182-1.548c-0.67001-0.85141-4.3682-3.7469-8.2182-6.4344-3.85-2.6875-10.321-7.3909-14.38-10.452-25.657-19.348-38.843-29.344-40.383-30.615-0.97016-0.80029-6.1452-4.7083-11.5-8.6845-5.3548-3.9762-10.949-8.1378-12.431-9.2479-1.4824-1.1101-4.8574-3.5747-7.5-5.4769-2.6426-1.9022-5.7048-4.2993-6.8048-5.3269s-7.3059-5.6739-13.791-10.325l-11.791-8.4568-1.1136 0.68825-1.1136 0.68825 1.3098-2.1193-8.7504-6.5347c-15.43-11.523-18.51-13.865-31.697-24.103-12.875-9.9961-28.282-21.325-38.297-28.16-2.8843-1.9684-6.7093-4.9582-8.5-6.6438-3.4228-3.2221-14.8-11.856-23.256-17.647-2.75-1.8835-5.225-3.7042-5.5-4.046-0.275-0.34176-2.8424-2.3176-5.7053-4.3908l-5.2053-3.7694 0.93316-2.4544c1.3024-3.4256 3.9452-8.4408 4.4479-8.4408 0.23049 0 7.5314 3.4134 16.224 7.5852s18.505 8.7138 21.805 10.093 10.95 4.9868 17 8.0165c6.05 3.0297 21.125 9.9772 33.5 15.439 12.375 5.4616 26.775 12.124 32 14.806s12.2 6.0039 15.5 7.3829c3.3 1.379 10.95 4.8165 17 7.6387s11.9 5.534 13 6.0261c1.1 0.49209 10 4.7463 19.779 9.4538 9.7783 4.7075 18.029 8.5591 18.336 8.5591 0.73808 0 32.417 14.576 49.164 22.621 7.303 3.5084 13.445 6.3789 13.648 6.3789 0.44835 0 19.324 8.7249 21.904 10.125l1.8307 0.99327 3.6693-1.9012c2.0181-1.0457 6.5943-2.8211 10.169-3.9454l6.5-2.0442 19.054-1.315 8.4728 1.4884c24.424 4.2903 41.506 16.541 54.798 39.3l3.9762 6.8082 1.5557 5.4956c0.85563 3.0226 2.022 9.8359 2.592 15.141l1.0364 9.6452-1.0622 8.3548-1.0622 8.3548-4.1147 13-8.9481 15.198-9.2982 9.9738-6.8818 4.8086c-7.1791 5.0164-18.939 11.151-22.846 11.918-1.2496 0.2453-4.5219 0.89888-7.2719 1.4524s-7.925 1.1978-11.5 1.4317l-6.5 0.42533zm443.18-60.291-1.6839-0.32333v-33.971l1.0438 0.6451 1.0438 0.64511 3.0648-2.5436 1.3476 2.0689 1.75-0.0154c0.9625-8e-3 1.75-0.29792 1.75-0.6432v-0.62778l54 0.65502v-2.8654c0-1.576-1.1182-11.828-2.4849-22.783l-2.485-19.918-2.4982-12c-5.9087-28.382-13.675-56.413-20.778-75-9.4871-24.824-25.77-60.485-32.433-71.032l-2.8205-4.4645-1.5 8e-3c-0.825 4e-3 -4.425 1.8819-8 4.1726-3.575 2.2907-9.425 5.7317-13 7.6467-3.575 1.915-9.8795 5.5969-14.01 8.182-4.1305 2.5851-8.4904 5.0114-9.6886 5.3917l-2.1786 0.69148-3.6406-5.6912c-2.0023-3.1301-4.0173-6.6819-4.4776-7.8927s-1.4639-2.8339-2.2301-3.6068c-0.7662-0.77285-2.6972-3.8078-4.2912-6.7444l-2.8981-5.3392 2.4575-1.922c1.3516-1.0571 5.8325-3.8277 9.9575-6.1568s8.2265-4.6867 9.1144-5.2388c1.4123-0.87828 6.2271-3.7044 10.886-6.3895 0.825-0.47552 3.525-1.8735 6-3.1067 2.475-1.2332 5.2752-3.124 6.2226-4.2019l1.7226-1.9598-1.7096-2.673c-0.94031-1.4702-2.278-3.2677-2.9726-3.9945-0.69463-0.72678-1.263-1.6314-1.263-2.0102 0-0.37883-1.0214-1.8092-2.2698-3.1786-1.2484-1.3694-4.6972-5.8648-7.664-9.9898-2.9668-4.125-5.6695-7.725-6.006-8-0.3365-0.275-2.1752-2.5171-4.086-4.9824-1.9108-2.4653-5.3184-6.5153-7.5725-9-2.2541-2.4847-8.1517-9.0253-13.106-14.535-9.7334-10.824-18.292-19.565-22.898-23.386-1.5936-1.3218-5.1711-4.4718-7.9499-7-4.9853-4.5356-11.531-10.175-20.578-17.73-8.855-7.3946-12.023-9.869-13.148-10.268-0.62204-0.22081-1.9565-1.1706-2.9655-2.1106-1.009-0.94002-4.4045-3.4594-7.5456-5.5985-3.1411-2.1392-5.8611-4.2269-6.0444-4.6394-0.18333-0.4125-0.90109-0.75-1.595-0.75s-2.0762-0.9-3.0716-2c-0.99549-1.1-2.209-2-2.6968-2-0.48775 0-1.8529-0.9-3.0336-2s-2.7369-2-3.4582-2h-1.3114v-2h-1.4503c-0.79768 0-1.8102-0.56323-2.25-1.2516-0.65728-1.0287-3.2245-2.5615-7.4217-4.4311-0.70262-0.31298-18.878 30.874-18.878 32.393 0 0.53897-0.9 1.7944-2 2.7899s-2 2.3601-2 3.0325c0 0.67242-0.67275 1.7809-1.495 2.4633l-1.495 1.2407-5.01-3.2827 0.0187-1.227c0.0259-1.7001 8.5403-18.406 10.054-19.727 0.31511-0.275 0.86993-1.175 1.2329-2s2.2164-4.2 4.1187-7.5c1.9023-3.3 4.4454-7.8 5.6514-10s2.4698-4.225 2.8084-4.5 1.7156-2.525 3.0599-5 3.0577-5.1205 3.8075-5.8789l1.3633-1.3789-1.0921-2.846 1.7306 1.0695 2.615-5.7328c2.3174-5.0805 4.4243-9.0149 6.9469-12.973l0.79035-1.2401 5.1971 2.6212c2.8584 1.4417 5.4221 2.9332 5.6971 3.3146 0.275 0.38139 2.525 1.7849 5 3.1189s4.725 2.6504 5 2.9254 1.2278 0.95 2.1174 1.5c7.4338 4.5963 33.892 23.513 37.383 26.728 1.65 1.5195 3.2899 2.7648 3.6442 2.7673 0.35433 3e-3 2.0137 1.2421 3.6875 2.7546 1.6738 1.5125 5.1655 4.55 7.7594 6.75 2.5939 2.2 5.9508 5.125 7.4598 6.5 1.509 1.375 5.7447 5.1592 9.4127 8.4093 9.327 8.2643 30.775 29.663 38.536 38.448 3.575 4.0464 7.4 8.3244 8.5 9.5068s3.327 3.9467 4.9489 6.143c1.6219 2.1963 3.9844 4.9075 5.25 6.025 1.2656 1.1175 2.3011 2.58 2.3011 3.25s0.35179 1.2182 0.78175 1.2182c0.88475 0 13.897 17.405 19.811 26.5 2.146 3.3 4.1816 6.225 4.5236 6.5 0.34199 0.275 2.1207 2.975 3.9527 6 1.832 3.025 3.5932 5.725 3.9138 6s1.9271 2.75 3.5699 5.5c1.6428 2.75 3.5536 5.9 4.2462 7s1.5237 2.7875 1.8469 3.75 0.896 1.75 1.2729 1.75 2.2369 3.0375 4.1333 6.75c1.8965 3.7125 3.6962 6.975 3.9995 7.25 1.8651 1.6914 22.949 46.949 22.949 49.262 0 0.73613 0.4072 1.7659 0.9049 2.2884 1.1453 1.2026 11.826 30.726 15.899 43.95 4.1395 13.438 9.8571 35.615 11.086 43 0.5491 3.3 1.9634 10.275 3.1429 15.5s2.3466 11.3 2.5934 13.5c0.3836 3.4179 2.0322 14.622 2.8693 19.5 1.1436 6.6636 2.8827 37.001 2.9469 51.407l0.058 12.907-51.066 0.0929c-28.086 0.0511-51.824-0.0526-52.75-0.23045z" fill="#fd0003"/></svg>
