<?xml version="1.0" encoding="UTF-8"?>
<!-- Created with Inkscape (http://www.inkscape.org/) -->
<svg width="1080" height="1080" version="1.1" viewBox="0 0 1080 1080" xml:space="preserve" xmlns="http://www.w3.org/2000/svg"><path d="m640.09 833.55c-0.825-0.31248-2.9782-1.852-4.7848-3.421-1.8066-1.5691-3.7131-2.8529-4.2366-2.8529h-0.95178l-1.3808-3.25c-0.75945-1.7875-2.4977-4.4375-3.8627-5.8889l-2.4818-2.6389-1.2806-10.722-2.2191-5.5-2.2191-5.5-0.54134-50.668-0.54133-50.668-1.6665-1.6634-510.67-1-2.8337-2.0553c-1.5585-1.1304-4.3894-2.6861-6.2908-3.4571l-3.4571-1.4018-7.1716-7.1716-1.4018-3.4571c-0.771-1.9014-2.3267-4.7323-3.4571-6.2909l-2.0553-2.8338v-243.66l2.0777-2.8338c1.1427-1.5586 2.5693-4.2603 3.1701-6.0039l1.0925-3.1701 7.7977-7.7977 4.431-1.7649c2.4371-0.97069 5.2657-2.5146 6.2859-3.431l1.8549-1.6661 510.62-1 1.6665-1.6637 0.53562-52.668 0.53563-52.668 1.8196-4.5c1.0008-2.475 2.397-7.5675 3.1027-11.317l1.283-6.8167 2.3396-2.6833c1.2868-1.4758 4.3542-4.6464 6.8166-7.0458l4.477-4.3625 17.579 0.84044 5.9932 4.4309 6.5183 1.2175 2.5 2.1457c4.4641 3.8314 10.442 8.2355 13 9.5773 1.375 0.72128 3.4 2.1512 4.5 3.1775 5.265 4.9124 11.844 9.9038 18.897 14.336 1.7504 1.1 4.0647 2.8132 5.143 3.8072 4.7864 4.4123 16.761 13.797 19.24 15.079 1.4986 0.77495 3.5809 2.3551 4.6274 3.5114 1.0464 1.1563 2.3469 2.1024 2.8899 2.1024 0.543 0 2.3858 1.3449 4.095 2.9887 6.2847 6.044 9.1815 8.3078 12.358 9.6573l3.25 1.3808v2.016l2.75 1.1737c1.5125 0.64555 3.9306 2.3234 5.3737 3.7286 6.2088 6.0459 14.854 12.917 19.001 15.102 1.3064 0.68823 3.2753 2.1124 4.3753 3.1648 1.1 1.0524 5.5847 4.8103 9.966 8.3509l7.966 6.4374h1.7159 1.7159l2.1362 3c1.1749 1.65 2.5911 3 3.147 3s3.5628 2.1939 6.6819 4.8752c3.1191 2.6814 7.6441 6.1689 10.056 7.75 8.1616 5.3513 9.0374 5.9986 11.417 8.4386 4.1007 4.205 14.369 11.975 18.699 14.149 1.375 0.69042 3.6677 2.3876 5.0949 3.7714 3.88 3.7622 7.9764 7.036 11.913 9.5211 1.9368 1.2226 4.1324 2.9592 4.8792 3.859 0.74677 0.89981 1.8603 1.636 2.4745 1.636s2.2466 1.1238 3.6276 2.4972c4.3741 4.3504 17.413 14.727 19.963 15.887 1.3488 0.61357 3.5418 2.0726 4.8732 3.2423 6.7185 5.9024 9.106 7.8524 14.025 11.455 2.9427 2.1552 5.7348 3.9185 6.2046 3.9185 0.46977 0 2.055 1.0695 3.5228 2.3768 7.0611 6.2886 14.54 12.284 21.36 17.123 4.7539 3.3731 12.544 9.5772 15.562 12.394 1.1 1.0266 3.125 2.4313 4.5 3.1216 2.6658 1.3383 5.4236 3.7205 12.852 11.102 5.5247 5.4897 8.4271 9.961 13.828 21.303l2.8195 5.9209v16.158l-2.1421 3.5c-1.1782 1.925-2.4699 5.075-2.8706 7l-0.7285 3.5-5.2157 6c-2.8687 3.3-6.0013 7.2148-6.9614 8.6996l-1.7456 2.6996-3.168 1.8839c-3.5688 2.1222-7.722 5.4634-11.593 9.3266-1.4383 1.4353-3.619 2.9283-4.846 3.3177l-2.231 0.70808-2.0682 3.8646h-1.2332c-1.5138 0-10.556 7.0796-20.481 16.036-1.8065 1.6302-3.7721 2.9639-4.368 2.9639-0.59593 0-2.5937 1.2375-4.4395 2.75s-5.4034 4.325-7.9058 6.25-5.9046 4.7375-7.5605 6.25-3.573 2.75-4.2602 2.75c-1.2905 0-15.976 11.699-18.741 14.929-0.85794 1.0024-2.8829 2.5725-4.5 3.4891-5.4348 3.0805-14.925 10.257-19.355 14.636-1.4216 1.4052-3.7096 3.1023-5.0846 3.7714-4.2171 2.0522-14.526 9.8315-18.699 14.11-1.3067 1.3399-3.4235 3.1399-4.704 4-1.2806 0.86009-4.3013 2.8738-6.7128 4.4748-5.0984 3.385-16.249 12.366-19.922 16.047-1.3957 1.3984-2.9892 2.5425-3.541 2.5425-0.55188 0-3.9099 2.2571-7.4624 5.0157-3.5524 2.7586-7.5839 5.7939-8.9589 6.745s-3.3202 2.744-4.3226 3.9843l-1.8226 2.255h-1.305c-0.71773 0-1.916 0.7362-2.6627 1.636-0.74677 0.8998-2.9424 2.6363-4.8792 3.859-4.3674 2.757-8.5161 6.1641-11.878 9.755-1.4162 1.5125-3.08 2.75-3.6972 2.75s-1.9785 0.94607-3.025 2.1024c-1.0464 1.1563-3.2537 2.7937-4.905 3.6387-2.9012 1.4845-7.992 5.3364-11.884 8.9918-2.1597 2.0285-6.3681 5.122-12.118 8.908-4.7238 3.1102-15.933 12.178-19.538 15.806-1.3957 1.4045-2.8543 2.5536-3.2413 2.5536s-2.8451 1.5665-5.4624 3.481-6.472 4.7271-8.5662 6.25c-2.0941 1.5229-4.981 4.0065-6.4153 5.519s-3.1533 2.75-3.82 2.75c-0.66675 0-1.8233 0.7362-2.57 1.636-0.74677 0.8998-2.9424 2.6363-4.8792 3.859-3.9936 2.5211-8.1475 5.8797-11.657 9.4254-1.3177 1.3312-4.0731 3.2554-6.1232 4.2761-2.0501 1.0206-4.8525 2.5124-6.2275 3.3149l-2.5 1.4592-6.5-0.0642c-3.575-0.0353-7.175-0.31987-8-0.63236zm35.346-74.45c3.324-2.2932 7.1246-5.5808 11.513-9.9591 1.4528-1.4494 3.6543-2.9424 4.8924-3.3177l2.2511-0.68247 1.0341-1.9323 1.0341-1.9323h2.5716l8.429-6.9649c4.636-3.8307 9.6848-8.1057 11.22-9.5 1.5349-1.3943 3.2755-2.5351 3.868-2.5351s2.5874-1.2375 4.4332-2.75 5.4226-4.325 7.9485-6.25c2.5259-1.925 5.5751-4.444 6.776-5.5979s3.3085-2.6894 4.6835-3.4123c3.0783-1.6185 8.5762-5.8202 16.654-12.728 3.3845-2.8942 6.5919-5.2622 7.1276-5.2622s1.5849-0.7362 2.3316-1.636c0.74678-0.8998 2.9424-2.6363 4.8792-3.859 3.966-2.5036 8.1358-5.8696 11.601-9.3651 1.287-1.298 3.6593-3.098 5.2718-4 4.1386-2.3149 10.861-6.8972 13.091-8.9239 1.0387-0.94379 3.7387-3.291 6-5.216 2.2614-1.925 5.1301-4.4 6.375-5.5 1.2449-1.1 3.3671-2.502 4.7159-3.1156 2.6523-1.2065 15.864-11.666 19.99-15.826 1.3957-1.4071 3.0094-2.5584 3.5859-2.5584 1.2583 0 8.597-5.4808 17.03-12.719 3.3845-2.9048 6.5919-5.2814 7.1276-5.2814s1.5849-0.7362 2.3316-1.636c0.74678-0.8998 2.9424-2.6363 4.8792-3.859 4.3674-2.757 8.5161-6.1641 11.878-9.755 1.4162-1.5125 3.08-2.75 3.6972-2.75s1.9785-0.94607 3.025-2.1024c1.0464-1.1563 3.2537-2.7937 4.905-3.6387 2.9012-1.4845 7.992-5.3364 11.884-8.9918 2.1597-2.0285 6.3681-5.122 12.118-8.908 4.465-2.9398 15.653-12.039 19.511-15.867 1.3809-1.3706 2.99-2.4919 3.5757-2.4919 1.5552 0 5.1202-4.0774 6.3093-7.2162l1.029-2.7162-1.5571-1.5571c-0.85642-0.85643-2.7531-2.1756-4.2148-2.9314s-3.5138-2.3204-4.5602-3.4767c-1.0464-1.1563-2.3905-2.1024-2.9868-2.1024-0.59632 0-2.2141-1.1238-3.595-2.4972-4.3835-4.3598-17.416-14.728-19.968-15.887-1.3517-0.61357-3.3767-1.9331-4.5-2.9322-5.4787-4.8734-15.491-12.689-19.292-15.059-2.3375-1.4574-4.25-3.0638-4.25-3.5699v-0.92007l-2.25-0.68213c-1.2375-0.37517-3.4286-1.868-4.8692-3.3174-3.7369-3.7598-7.8264-7.0758-11.889-9.6403-1.9368-1.2226-4.1324-2.9592-4.8792-3.859-0.74677-0.89981-1.8851-1.636-2.5296-1.636-0.64448 0-3.0818-1.7811-5.4163-3.9579-5.3586-4.9968-15.86-13.008-18.023-13.75-0.90429-0.31005-2.7692-1.6288-4.1442-2.9306-5.5095-5.2161-18.508-15.362-19.682-15.362-0.68722 0-2.7275-1.3338-4.534-2.9639-9.0494-8.1662-15.87-13.547-19.586-15.45l-3.3014-1.691-1.0819-2.8193-2.1576-0.65281c-1.1867-0.35905-3.3632-1.8387-4.8366-3.2881s-4.7476-4.2102-7.276-6.1352c-2.5284-1.925-6.1073-4.7375-7.9531-6.25s-3.692-2.75-4.1028-2.75c-0.64173 0-5.2836-3.735-10.489-8.4399-3.6014-3.255-12.543-9.5601-13.558-9.5601-0.61139 0-2.2791-1.2375-3.706-2.75-1.4269-1.5125-4.6998-4.325-7.273-6.25-2.5733-1.925-6.4727-4.9625-8.6655-6.75s-4.3784-3.25-4.857-3.25-1.8985-0.92529-3.1554-2.0562c-6.7104-6.0377-16.683-13.862-19.535-15.326l-3.25-1.6688v-1.9915l-2.75-1.1737c-1.5125-0.64555-3.9386-2.3234-5.3914-3.7286-1.4527-1.4052-4.0262-3.8533-5.7188-5.4403l-3.0774-2.8855-5.0624 3.317v113.8l-5.1778 6.1534h-530.91l-4.9091 4.9091-0.17857 92.045c-0.0982 50.625-0.21072 93.04-0.25 94.256l-0.0714 2.2102 6.7958 4.5797h529.22l5.4796 5.0809v111.92l2 2c2.4788 2.4788 2.4979 2.4783 6.3456-0.17616z" fill="#3bfe41"/><path d="m634.84 828.62-5.75-4.493v-2.789l-5.882-6.6992-0.70246-5.4352c-0.38635-2.9894-1.7629-8.7116-3.059-12.716l-2.3566-7.2809v-95.938l-4-4-507.5-0.0294-2.5-1.4512c-1.375-0.79816-4.4772-2.3783-6.8937-3.5113l-4.3937-2.0601-7.719-7.719-1.5666-3.7493c-0.8616-2.0621-2.4405-4.9314-3.5087-6.3762l-1.9422-2.6269 0.26192-121.13 0.26192-121.13 1.7538-1.9377c0.96457-1.0658 2.4694-4.0379 3.344-6.6048 0.87463-2.5669 1.9366-4.6671 2.3599-4.6671s1.9949-1.2253 3.4925-2.7229l2.7229-2.7229 15.305-7.5542h253.07 253.07l1.9411-1.4185 1.9411-1.4185 0.5-52.332 0.5-52.332 4.2265-10 0.70168-6.5 0.70167-6.5 1.8911-2c1.0401-1.1 3.9098-4.1375 6.3771-6.75l4.486-4.75h8.6636 8.6636l5.6458 4.7506 7.5923 1.4243 2.0253 1.9717c4.2455 4.1331 10.824 8.8902 13.075 9.4553l2.3447 0.58848 3.1514 4.8096h1.1559c0.63577 0 2.5792 1.4625 4.3187 3.25s5.1905 4.7125 7.6689 6.5l4.5061 3.25h3.0743l3.2761 5h1.1559c0.63577 0 2.6118 1.4625 4.3912 3.25 4.0007 4.0188 9.1047 8.0342 12.407 9.7604 1.375 0.71883 3.088 2.1356 3.8067 3.1483l1.3067 1.8413h2.8199l3.416 3.25c8.2864 7.8838 10.892 9.8297 19.752 14.75 1.4855 0.825 3.533 2.452 4.5499 3.6155s5.1137 4.868 9.104 8.2322l7.255 6.1167 4.8847 1.226 3.1514 4.8096h1.2162c0.66888 0 2.346 1.1041 3.727 2.4536 5.3895 5.2667 10.621 9.3154 12.991 10.054 1.364 0.42517 3.6952 1.9474 5.1807 3.3827 5.6395 5.4492 15.55 13.404 18.839 15.122 1.375 0.71794 3.088 2.1339 3.8067 3.1466l1.3067 1.8413h2.8199l3.416 3.25c8.1904 7.7924 10.085 9.2233 19.558 14.768 1.4261 0.83477 3.7761 2.6348 5.2221 4 7.1186 6.7209 17.789 14.982 19.35 14.982h1.2904l3.2761 5h1.2162c0.66888 0 2.346 1.1172 3.727 2.4826 4.8313 4.7771 12.143 10.517 13.397 10.517 0.69568 0 2.3218 1.125 3.6135 2.5 1.2917 1.375 2.8078 2.5 3.3689 2.5s2.3952 1.3928 4.0757 3.0951c4.5349 4.5937 11.556 9.9049 13.093 9.9049h1.3487l1.3067 1.8413c0.71868 1.0127 2.4317 2.4376 3.8067 3.1663 1.375 0.72875 3.7147 2.4877 5.1993 3.9087 6.1928 5.9277 9.0506 8.1143 18.577 14.214 1.8017 1.1537 3.73 2.9463 4.2852 3.9836s1.5015 1.886 2.103 1.886 2.8355 1.4625 4.9644 3.25 5.6132 4.7125 7.7428 6.5c2.1296 1.7875 4.2239 3.25 4.654 3.25 1.3467 0 8.577 8.3289 10.527 12.127l1.8623 3.6267 1.4875 0.57078 1.4874 0.57078 0.6868 3.8026c0.7586 4.2001 2.043 7.0649 4.0815 9.1034l1.342 1.3421v15.587l-4.034 5.1284-0.8751 4.6843-0.8751 4.6843-2.0987 2.1364c-1.1543 1.175-4.8686 5.3989-8.254 9.3864-3.3854 3.9875-6.5517 7.25-7.0362 7.25-0.85245 0-4.3732 2.9908-11.478 9.75l-3.416 3.25h-1.3117c-0.72142 0-2.1679 0.94607-3.2143 2.1024-1.0464 1.1563-3.2537 2.7958-4.905 3.6434-1.6513 0.84757-4.0122 2.489-5.2465 3.6476-1.2343 1.1586-3.853 3.4566-5.8193 5.1066-1.9664 1.65-4.8496 4.2375-6.4071 5.75s-3.3948 2.75-4.0828 2.75c-1.6515 0-9.4464 5.6607-13.426 9.75-1.7395 1.7875-3.6829 3.25-4.3187 3.25h-1.1559l-3.2761 5h-3.6483l-4.8108 4.0174c-2.646 2.2096-5.9407 5.1346-7.3216 6.5-1.3809 1.3654-3.0781 2.4826-3.7714 2.4826h-1.2606l-2.2081 4.8462-5.1402 1.2901-3.5544 2.8876c-7.1977 5.8475-10.357 8.5343-12.906 10.976-1.4355 1.375-3.766 3.175-5.179 4-7.9039 4.6147-9.634 5.7667-12.766 8.5-1.8908 1.65-4.975 4.4625-6.8538 6.25l-3.416 3.25h-2.9961l-0.5898 1.537-0.58979 1.537-3.1288 1.5993c-2.8209 1.4419-7.6185 5.1876-13.129 10.25-1.1 1.0106-2.982 2.3408-4.1823 2.956l-2.1823 1.1185-1.1946 3.764-5.6134 1.1227-4.4137 3.5587c-2.4276 1.9573-5.5436 4.6833-6.9245 6.0578-1.3809 1.3745-3.0581 2.4991-3.727 2.4991h-1.2162l-3.2761 5h-1.2904c-1.6649 0-12.38 8.3846-20.128 15.75l-3.4187 3.25h-2.863l-2.1425 4.0033-3.6227 1.5136c-1.9925 0.83251-4.5637 2.4051-5.7139 3.4947-1.1502 1.0896-3.7938 3.5577-5.8746 5.4847l-3.7833 3.5036h-2.9961l-0.5898 1.537-0.58979 1.537-3.1288 1.6017c-3.8738 1.983-13.393 9.547-19.599 15.574-1.5575 1.5125-3.2838 2.75-3.836 2.75-0.55229 0-2.8893 1.575-5.1934 3.5-2.3041 1.925-4.5932 3.5-5.0869 3.5s-2.1005 1.35-3.5707 3l-2.673 3h-2.6233l-3.2761 5h-1.2904c-1.629 0-13.486 9.2336-19.378 15.091l-2.6062 2.5907-7.2533 2.3938-3.5518 3.9247-15.19-0.1554zm43.848-70.852c3.1525-2.75 7.2475-6.4625 9.1001-8.25l3.3683-3.25h1.3117c0.72142 0 2.1679-0.94607 3.2143-2.1024 1.0464-1.1563 3.2537-2.7958 4.905-3.6434 1.6513-0.84757 4.0122-2.489 5.2465-3.6476 1.2343-1.1586 3.853-3.4566 5.8193-5.1066 1.9664-1.65 4.8496-4.2375 6.4071-5.75l2.8319-2.75 1.3488-0.01c1.8879-0.0136 12.492-8.1462 19.688-15.1 1.4854-1.4353 3.6941-2.9249 4.9082-3.3102 2.2994-0.72979 8.9364-5.7744 13.263-10.081 1.3809-1.3745 3.0781-2.4991 3.7714-2.4991h1.2606l1.0518-2.3084 1.0518-2.3084 2.6768-1.1826c4.6084-2.036 12.397-7.8484 19.028-14.201 1.4354-1.375 3.766-3.175 5.179-4 7.8922-4.6079 9.6367-5.7665 12.798-8.5 1.9081-1.65 4.6398-4.1627 6.0704-5.5837 1.4306-1.421 3.7261-3.1799 5.1011-3.9087 1.375-0.72876 3.088-2.1536 3.8067-3.1663l1.3067-1.8413h2.765l4.8108-4.0503c2.646-2.2276 6.0774-5.0401 7.6254-6.25s4.0321-3.3741 5.5201-4.8094c1.488-1.4353 3.6988-2.9249 4.9129-3.3102 2.2994-0.72979 8.9364-5.7744 13.263-10.081 1.3809-1.3745 3.0167-2.4991 3.635-2.4991h1.1242l1.6381-2.5 1.6381-2.5h1.3823c1.7491 0 12.285-8.2068 20.22-15.75l3.4187-3.25h2.863l2.1425-4.0033 3.6227-1.5136c1.9925-0.83251 4.5637-2.4051 5.7139-3.4947 1.1502-1.0896 3.7938-3.5577 5.8746-5.4847l3.7833-3.5036h2.9961l1.1796-3.074 3.1288-1.6033c3.4964-1.7917 7.9809-5.2129 13.203-10.073 1.9208-1.7875 3.937-3.25 4.4805-3.25h0.98811l1.1167-2.4509 1.1167-2.4509 5.4726-1.202 4.0352-4.3962 0.66733-3.1585 0.66733-3.1585-2.6127-1.8415c-1.437-1.0128-4.4313-3.304-6.654-5.0915-2.2227-1.7875-4.6219-3.25-5.3316-3.25h-1.2904l-3.2761-5h-1.2162c-0.66889 0-2.346-1.1172-3.727-2.4826-1.3809-1.3654-4.6757-4.2904-7.3216-6.5l-4.8108-4.0174h-1.3825-1.3825l-1.3067-1.8511c-0.71868-1.0181-2.7692-2.6046-4.5567-3.5257l-3.25-1.6746v-0.96149c0-0.52897-1.6875-2.1055-3.75-3.5033-8.1107-5.4969-10.83-7.5082-12.785-9.456-1.1193-1.1152-2.5668-2.0276-3.2167-2.0276-0.64982 0-2.7199-1.4625-4.6002-3.25-3.329-3.1648-6.4159-5.8064-13.702-11.726l-3.5544-2.8876-5.3195-1.3351-0.60322-1.9006c-0.33178-1.0453-1.0351-1.9006-1.5629-1.9006-0.52781 0-2.41-1.3332-4.1826-2.9628-1.7726-1.6295-5.1816-4.5575-7.5756-6.5067l-4.3526-3.544-4.6894-1.177-3.1514-4.8096h-1.2162c-0.66889 0-2.346-1.1172-3.727-2.4826-1.3809-1.3654-4.6757-4.2904-7.3216-6.5l-4.8108-4.0174h-3.6483l-3.2761-5h-1.1559c-0.63577 0-2.7629-1.5966-4.727-3.5479-5.9157-5.8774-7.417-7.0926-11.071-8.9606-1.925-0.98413-4.088-2.6223-4.8067-3.6404l-1.3067-1.8511h-1.41-1.41l-3.7833-3.5036c-2.0808-1.927-4.6833-4.335-5.7833-5.3511-1.1-1.0161-3.8066-2.9783-6.0147-4.3604s-4.6257-3.2491-5.3724-4.1489c-0.74677-0.89981-1.9673-1.636-2.7123-1.636h-1.3545l-1.6381-2.5c-0.90093-1.375-2.0608-2.5-2.5774-2.5s-4.0672-2.692-7.89-5.9822l-6.9506-5.9822-4.8847-1.226-3.1514-4.8096h-1.2162c-0.66889 0-2.346-1.1276-3.727-2.5058-4.073-4.0649-12.386-10.494-13.568-10.494-0.60171 0-2.1509-1.125-3.4426-2.5-1.2918-1.375-2.8007-2.5-3.3533-2.5s-2.6116-1.5966-4.5757-3.5479c-5.9157-5.8774-7.417-7.0926-11.071-8.9606-1.925-0.98413-4.088-2.6223-4.8067-3.6404l-1.3067-1.8511h-1.3338-1.3338l-6.3595-5.992c-3.4977-3.2956-6.8721-5.9956-7.4987-6-0.62657-4e-3 -2.1177 0.78429-3.3135 1.7526l-2.1743 1.7607 0.0939 57.165 0.0939 57.165-6.7689 5.1629-527.79-0.1318-7.5407 6.6171-0.0398 188 7.5804 5.421 527.88 0.0818 6.6101 4.5 7e-3 56.295 7e-3 56.295 5.0568 5.0568 0.90483-0.32387c0.49765-0.17812 3.4841-2.5739 6.6366-5.3239z" fill="#2afe31"/><path d="m639.88 830.52c-1.4591-1.5125-4.3028-4.1-6.3195-5.75l-3.6666-3-0.95298-2.6122-0.95298-2.6122-4.625-2.1073-0.95332-19.668-4.3222-9.7542v-90.616l-1.9404-5.1036-508.9-0.52662-4.7571-4.4692-6.9039-1.326-12.462-12.205-0.01891-1.7997c-0.02573-2.4485-2.6857-7.4226-4.2479-7.9434l-1.271-0.42379v-237.17l4.3781-4.6608 0.95221-4.239 0.95222-4.239 3.7677-3.261c2.0722-1.7935 4.6773-4.2734 5.7891-5.511l2.0214-2.25h2.3693c2.9042 0 7.9367-2.5 8.513-4.229l0.42364-1.271 509.39-0.52662 1.9404-5.1036v-95.447l3.8558-7.563 0.61437-6.68c0.33791-3.674 0.8548-8.7609 1.1487-11.304l0.53428-4.6244 4.8469-2.2084v-4.0924l5.1935-1.9746 0.99752-3.8145 9.7284-1.338 6.5805 1.4355 5.6534 4.7411 2.6733 0.0136c1.4703 8e-3 3.6442 0.27412 4.8308 0.59246l2.1575 0.5788 0.49569 1.8955 0.49568 1.8955 5.0719 1.9283 2.1062 3.9356 6.7212 2.2182 4.6427 4.942h1.8504 1.8504l0.95732 2.5179 0.95731 2.5179 4.9143 1.8684 2.1062 3.9356 6.7212 2.2182 4.6427 4.942h1.8504 1.8504l1.9746 5.1935 3.7234 0.9737 4.3123 5.8328h1.2958c0.71266 0 2.3574 1.1301 3.6549 2.5112l2.3592 2.5112 7.6303 2.0546v3.7273l5.8113 2.0258 1.322 4.1652 4.9134 1.2332 1.2267 1.727c1.5833 2.2292 5.0329 4.0444 7.6857 4.0444h2.0905l0.96071 2.5268 0.9607 2.5268 4.1374 1.5305 1.2209 2.4579 1.2209 2.4579 4.3554 0.62671 1.2767 4.0224 8.3179 3.5917 1.905 2.1296 1.905 2.1296h1.8698 1.8698l1.9746 5.1935 3.7234 0.9737 4.1724 5.6434 7.6503 1.2925 1.9298 4.3968 4.6078 0.65322 1.9163 5.0403 3.7234 0.9737 4.3123 5.8328h1.29c0.70947 0 2.802 1.35 4.6502 3l3.3602 3h4.6893l0.95732 2.5179 0.95731 2.5179 4.8647 1.8496 1.2734 4.0123 2.1788 0.69151c1.1983 0.38033 3.3808 1.9784 4.8501 3.5512l2.6713 2.8596 2.3488 0.0153c3.0807 0.0201 4.5326 1.0333 4.9933 3.4847l0.3759 2 4.5926 0.65391 2.2299 4.894 4.5518 1.1424 3.0972 4.7269 7.6201 2.283 0.944 2.1498 0.944 2.1498 4.6078 0.65322 1.9163 5.0403 3.7234 0.9737 4.3123 5.8328h1.4353 1.4353l6.8336 6h2.1427 2.1427l1.9746 5.1935 3.7234 0.9737 4.3123 5.8328h1.4353 1.4353l6.8336 6h2.1427 2.1427l0.95732 2.5179 0.95731 2.5179 4.8647 1.8496 1.3044 4.1099 4.7614 1.195 3.0972 4.7269 7.8034 2.3379 2.1619 4.7448h3.9338l2.6091 5.4154 2.0001 0.54229c2.2809 0.61842 5.1348 3.028 13.671 11.542l6.0153 6 0.95662 2.6122 0.95662 2.6122 4.63 2.1096 0.4916 5.1157 0.4915 5.1157 2.3413 2.4921 2.3412 2.4921 0.104 11.282-1.271 0.42483c-0.6991 0.23366-1.9366 1.7118-2.75 3.2848l-1.479 2.86v9.1488l-2.5967 0.98729-2.5968 0.98729-0.9737 3.7234-2.9164 2.1562c-1.604 1.1859-2.9164 2.6077-2.9164 3.1596 0 1.4823-6.3896 7.6082-8.7007 8.3417l-1.9958 0.63344-1.0952 2.4038-1.0953 2.4038-4.613 0.65391-0.63372 4.4589-7.9711 2.1464-4.1154 4.7332-4.6465 1.1662-1.3044 4.1099-4.8647 1.8496-0.95731 2.5179-0.95732 2.5179h-4.0627l-4.3035 4.9494-6.6987 2.2108-2.1062 3.9356-4.9143 1.8684-0.95731 2.5179-0.95732 2.5179h-3.2855l-6.8336 6h-3.8705l-4.3123 5.8328-3.7234 0.9737-1.9163 5.0403-4.5873 0.65322-0.3759 2c-0.46073 2.4514-1.9126 3.4646-4.9933 3.4847l-2.3488 0.0153-2.6713 2.8596c-1.4692 1.5728-3.6517 3.1708-4.8501 3.5512l-2.1788 0.6915-0.63672 2.0061-0.63672 2.0061-4.8647 1.8496-0.95731 2.5179-0.95732 2.5179h-6.2471l-2.6713 2.8596c-1.4692 1.5728-3.6517 3.1708-4.8501 3.5512l-2.1788 0.6915-0.63672 2.0061-0.63672 2.0061-4.8647 1.8496-0.95731 2.5179-0.95732 2.5179h-4.6893l-3.3602 3c-1.8481 1.65-3.9407 3-4.6502 3h-1.29l-4.3123 5.8328-3.7234 0.9737-1.9746 5.1935h-4.0924l-1.0988 2.4116-1.0988 2.4116-8.696 2.1897-1.0926 2.0415-1.0926 2.0415-4.9143 1.8684-1.8564 4.8826-4.6078 0.65322-0.944 2.1498-0.944 2.1498-7.6201 2.283-3.0972 4.7269-2.3807 0.59753-2.3807 0.59752-1.3044 4.1099-4.8647 1.8496-0.95731 2.5179-0.95732 2.5179h-4.7009l-4.6427 4.942-6.6103 2.1816-1.2667 3.991-4.8647 1.8496-0.95731 2.5179-0.95732 2.5179h-4.6893l-3.3602 3c-1.8481 1.65-3.9407 3-4.6502 3h-1.29l-4.3123 5.8328-3.7234 0.9737-1.9163 5.0403-4.6078 0.65322-0.944 2.1498-0.944 2.1498-7.6201 2.283-1.5719 2.3991-1.5719 2.399-4.298 0.61919-1.2403 2.5-1.2403 2.5-4.5695 1.0653-0.944 2.1172-0.944 2.1172-7.6201 2.283-3.0972 4.7269-2.3807 0.59753-2.3807 0.59752-1.322 4.1652-5.8113 2.0258v3.5904l-1.5818 0.60699c-0.86998 0.33384-2.7106 0.60699-4.0902 0.60699h-2.5084l-5.2649 6h-11.109zm35.207-67.25c1.1-1.1 2-2.4187 2-2.9304v-0.93045l4.4813-0.6391 1.2623-2.6423 1.2623-2.6423 2.497-0.62672 2.497-0.62671v-3.8848l8.1048-2.1824 4.1154-4.7331 4.6465-1.1662 1.3044-4.1099 4.8647-1.8496 0.95732-2.5179 0.95732-2.5179h4.0627l2.1517-2.4747 2.1517-2.4747 6.6987-2.2108 2.1062-3.9356 4.9143-1.8684 0.95732-2.5179 0.95732-2.5179h4.0627l2.1517-2.4747 2.1517-2.4747 6.6987-2.2108 2.1062-3.9356 4.9143-1.8684 0.95732-2.5179 0.95732-2.5179h4.0924l2.1619-4.7448 7.8033-2.3379 3.0972-4.7269 4.7614-1.195 1.3044-4.1099 4.8647-1.8496 0.95732-2.5179 0.95732-2.5179h6.2471l2.6713-2.8596c1.4692-1.5728 3.6517-3.1708 4.85-3.5512l2.1788-0.69151 1.2734-4.0123 4.8647-1.8496 0.95732-2.5179 0.95732-2.5179h4.2855l6.8336-6h2.8705l4.3124-5.8328 3.7234-0.9737 1.9163-5.0403 4.6078-0.65322 0.91706-2.0873 0.91707-2.0873 8.579-2.2945 2.2085-4.1267 4.9143-1.8684 0.95732-2.5179 0.95732-2.5179h4.0924l2.1619-4.7448 7.8033-2.3379 3.0972-4.7269 4.7614-1.195 1.3044-4.1099 4.8647-1.8496 0.95732-2.5179 0.95732-2.5179h4.7009l4.6427-4.942 6.6103-2.1816 1.2667-3.991 4.8647-1.8496 0.95732-2.5179 0.95732-2.5179h4.6893l3.3602-3c1.8481-1.65 3.9407-3 4.6502-3h1.29l4.3124-5.8328 3.7234-0.9737 1.9746-5.1935h4.099l0.93135-2.4496 0.93135-2.4496 8.0146-2.1581 3.0732-4.3876v-7.4121l-1.5714-1.5714c-0.86429-0.86429-2.1625-1.5714-2.885-1.5714h-1.3136l-3.2219-4.9173-7.6201-2.283-0.944-2.1498-0.944-2.1498-4.6078-0.65322-1.9163-5.0403-3.7234-0.9737-4.3124-5.8328h-2.8705l-6.8336-6h-4.2855l-1.9746-5.1935-3.7234-0.9737-4.3124-5.8328h-1.29c-0.70947 0-2.802-1.35-4.6502-3l-3.3602-3h-2.3446-2.3446l-0.95732-2.5179-0.95732-2.5179-4.8647-1.8496-1.3044-4.1099-2.3807-0.59752-2.3807-0.59753-3.0972-4.7269-7.8033-2.3379-2.1619-4.7448h-4.0924l-0.95732-2.5179-0.95732-2.5179-4.9143-1.8684-1.1043-2.0633-1.1043-2.0633-8.579-2.2945-0.91707-2.0873-0.91706-2.0873-4.6078-0.65322-1.9163-5.0403-3.7234-0.9737-4.3124-5.8328h-1.9353-1.9353l-6.8336-6h-3.2855l-0.95732-2.5179-0.95732-2.5179-4.8647-1.8496-1.2529-3.9474-2.7866-0.97141c-1.5326-0.53427-4.0549-2.1469-5.6052-3.5836l-2.8186-2.6122h-2.3787-2.3787l-0.95732-2.5179-0.95732-2.5179-4.8647-1.8496-1.3044-4.1099-2.3807-0.59752-2.3807-0.59753-3.0972-4.7269-7.8033-2.3379-2.1619-4.7448h-1.9669-1.9669l-2.6279-5.5-4.2073-0.60319-2.2292-4.8925-8.7107-2.3298-0.91707-2.0873-0.91706-2.0873-4.6078-0.65322-0.92819-2.4413-0.92819-2.4413-5.0871-1.9341-1.1954-3.1152-3.6267-1.851c-1.9947-1.018-4.4839-2.7989-5.5316-3.9574l-1.905-2.1064h-2.3698-2.3698l-0.95732-2.5179-0.95732-2.5179-4.8647-1.8496-1.2734-4.0123-2.1988-0.68607c-1.2094-0.37734-3.677-1.9754-5.4836-3.5512l-3.2848-2.8651h-2.49-2.49l-0.96071-2.5268-0.9607-2.5268-4.1374-1.5305-1.2435-2.4579-1.2434-2.4579-9.3284 0.121-4.0604 3.6746-0.258 58.102-0.25799 58.102-530.75 0.50372-9.8342 10.15 0.27694 187.04 1.655 1.4007c0.91025 0.77037 3.1842 2.7526 5.0533 4.405l3.3983 3.0043h529.59l1.1708 1.8944 0.22361 56.399 0.22362 56.399 1.4996 1.8067c1.3616 1.6404 6.3995 4.3645 8.2504 4.4611 0.4125 0.0215 1.65-0.86086 2.75-1.9609z" fill="#02fe0a"/></svg>
