<?xml version="1.0" encoding="UTF-8"?>
<!-- Created with Inkscape (http://www.inkscape.org/) -->
<svg width="1080" height="1080" version="1.1" viewBox="0 0 1080 1080" xml:space="preserve" xmlns="http://www.w3.org/2000/svg"><path d="m428.37 834.9c-1.5716-0.47096-3.6261-1.5519-4.5656-2.4022l-1.7082-1.5459-6.8688-1.2876-2.5-2.1457c-4.4641-3.8314-10.442-8.2355-13-9.5773-1.375-0.72128-3.4-2.1512-4.5-3.1775-5.265-4.9124-11.844-9.9038-18.897-14.336-1.7504-1.1-4.0647-2.8132-5.143-3.8072-4.7864-4.4123-16.761-13.797-19.24-15.079-1.4986-0.77495-3.5809-2.3551-4.6274-3.5114-1.0464-1.1563-2.3469-2.1024-2.8899-2.1024-0.543 0-2.3858-1.3449-4.095-2.9887-6.2847-6.044-9.1815-8.3078-12.358-9.6573l-3.25-1.3808v-2.016l-2.75-1.1737c-1.5125-0.64555-3.9306-2.3234-5.3737-3.7286-6.2088-6.0459-14.854-12.917-19.001-15.102-1.3064-0.68823-3.2753-2.1124-4.3753-3.1648-1.1-1.0524-5.5847-4.8103-9.966-8.3509l-7.966-6.4374h-3.4318l-2.1362-3c-1.1749-1.65-2.5911-3-3.147-3-0.55597 0-3.5628-2.1939-6.6819-4.8752-3.1191-2.6814-7.6441-6.1689-10.056-7.75-8.1616-5.3513-9.0374-5.9986-11.417-8.4386-4.1007-4.205-14.369-11.975-18.699-14.149-1.375-0.69041-3.6677-2.3876-5.0949-3.7714-3.88-3.7622-7.9764-7.036-11.913-9.5212-1.9368-1.2226-4.1324-2.9592-4.8792-3.859-0.74677-0.89981-1.8603-1.636-2.4745-1.636s-2.2466-1.1238-3.6276-2.4972c-4.3741-4.3504-17.413-14.727-19.963-15.887-1.3488-0.61356-3.5418-2.0726-4.8732-3.2423-6.7185-5.9024-9.106-7.8524-14.025-11.455-2.9427-2.1552-5.7348-3.9185-6.2045-3.9185-0.46978 0-2.0551-1.0695-3.5228-2.3768-7.0611-6.2886-14.54-12.284-21.36-17.123-4.7539-3.3731-12.544-9.5772-15.562-12.394-1.1-1.0266-3.125-2.4313-4.5-3.1216-2.6659-1.3383-5.4236-3.7205-12.852-11.102-5.5247-5.4897-8.4271-9.961-13.828-21.303l-2.8196-5.9209v-16.158l2.1421-3.5c1.1782-1.925 2.4699-5.075 2.8706-7l0.72848-3.5 5.2157-6c2.8687-3.3 6.0013-7.2148 6.9614-8.6996l1.7456-2.6996 3.168-1.8839c3.5688-2.1222 7.722-5.4634 11.593-9.3266 1.4383-1.4353 3.619-2.9283 4.846-3.3177l2.231-0.70808 2.0682-3.8646h1.2332c1.5138 0 10.556-7.0796 20.481-16.036 1.8065-1.6302 3.7721-2.9639 4.368-2.9639 0.59593 0 2.5937-1.2375 4.4395-2.75s5.4034-4.325 7.9058-6.25 5.9046-4.7375 7.5605-6.25 3.573-2.75 4.2602-2.75c1.2905 0 15.976-11.699 18.741-14.929 0.85795-1.0024 2.883-2.5725 4.5-3.4891 5.4348-3.0805 14.925-10.257 19.355-14.636 1.4216-1.4052 3.7096-3.1023 5.0846-3.7714 4.2171-2.0522 14.526-9.8315 18.699-14.11 1.3067-1.3399 3.4235-3.1399 4.704-4s4.3013-2.8738 6.7128-4.4748c5.0984-3.385 16.249-12.366 19.922-16.047 1.3957-1.3984 2.9892-2.5425 3.541-2.5425 0.55188 0 3.9099-2.2571 7.4624-5.0157 3.5524-2.7586 7.5839-5.7939 8.9589-6.745s3.3202-2.744 4.3226-3.9843l1.8226-2.255h1.305c0.71773 0 1.916-0.7362 2.6627-1.636 0.74677-0.8998 2.9424-2.6363 4.8792-3.859 4.3674-2.757 8.5161-6.1641 11.878-9.755 1.4162-1.5125 3.08-2.75 3.6972-2.75s1.9785-0.94607 3.025-2.1024c1.0464-1.1563 3.2537-2.7937 4.905-3.6387 2.9012-1.4845 7.992-5.3364 11.884-8.9918 2.1597-2.0285 6.3681-5.122 12.118-8.9081 4.7238-3.1102 15.933-12.178 19.538-15.806 1.3957-1.4045 2.8543-2.5536 3.2413-2.5536s2.8451-1.5665 5.4624-3.481c2.6173-1.9146 6.472-4.7271 8.5662-6.25 2.0941-1.5229 4.981-4.0065 6.4153-5.519s3.1533-2.75 3.82-2.75c0.66675 0 1.8233-0.7362 2.57-1.636 0.74677-0.8998 2.9424-2.6363 4.8792-3.859 3.9936-2.5211 8.1475-5.8797 11.657-9.4254 1.3177-1.3312 4.0731-3.2554 6.1232-4.2761 2.0501-1.0206 4.8525-2.536 6.2275-3.3673l2.5-1.5116 15.167 0.57537 3.7015 3.25c2.0358 1.7875 4.1298 3.25 4.6533 3.25h0.95178l1.3808 3.25c0.75946 1.7875 2.4977 4.4375 3.8627 5.8889l2.4818 2.6389 1.2806 10.722 2.2191 5.5 2.2191 5.5 0.54134 50.668 0.54133 50.668 1.6665 1.6634 510.67 1 2.8337 2.0553c1.5585 1.1304 4.3894 2.6861 6.2908 3.4571l3.4571 1.4018 7.1716 7.1716 1.4018 3.4571c0.77104 1.9014 2.3267 4.7323 3.4571 6.2909l2.0553 2.8338v243.66l-2.0777 2.8338c-1.1427 1.5586-2.5693 4.2603-3.1702 6.0039l-1.0925 3.1701-7.7977 7.7977-4.431 1.7649c-2.437 0.97069-5.2657 2.5146-6.2859 3.431l-1.8549 1.6661-510.62 1-0.83327 0.83183-0.83327 0.83182-0.53562 52.668-0.53563 52.668-1.8196 4.5c-1.0008 2.475-2.397 7.5675-3.1027 11.317l-1.283 6.8167-2.3396 2.6833c-1.2868 1.4758-4.2999 4.5958-6.6958 6.9333l-4.3562 4.25-14.332-0.172zm-15.865-71.528 2.2225-1.5567v-113.73l2.5889-3.0767 2.5889-3.0767h530.91l4.9091-4.9091 0.17857-92.045c0.0982-50.625 0.21072-93.04 0.25-94.256l0.0714-2.2102-6.7958-4.5797h-264.61-264.61l-5.4796-5.0809v-55.378-55.378l-0.61765-1.6096c-0.3397-0.88527-1.4766-2.0693-2.5264-2.6311l-1.9087-1.0215-3.2236 2.2255c-3.389 2.3397-7.1739 5.6102-11.582 10.008-1.4528 1.4494-3.6543 2.9424-4.8924 3.3177l-2.2511 0.68247-1.0341 1.9323-1.0341 1.9323h-1.2858-1.2858l-8.429 6.9649c-4.636 3.8307-9.6848 8.1057-11.22 9.5-1.5349 1.3943-3.2755 2.5351-3.868 2.5351-0.59248 0-2.5874 1.2375-4.4332 2.75s-5.4226 4.325-7.9485 6.25c-2.5259 1.925-5.5751 4.444-6.776 5.5979s-3.3085 2.6894-4.6835 3.4123c-3.0783 1.6185-8.5762 5.8202-16.654 12.728-3.3845 2.8942-6.5919 5.2622-7.1276 5.2622s-1.5849 0.7362-2.3316 1.636c-0.74677 0.8998-2.9424 2.6363-4.8792 3.859-3.966 2.5036-8.1358 5.8696-11.601 9.3651-1.287 1.298-3.6593 3.098-5.2718 4-4.1386 2.3149-10.861 6.8972-13.091 8.9239-1.0387 0.94379-3.7387 3.291-6 5.216-2.2614 1.925-5.1301 4.4-6.375 5.5-1.2449 1.1-3.3671 2.502-4.7159 3.1156-2.6523 1.2065-15.864 11.666-19.99 15.826-1.3957 1.4071-3.0094 2.5584-3.5859 2.5584-1.2583 0-8.597 5.4808-17.03 12.719-3.3845 2.9048-6.5919 5.2814-7.1276 5.2814s-1.5849 0.7362-2.3316 1.636c-0.74677 0.8998-2.9424 2.6363-4.8792 3.859-4.3674 2.757-8.5161 6.1641-11.878 9.755-1.4162 1.5125-3.08 2.75-3.6972 2.75s-1.9785 0.94607-3.025 2.1024c-1.0464 1.1563-3.2537 2.7937-4.905 3.6387-2.9012 1.4845-7.992 5.3364-11.884 8.9918-2.1597 2.0285-6.3681 5.122-12.118 8.908-4.465 2.9398-15.653 12.039-19.511 15.867-1.3809 1.3706-2.99 2.4919-3.5757 2.4919-1.5552 0-5.1202 4.0774-6.3093 7.2162l-1.029 2.7162 1.5571 1.5571c0.85642 0.85642 2.7531 2.1756 4.2148 2.9314s3.5138 2.3204 4.5602 3.4767c1.0464 1.1563 2.3905 2.1024 2.9868 2.1024s2.2141 1.1238 3.595 2.4972c4.3835 4.3598 17.416 14.728 19.968 15.887 1.3517 0.61357 3.3767 1.9331 4.5 2.9322 5.4787 4.8734 15.491 12.689 19.292 15.059 2.3375 1.4574 4.25 3.0638 4.25 3.5699v0.92006l2.25 0.68214c1.2375 0.37517 3.4286 1.868 4.8692 3.3174 3.7369 3.7598 7.8264 7.0758 11.889 9.6403 1.9368 1.2226 4.1324 2.9592 4.8792 3.859 0.74677 0.89981 1.8851 1.636 2.5296 1.636 0.64448 0 3.0818 1.7811 5.4163 3.9579 5.3586 4.9968 15.86 13.008 18.023 13.75 0.90429 0.31005 2.7692 1.6288 4.1442 2.9306 5.5095 5.2161 18.508 15.362 19.682 15.362 0.68722 0 2.7275 1.3338 4.534 2.9639 9.0494 8.1662 15.87 13.547 19.586 15.45l3.3014 1.691 1.0819 2.8193 2.1576 0.65282c1.1867 0.35905 3.3632 1.8387 4.8366 3.2881s4.7476 4.2102 7.276 6.1352c2.5284 1.925 6.1073 4.7375 7.9531 6.25s3.692 2.75 4.1028 2.75c0.64172 0 5.2836 3.735 10.489 8.4399 3.6014 3.255 12.543 9.5601 13.558 9.5601 0.61139 0 2.2791 1.2375 3.706 2.75 1.4269 1.5125 4.6998 4.325 7.273 6.25 2.5733 1.925 6.4727 4.9625 8.6655 6.75s4.3784 3.25 4.857 3.25 1.8985 0.92529 3.1554 2.0562c6.7104 6.0377 16.683 13.862 19.535 15.326l3.25 1.6688v2.0452l2.8213 1.2017c2.6786 1.1409 6.7077 4.4781 11.411 9.4517 2.5294 2.6745 2.6879 2.6943 5.5447 0.69329z" fill="#3bfe41"/><path d="m425.58 832.53-2.6558-2.3394-7.6377-1.4328-2.0253-1.9717c-4.2455-4.1331-10.824-8.8902-13.075-9.4553l-2.3447-0.58849-1.5757-2.4048-1.5757-2.4048h-1.156c-0.63577 0-2.5792-1.4625-4.3187-3.25s-5.1905-4.7125-7.6689-6.5l-4.5061-3.25h-3.0743l-3.2761-5h-1.156c-0.63577 0-2.6118-1.4625-4.3912-3.25-4.0007-4.0188-9.1047-8.0342-12.407-9.7604-1.375-0.71883-3.088-2.1356-3.8067-3.1483l-1.3067-1.8413h-2.8199l-3.416-3.25c-8.2864-7.8838-10.892-9.8297-19.752-14.75-1.4855-0.825-3.533-2.452-4.5499-3.6155-1.0169-1.1635-5.1137-4.868-9.104-8.2322l-7.255-6.1167-4.8847-1.226-1.5757-2.4048-1.5757-2.4048h-1.2162c-0.66888 0-2.346-1.1041-3.727-2.4536-5.3895-5.2666-10.621-9.3154-12.991-10.054-1.364-0.42518-3.6952-1.9474-5.1807-3.3827-5.6395-5.4492-15.55-13.404-18.839-15.122-1.375-0.71794-3.088-2.1339-3.8067-3.1466l-1.3067-1.8413h-2.8199l-3.416-3.25c-8.1904-7.7924-10.085-9.2233-19.558-14.768-1.4261-0.83477-3.7761-2.6348-5.2221-4-7.1186-6.7209-17.789-14.982-19.35-14.982h-1.2904l-3.2761-5h-1.2162c-0.66888 0-2.346-1.1172-3.727-2.4826-4.8313-4.7771-12.143-10.517-13.397-10.517-0.69568 0-2.3218-1.125-3.6135-2.5-1.2917-1.375-2.8078-2.5-3.3689-2.5s-2.3952-1.3928-4.0757-3.0951c-4.5349-4.5937-11.556-9.9049-13.093-9.9049h-1.3487l-1.3067-1.8413c-0.71869-1.0127-2.4317-2.4376-3.8067-3.1663s-3.7147-2.4877-5.1993-3.9087c-6.1928-5.9277-9.0506-8.1143-18.577-14.214-1.8017-1.1537-3.73-2.9463-4.2852-3.9836s-1.5015-1.886-2.103-1.886-2.8355-1.4625-4.9644-3.25-5.6132-4.7125-7.7428-6.5c-2.1296-1.7875-4.2239-3.25-4.654-3.25-1.3467 0-8.577-8.3289-10.527-12.127l-1.8623-3.6267-2.9748-1.1416-0.6868-3.8026c-0.7586-4.2001-2.043-7.0649-4.0815-9.1034l-1.3421-1.3421v-15.587l4.034-5.1284 0.87512-4.6843 0.87512-4.6843 2.0987-2.1364c1.1543-1.175 4.8686-5.3989 8.254-9.3864s6.5517-7.25 7.0362-7.25c0.85245 0 4.3732-2.9908 11.478-9.75l3.416-3.25h1.3117c0.72142 0 2.1679-0.94607 3.2143-2.1024 1.0464-1.1563 3.2537-2.7958 4.905-3.6434 1.6513-0.84757 4.0122-2.489 5.2465-3.6476 1.2343-1.1586 3.853-3.4566 5.8193-5.1066 1.9664-1.65 4.8496-4.2375 6.4071-5.75s3.3948-2.75 4.0828-2.75c1.6515 0 9.4464-5.6607 13.426-9.75 1.7395-1.7875 3.6829-3.25 4.3187-3.25h1.156l3.2761-5h1.8242 1.8242l4.8108-4.0174c2.646-2.2096 5.9407-5.1346 7.3216-6.5 1.3809-1.3654 3.0781-2.4826 3.7714-2.4826h1.2606l2.2081-4.8462 5.1402-1.2901 3.5544-2.8876c7.1977-5.8475 10.357-8.5343 12.906-10.976 1.4355-1.375 3.766-3.175 5.179-4 7.9039-4.6147 9.634-5.7667 12.766-8.5 1.8908-1.65 4.975-4.4625 6.8538-6.25l3.416-3.25h1.498 1.498l1.1796-3.074 3.1288-1.5993c2.8209-1.4419 7.6185-5.1876 13.129-10.25 1.1-1.0106 2.982-2.3408 4.1823-2.956l2.1823-1.1185 1.1946-3.764 5.6134-1.1227 4.4137-3.5587c2.4276-1.9573 5.5436-4.6833 6.9245-6.0578 1.3809-1.3745 3.0581-2.4991 3.727-2.4991h1.2162l3.2761-5h1.2904c1.6649 0 12.38-8.3846 20.128-15.75l3.4187-3.25h1.4315 1.4315l2.1425-4.0033 3.6227-1.5136c1.9925-0.83251 4.5637-2.4051 5.7139-3.4947 1.1502-1.0896 3.7938-3.5577 5.8746-5.4847l3.7833-3.5036h1.498 1.498l1.1796-3.074 3.1288-1.6017c3.8738-1.983 13.393-9.547 19.599-15.574 1.5575-1.5125 3.2838-2.75 3.836-2.75 0.55229 0 2.8893-1.575 5.1934-3.5 2.3041-1.925 4.5932-3.5 5.0869-3.5s2.1005-1.35 3.5707-3l2.673-3h2.6233l3.2761-5h1.2904c1.629 0 13.486-9.2336 19.378-15.091l2.6062-2.5908 7.2533-2.3938 1.7759-1.9624 1.7759-1.9624h7.3338 7.3338l12.022 9.1431v1.3937 1.3937l5.882 6.6992 0.70246 5.4352c0.38635 2.9894 1.7629 8.7116 3.059 12.716l2.3566 7.2809v95.938l4 4 507.5 0.0294 2.5 1.4512c1.375 0.79816 4.4772 2.3783 6.8937 3.5113l4.3937 2.0601 7.719 7.719 1.5666 3.7493c0.86157 2.0621 2.4406 4.9314 3.5087 6.3762l1.9422 2.6269-0.2619 121.13-0.2619 121.13-1.7538 1.9377c-0.9646 1.0658-2.4694 4.0379-3.344 6.6048-0.87463 2.5669-1.9366 4.6671-2.3599 4.6671s-1.9949 1.2253-3.4925 2.7229l-2.7229 2.7229-15.305 7.5542h-506.14l-3.8823 2.837-1 104.66-4.2265 10-0.70168 6.5-0.70167 6.5-1.8911 2c-1.0401 1.1-3.9098 4.1375-6.3771 6.75l-4.486 4.75-17.616-0.0632zm-11.891-68.358 2.1743-1.7607-0.0939-57.165-0.0939-57.165 6.7689-5.1629 527.79 0.1318 7.5407-6.6171 0.0398-188-7.5804-5.421-527.88-0.082-6.6101-4.5-7e-3 -56.295-7e-3 -56.295-5.0568-5.0568-0.90483 0.32387c-1.0271 0.36761-10.671 8.6861-15.737 13.574l-3.3683 3.25h-1.3117c-0.72143 0-2.1679 0.94607-3.2143 2.1024-1.0464 1.1563-3.2537 2.7958-4.905 3.6434-1.6513 0.84758-4.0122 2.489-5.2465 3.6476-1.2343 1.1586-3.853 3.4566-5.8193 5.1066-1.9664 1.65-4.8496 4.2375-6.4071 5.75l-2.8319 2.75-1.3488 0.01c-1.8879 0.0136-12.492 8.1462-19.688 15.1-1.4854 1.4353-3.6941 2.9249-4.9082 3.3102-2.2994 0.72979-8.9364 5.7744-13.263 10.081-1.3809 1.3745-3.0781 2.4991-3.7714 2.4991h-1.2606l-1.0518 2.3084-1.0518 2.3084-2.6768 1.1826c-4.6084 2.036-12.397 7.8484-19.028 14.201-1.4354 1.375-3.766 3.175-5.179 4-7.8922 4.6079-9.6367 5.7665-12.798 8.5-1.9081 1.65-4.6398 4.1627-6.0704 5.5837-1.4306 1.421-3.7261 3.1799-5.1011 3.9087s-3.088 2.1536-3.8067 3.1663l-1.3067 1.8413h-1.3825-1.3825l-4.8108 4.0502c-2.646 2.2276-6.0774 5.0401-7.6254 6.25s-4.0321 3.3741-5.5201 4.8094c-1.488 1.4353-3.6988 2.9249-4.9129 3.3102-2.2994 0.72979-8.9364 5.7744-13.263 10.081-1.3809 1.3745-3.0167 2.4991-3.635 2.4991h-1.1242l-3.2761 5h-1.3823c-1.7491 0-12.285 8.2068-20.22 15.75l-3.4187 3.25h-1.4315-1.4315l-2.1425 4.0033-3.6227 1.5136c-1.9925 0.83251-4.5637 2.4051-5.7139 3.4947-1.1502 1.0896-3.7938 3.5577-5.8746 5.4847l-3.7833 3.5036h-2.9961l-0.5898 1.537-0.58979 1.537-3.1288 1.6033c-3.4964 1.7917-7.9809 5.2129-13.203 10.073-1.9208 1.7875-3.937 3.25-4.4805 3.25h-0.98811l-1.1167 2.4509-1.1167 2.4509-5.4726 1.202-4.0352 4.3963-1.3347 6.3171 2.6127 1.8415c1.437 1.0128 4.4313 3.304 6.654 5.0915 2.2227 1.7875 4.6219 3.25 5.3316 3.25h1.2904l3.2761 5h1.2162c0.66889 0 2.346 1.1172 3.727 2.4826 1.3809 1.3654 4.6757 4.2904 7.3216 6.5l4.8108 4.0174h2.765l1.3067 1.8511c0.71868 1.0181 2.7692 2.6046 4.5567 3.5257l3.25 1.6746v0.96177c0 0.52898 1.6875 2.1055 3.75 3.5033 8.1107 5.4969 10.83 7.5082 12.785 9.456 1.1193 1.1152 2.5668 2.0276 3.2167 2.0276 0.64982 0 2.7199 1.4625 4.6002 3.25 3.329 3.1648 6.4159 5.8064 13.702 11.726l3.5544 2.8876 5.3195 1.3351 0.60322 1.9006c0.33178 1.0453 1.0351 1.9006 1.5629 1.9006 0.52781 0 2.41 1.3332 4.1826 2.9628 1.7726 1.6295 5.1816 4.5575 7.5756 6.5067l4.3526 3.544 4.6894 1.177 3.1514 4.8096h1.2162c0.66889 0 2.346 1.1172 3.727 2.4826 1.3809 1.3654 4.6757 4.2904 7.3216 6.5l4.8108 4.0174h3.6483l3.2761 5h1.1559c0.63577 0 2.7629 1.5966 4.727 3.5479 5.9157 5.8774 7.417 7.0926 11.071 8.9606 1.925 0.98412 4.088 2.6223 4.8067 3.6404l1.3067 1.8511h2.8199l3.7833 3.5036c2.0808 1.927 4.6833 4.335 5.7833 5.3511s3.8066 2.9783 6.0147 4.3604c2.2081 1.3821 4.6257 3.2491 5.3724 4.1489 0.74677 0.89981 1.9673 1.636 2.7123 1.636h1.3545l1.6381 2.5c0.90093 1.375 2.0608 2.5 2.5774 2.5s4.0672 2.692 7.89 5.9822l6.9506 5.9822 4.8847 1.226 3.1514 4.8096h1.2162c0.66889 0 2.346 1.1276 3.727 2.5058 4.073 4.0649 12.386 10.494 13.568 10.494 0.60171 0 2.1509 1.125 3.4426 2.5 1.2918 1.375 2.8007 2.5 3.3533 2.5s2.6116 1.5966 4.5757 3.5479c5.9157 5.8774 7.417 7.0926 11.071 8.9606 1.925 0.98412 4.088 2.6223 4.8067 3.6404l1.3067 1.8511h2.6677l6.3595 5.992c3.4977 3.2956 6.8721 5.9956 7.4987 6 0.62657 4e-3 2.1177-0.78429 3.3135-1.7526z" fill="#2afe31"/><path d="m432.23 834.19c-1.1-0.27801-3.272-1.5758-4.8267-2.884l-2.8267-2.3785-2.6733-0.0137c-1.4703-8e-3 -3.6442-0.27411-4.8308-0.59245l-2.1576-0.5788-0.49569-1.8955-0.49568-1.8955-5.0719-1.9284-2.1062-3.9356-6.7212-2.2182-4.6427-4.942h-3.7009l-0.95732-2.5179-0.95731-2.5179-4.9143-1.8684-2.1062-3.9356-6.7212-2.2182-4.6427-4.942h-3.7009l-1.9746-5.1935-3.7234-0.9737-4.3123-5.8328h-1.2958c-0.71266 0-2.3574-1.1301-3.6549-2.5112l-2.3592-2.5112-7.6303-2.0546v-3.7273l-5.8113-2.0258-1.322-4.1652-4.9134-1.2332-1.2267-1.727c-1.5833-2.2292-5.0329-4.0444-7.6857-4.0444h-2.0905l-1.9214-5.0537-4.1374-1.5305-1.2209-2.4579-1.2209-2.4579-4.3554-0.62671-1.2767-4.0224-8.3179-3.5917-1.905-2.1296-1.905-2.1296h-3.7395l-1.9746-5.1935-3.7234-0.9737-4.1724-5.6434-7.6503-1.2925-1.9298-4.3968-4.6078-0.65322-1.9163-5.0403-3.7234-0.9737-4.3123-5.8328h-1.29c-0.70947 0-2.802-1.35-4.6502-3l-3.3602-3h-4.6893l-0.95732-2.5179-0.95731-2.5179-4.8647-1.8496-0.63672-2.0061-0.63672-2.0061-2.1788-0.6915c-1.1983-0.38033-3.3808-1.9784-4.8501-3.5512l-2.6713-2.8596-2.3488-0.0153c-3.0807-0.0201-4.5326-1.0333-4.9933-3.4847l-0.3759-2-4.5926-0.65391-2.2299-4.894-4.5518-1.1424-3.0972-4.7269-7.6201-2.283-0.944-2.1498-0.944-2.1498-4.6078-0.65322-1.9163-5.0403-3.7234-0.9737-4.3123-5.8328h-2.8705l-6.8336-6h-4.2855l-1.9746-5.1935-3.7234-0.9737-4.3123-5.8328h-2.8705l-6.8336-6h-4.2855l-0.95732-2.5179-0.95731-2.5179-4.8647-1.8496-1.3044-4.1099-4.7614-1.195-3.0972-4.7269-7.8034-2.3379-2.1619-4.7448h-3.9338l-2.6091-5.4154-2.0001-0.54229c-2.2809-0.61842-5.1348-3.028-13.671-11.542l-6.0153-6-1.9132-5.2243-4.63-2.1096-0.9831-10.231-4.6825-4.9842-0.05243-5.6408-0.05243-5.6408 1.271-0.42483c0.69907-0.23366 1.9366-1.7118 2.75-3.2848l1.479-2.86v-9.1488l5.1935-1.9746 0.48685-1.8617 0.48685-1.8617 2.9164-2.1562c1.604-1.1859 2.9164-2.6077 2.9164-3.1596 0-1.4823 6.3895-7.6082 8.7007-8.3417l1.9958-0.63345 1.0952-2.4038 1.0953-2.4038 4.613-0.65391 0.63372-4.4589 7.9711-2.1464 4.1154-4.7331 4.6465-1.1662 1.3044-4.1099 4.8647-1.8496 0.95731-2.5179 0.95732-2.5179h2.0314 2.0314l4.3035-4.9494 6.6987-2.2108 2.1062-3.9356 4.9143-1.8684 0.95731-2.5179 0.95732-2.5179h3.2855l6.8336-6h1.9353 1.9353l4.3123-5.8328 3.7234-0.9737 1.9163-5.0403 4.5873-0.65322 0.3759-2c0.46073-2.4514 1.9126-3.4646 4.9933-3.4847l2.3488-0.0153 2.6713-2.8596c1.4692-1.5728 3.6517-3.1708 4.8501-3.5512l2.1788-0.69151 1.2734-4.0123 4.8647-1.8496 0.95731-2.5179 0.95732-2.5179h3.1235 3.1235l2.6713-2.8596c1.4692-1.5728 3.6517-3.1708 4.8501-3.5512l2.1788-0.69151 1.2734-4.0123 4.8647-1.8496 0.95731-2.5179 0.95732-2.5179h2.3446 2.3446l3.3602-3c1.8481-1.65 3.9407-3 4.6502-3h1.29l4.3123-5.8328 3.7234-0.9737 1.9746-5.1935h2.0462 2.0462l1.0988-2.4116 1.0988-2.4116 8.696-2.1897 1.0926-2.0415 1.0926-2.0415 4.9143-1.8684 1.8564-4.8826 4.6078-0.65322 0.944-2.1498 0.944-2.1498 7.6201-2.283 3.0972-4.7269 4.7614-1.195 1.3044-4.1099 4.8647-1.8496 0.95731-2.5179 0.95732-2.5179h2.3504 2.3504l4.6427-4.942 6.6103-2.1816 1.2667-3.991 4.8647-1.8496 0.95731-2.5179 0.95732-2.5179h4.6893l3.3602-3c1.8481-1.65 3.9407-3 4.6502-3h1.29l4.3123-5.8328 3.7234-0.9737 1.9163-5.0403 4.6078-0.65322 0.944-2.1498 0.944-2.1498 7.6201-2.283 1.5719-2.399 1.5719-2.399 4.298-0.61919 1.2403-2.5 1.2403-2.5 4.5695-1.0653 1.888-4.2343 7.6201-2.283 3.0972-4.7269 4.7614-1.195 1.322-4.1652 5.8113-2.0258v-1.7952-1.7952l1.5818-0.60699c0.86998-0.33385 2.7106-0.60699 4.0902-0.60699h2.5084l5.2649-6h11.109l2.6528 2.75c1.4591 1.5125 4.3028 4.1 6.3195 5.75l3.6666 3 0.95298 2.6122 0.95298 2.6122 4.625 2.1073 0.95332 19.668 4.3222 9.7542v45.308 45.308l1.9404 5.1036 508.9 0.52662 2.3786 2.2346 2.3786 2.2346 6.9038 1.326 12.462 12.205 0.0189 1.7997c0.0257 2.4485 2.6857 7.4226 4.2479 7.9434l1.2711 0.42379v237.17l-4.3781 4.6608-1.9044 8.4781-3.7677 3.261c-2.0722 1.7935-4.6773 4.2734-5.7891 5.511l-2.0214 2.25h-2.3693c-2.9042 0-7.9367 2.5-8.513 4.229l-0.42364 1.271-509.39 0.52662-1.9404 5.1036v95.447l-1.9279 3.7815-1.9279 3.7815-0.61437 6.68c-0.33791 3.674-0.8548 8.7609-1.1487 11.304l-0.53428 4.6244-4.8469 2.2084v4.0924l-5.1935 1.9746-0.48929 1.8711-0.4893 1.8711-3.6639 0.60587c-4.1067 0.67909-7.689 0.64228-10.664-0.10959zm-14.467-69.792 1.9514-1.766 0.258-58.102 0.25799-58.102 530.75-0.50372 9.8342-10.15-0.27694-187.04-1.655-1.4007c-0.91024-0.77036-3.1842-2.7526-5.0533-4.405l-3.3983-3.0043h-529.59l-1.1708-1.8944-0.22361-56.399-0.22362-56.399-1.5-1.8084c-0.825-0.99461-2.9728-2.424-4.7728-3.1764l-3.2728-1.368-3.8189 2.0438-0.615 1.9377-0.61501 1.9377-4.3867 0.62671-2.5247 5.2847-2.497 0.62672-2.497 0.62671v3.8848l-8.1048 2.1824-4.1154 4.7332-4.6465 1.1662-1.3044 4.1099-4.8647 1.8496-0.95732 2.5179-0.95732 2.5179h-2.0314-2.0314l-4.3034 4.9494-6.6987 2.2108-2.1062 3.9356-4.9143 1.8684-0.95732 2.5179-0.95732 2.5179h-4.0627l-4.3034 4.9494-6.6987 2.2108-2.1062 3.9356-4.9143 1.8684-0.95732 2.5179-0.95732 2.5179h-2.0462-2.0462l-2.1619 4.7448-7.8033 2.3379-3.0972 4.7269-4.7614 1.195-1.3044 4.1099-4.8647 1.8496-0.95732 2.5179-0.95732 2.5179h-3.1235-3.1235l-2.6713 2.8596c-1.4692 1.5728-3.6517 3.1708-4.85 3.5512l-2.1788 0.6915-1.2734 4.0123-4.8647 1.8496-0.95732 2.5179-0.95732 2.5179h-2.1427-2.1427l-6.8336 6h-2.8705l-4.3124 5.8328-3.7234 0.9737-1.9163 5.0403-4.6078 0.65322-0.91706 2.0873-0.91707 2.0873-8.579 2.2945-2.2085 4.1266-4.9143 1.8684-0.95732 2.5179-0.95732 2.5179h-4.0924l-2.1619 4.7448-7.8033 2.3379-3.0972 4.7269-4.7614 1.195-1.3044 4.1099-4.8647 1.8496-0.95732 2.5179-0.95732 2.5179h-4.7009l-4.6427 4.942-6.6103 2.1816-1.2667 3.991-4.8647 1.8496-0.95732 2.5179-0.95732 2.5179h-2.3446-2.3446l-3.3602 3c-1.8481 1.65-3.9407 3-4.6502 3h-1.29l-4.3124 5.8328-3.7234 0.9737-1.9746 5.1935h-4.099l-1.8627 4.8993-8.0146 2.1581-3.0732 4.3876v7.4121l1.5714 1.5714c0.86429 0.86429 2.1625 1.5714 2.885 1.5714h1.3136l3.2219 4.9173 7.6201 2.283 0.944 2.1498 0.944 2.1498 4.6078 0.65322 1.9163 5.0403 3.7234 0.9737 4.3124 5.8328h2.8705l6.8336 6h4.2855l1.9746 5.1935 3.7234 0.9737 4.3124 5.8328h1.29c0.70947 0 2.802 1.35 4.6502 3l3.3602 3h4.6893l1.9146 5.0359 4.8647 1.8496 1.3044 4.1099 4.7614 1.195 3.0972 4.7269 7.8033 2.3379 2.1619 4.7448h4.0924l1.9146 5.0359 4.9143 1.8684 2.2085 4.1267 8.579 2.2945 0.91707 2.0873 0.91706 2.0873 4.6078 0.65322 1.9163 5.0403 3.7234 0.9737 4.3124 5.8328h3.8705l6.8336 6h3.2855l1.9146 5.0359 4.8647 1.8496 0.62643 1.9737 0.62643 1.9737 2.7866 0.9714c1.5326 0.53428 4.0549 2.1469 5.6052 3.5836l2.8186 2.6122h4.7574l1.9146 5.0359 4.8647 1.8496 1.3044 4.1099 4.7614 1.195 3.0972 4.7269 7.8033 2.3379 2.1619 4.7448h3.9338l2.6279 5.5 4.2073 0.60319 2.2292 4.8925 8.7107 2.3298 0.91707 2.0873 0.91706 2.0873 4.6078 0.65322 1.8564 4.8826 5.0871 1.9341 1.1954 3.1152 3.6267 1.851c1.9947 1.018 4.4839 2.7989 5.5316 3.9574l1.905 2.1064h4.7395l1.9146 5.0359 4.8647 1.8496 1.2734 4.0123 2.1988 0.68608c1.2094 0.37734 3.677 1.9754 5.4836 3.5512l3.2848 2.8651h4.9799l1.9146 5.0359 5.0359 1.9146v1.3248c0 0.72861 0.5625 1.9028 1.25 2.6092l1.25 1.2844 8.5812-0.93234z" fill="#02fe0a"/></svg>
