<?xml version="1.0" encoding="UTF-8"?>
<!-- Created with Inkscape (http://www.inkscape.org/) -->
<svg width="1080" height="1080" version="1.1" viewBox="0 0 1080 1080" xmlns="http://www.w3.org/2000/svg">
 <g transform="translate(2.6799)">
  <path d="m636.21 832.95c-1.2582-0.50508-4.2956-2.5968-6.7498-4.6482l-4.4621-3.7298-0.53977-1.7007c-0.29688-0.93538-1.872-3.377-3.5002-5.426l-2.9605-3.7253v-5.0746l-5.4043-15.15-0.7922-101.42-2.4853-2.0626-508.82-0.51915-14-7.6314-8.5-8.7959v-1.2326c0-0.67794-1.2375-3.0184-2.75-5.2009l-2.75-3.9683v-245.34l2.75-3.9682c1.5125-2.1825 2.75-4.5166 2.75-5.1868 0-0.67023 1.8324-3.2065 4.072-5.6362l4.072-4.4176 14.356-7.6201 508.82-0.51915 1.2454-1.0336 1.2454-1.0336 0.42548-52.707 0.42549-52.707 2.67-7.7809c1.4685-4.2795 2.67-8.6966 2.67-9.8157 0-3.492 1.3524-5.4445 9.8292-14.191l3.6708-3.7876 4.72-1.1968 14.549 1.1004 4.8575 2.5858c2.6716 1.4222 5.4797 2.5858 6.2402 2.5858h1.3826l8.4374 6.25c4.6406 3.4375 11.546 8.725 15.346 11.75s9.2137 7.075 12.031 9c2.8178 1.925 8.1642 5.975 11.881 9s10.464 8.2 14.993 11.5 11.234 8.5231 14.899 11.607c3.6648 3.0838 8.0143 6.3002 9.6656 7.1476 1.6513 0.84742 3.8585 2.4868 4.905 3.6431 1.0464 1.1563 2.3905 2.1024 2.9868 2.1024 0.59633 0 2.2141 1.1041 3.595 2.4536 4.391 4.2909 10.346 9.1278 15.876 12.895 2.9506 2.0102 6.7756 4.8078 8.5 6.2169 14.583 11.917 17.838 14.435 18.659 14.435 0.51782 0 2.1868 1.0974 3.7088 2.4387 4.8772 4.2981 9.6053 8.0452 16.267 12.892 3.575 2.601 7.4 5.3906 8.5 6.1992 1.1 0.80861 5.15 4.1022 9 7.3191 3.85 3.2169 8.973 7.1544 11.384 8.7499 8.3459 5.5221 9.1737 6.1116 10.891 7.7557 2.9272 2.8029 10.414 8.6764 12.447 9.764 1.0613 0.56799 2.7768 1.7862 3.8122 2.707 1.0354 0.92087 3.8138 3.1596 6.1743 4.9751 2.3605 1.8154 7.5728 5.9779 11.583 9.25 4.0102 3.2721 7.6977 5.9492 8.1945 5.9492 0.4968 0 4.2793 2.8125 8.4056 6.25 9.3193 7.7636 16.035 12.75 17.171 12.75 0.47684 0 1.7828 0.89375 2.9021 1.9861 2.958 2.8867 10.568 9.0534 15.443 12.514 4.3477 3.0862 10.689 7.9068 15.092 11.473 7.925 6.4185 9.735 7.8255 12 9.3279 10.882 7.2177 18.393 16.091 25.14 29.699l4.2146 8.5 0.086 18-2.7204 5.2168c-1.4962 2.8692-2.7204 5.8653-2.7204 6.658v1.4412l-8.1789 9.592c-4.4984 5.2756-8.4678 9.592-8.821 9.592s-4.2994 3.0375-8.7694 6.75c-4.47 3.7125-9.613 7.789-11.429 9.0588-7.1352 4.9894-13.823 10.079-20.059 15.266-3.5869 2.9836-8.8348 6.9998-11.662 8.9248s-8.3177 6.0875-12.201 9.25c-3.8836 3.1625-7.4294 5.75-7.8797 5.75-0.9067 0-14.067 10.425-18 14.259-1.375 1.3403-3.9625 3.1919-5.75 4.1147s-3.25 2.044-3.25 2.4916c0 0.44759-1.0125 1.2762-2.25 1.8413-2.3696 1.0821-9.7792 6.8361-13.375 10.386-1.1685 1.1538-3.0166 2.6174-4.107 3.2526-6.7666 3.9415-15.807 10.8-26.484 20.093-0.94379 0.82142-3.4188 2.5874-5.5 3.9244-3.45 2.2163-8.5586 6.2628-18.406 14.579-1.9919 1.6822-3.8993 3.0585-4.2388 3.0585-0.33949 0-3.3662 2.1375-6.7261 4.75s-7.0774 5.4066-8.2612 6.209c-1.9292 1.3078-7.2628 5.5756-11.827 9.4633-0.92086 0.78446-2.5426 1.891-3.6039 2.459-1.0613 0.56798-3.9078 2.6425-6.3257 4.61-2.4178 1.9675-5.6626 4.5743-7.2106 5.793-1.548 1.2186-4.0911 3.4532-5.6512 4.9657s-3.2307 2.75-3.7123 2.75c-0.86668 0-8.7578 5.7055-14.995 10.842-3.7008 3.0476-5.3544 4.2978-14.327 10.832-5.5522 4.0433-16.364 12.685-22.174 17.723-0.92086 0.7985-2.7209 2.0019-4 2.6742-1.2791 0.67229-3.7765 2.3938-5.5496 3.8257-1.7732 1.4318-5.2795 4.1784-7.7918 6.1034s-5.415 4.2534-6.4504 5.1743c-1.0354 0.92086-2.8347 2.1839-3.9984 2.8067-1.1637 0.62282-5.1353 3.7029-8.8257 6.8447s-7.8348 6.2963-9.2098 7.0101-4.075 2.167-6 3.2294l-3.5 1.9316-13-0.1236z" fill="#5dfe62"/>
  <path d="m637 832.27c-0.825-0.31248-2.9782-1.852-4.7848-3.421-1.8066-1.5691-3.7131-2.8529-4.2366-2.8529h-0.95178l-1.3808-3.25c-0.75945-1.7875-2.4977-4.4375-3.8627-5.8889l-2.4818-2.6389-0.64031-5.3611-0.6403-5.3611-2.2191-5.5-2.2191-5.5-0.54134-50.668-0.54133-50.668-1.6665-1.6634-510.67-1-2.8337-2.0553c-1.5585-1.1304-4.3894-2.6861-6.2908-3.4571l-3.4571-1.4018-7.1716-7.1716-1.4018-3.4571c-0.771-1.9014-2.3267-4.7323-3.4571-6.2909l-2.0553-2.8338v-243.66l2.0777-2.8338c1.1427-1.5586 2.5693-4.2603 3.1701-6.0039l1.0925-3.1701 7.7977-7.7977 4.431-1.7649c2.4371-0.97069 5.2657-2.5146 6.2859-3.431l1.8549-1.6661 510.62-1 1.6665-1.6637 0.53562-52.668 0.53563-52.668 1.8196-4.5c1.0008-2.475 2.397-7.5675 3.1027-11.317l1.283-6.8167 2.3396-2.6833c1.2868-1.4758 4.3542-4.6464 6.8166-7.0458l4.477-4.3625 17.579 0.84044 5.9932 4.4309 6.5183 1.2175 2.5 2.1457c4.4641 3.8314 10.442 8.2355 13 9.5773 1.375 0.72128 3.4 2.1512 4.5 3.1775 5.265 4.9124 11.844 9.9038 18.897 14.336 1.7504 1.1 4.0647 2.8132 5.143 3.8072 4.7864 4.4123 16.761 13.797 19.24 15.079 1.4986 0.77495 3.5809 2.3551 4.6274 3.5114 1.0464 1.1563 2.3469 2.1024 2.8899 2.1024 0.543 0 2.3858 1.3449 4.095 2.9887 6.2847 6.044 9.1815 8.3078 12.358 9.6573l3.25 1.3808v2.016l2.75 1.1737c1.5125 0.64555 3.9306 2.3234 5.3737 3.7286 6.2088 6.0459 14.854 12.917 19.001 15.102 1.3064 0.68823 3.2753 2.1124 4.3753 3.1648 1.1 1.0524 5.5847 4.8103 9.966 8.3509l7.966 6.4374h3.4318l2.1362 3c1.1749 1.65 2.5911 3 3.147 3s3.5628 2.1939 6.6819 4.8752c3.1191 2.6814 7.6441 6.1689 10.056 7.75 8.1616 5.3513 9.0374 5.9986 11.417 8.4386 4.1007 4.205 14.369 11.975 18.699 14.149 1.375 0.69042 3.6677 2.3876 5.0949 3.7714 3.88 3.7622 7.9764 7.036 11.913 9.5211 1.9368 1.2226 4.1324 2.9592 4.8792 3.859 0.74678 0.89981 1.8603 1.636 2.4745 1.636s2.2466 1.1238 3.6276 2.4972c4.3741 4.3504 17.413 14.727 19.963 15.887 1.3488 0.61357 3.5418 2.0726 4.8732 3.2423 6.7185 5.9024 9.106 7.8524 14.025 11.455 2.9427 2.1552 5.7348 3.9185 6.2046 3.9185 0.46977 0 2.055 1.0695 3.5228 2.3768 7.0611 6.2886 14.54 12.284 21.36 17.123 4.7539 3.3731 12.544 9.5772 15.562 12.394 1.1 1.0266 3.125 2.4313 4.5 3.1216 2.6658 1.3383 5.4236 3.7205 12.852 11.102 5.5247 5.4897 8.427 9.961 13.828 21.303l2.8196 5.9209v16.158l-2.1421 3.5c-1.1782 1.925-2.47 5.075-2.8706 7l-0.7285 3.5-5.2157 6c-2.8686 3.3-6.0013 7.2148-6.9614 8.6996l-1.7456 2.6996-3.168 1.8839c-3.5688 2.1222-7.722 5.4634-11.593 9.3266-1.4383 1.4353-3.619 2.9283-4.846 3.3177l-2.231 0.70808-2.0682 3.8646h-1.2331c-1.5139 0-10.556 7.0796-20.481 16.036-1.8065 1.6302-3.772 2.9639-4.368 2.9639s-2.5937 1.2375-4.4395 2.75-5.4034 4.325-7.9058 6.25-5.9046 4.7375-7.5605 6.25-3.573 2.75-4.2602 2.75c-1.2905 0-15.976 11.699-18.741 14.929-0.85794 1.0024-2.8829 2.5725-4.5 3.4891-5.4348 3.0805-14.925 10.257-19.355 14.636-1.4216 1.4052-3.7096 3.1023-5.0846 3.7714-4.2171 2.0522-14.526 9.8315-18.699 14.11-1.3067 1.3399-3.4235 3.1399-4.704 4-1.2806 0.86009-4.3013 2.8738-6.7128 4.4748-5.0984 3.385-16.249 12.366-19.922 16.047-1.3957 1.3984-2.9892 2.5425-3.5411 2.5425s-3.9099 2.2571-7.4624 5.0157c-3.5524 2.7586-7.5839 5.7939-8.9589 6.745s-3.3202 2.744-4.3226 3.9843l-1.8226 2.255h-1.305c-0.71773 0-1.916 0.7362-2.6627 1.636-0.74677 0.8998-2.9424 2.6363-4.8792 3.859-4.3674 2.757-8.5161 6.1641-11.878 9.755-1.4162 1.5125-3.08 2.75-3.6972 2.75s-1.9785 0.94607-3.025 2.1024c-1.0464 1.1563-3.2537 2.7937-4.905 3.6387-2.9012 1.4845-7.992 5.3364-11.884 8.9918-2.1597 2.0285-6.3681 5.122-12.118 8.908-4.7238 3.1102-15.933 12.178-19.538 15.806-1.3957 1.4045-2.8543 2.5536-3.2414 2.5536s-2.8451 1.5665-5.4624 3.481-6.472 4.7271-8.5662 6.25c-2.0941 1.5229-4.981 4.0065-6.4153 5.519s-3.1533 2.75-3.82 2.75-1.8232 0.7362-2.57 1.636c-0.74677 0.8998-2.9424 2.6363-4.8792 3.859-3.9936 2.5211-8.1475 5.8797-11.657 9.4254-1.3177 1.3312-4.0731 3.2554-6.1232 4.2761-2.0501 1.0206-4.8525 2.5124-6.2275 3.3149l-2.5 1.4592-6.5-0.0642c-3.575-0.0353-7.175-0.31987-8-0.63236z" fill="#3cfe41"/>
  <path d="m633.16 825.19c-1.4654-1.4911-4.2779-3.9929-6.25-5.5595l-3.5857-2.8485v-2.9158l-5.7441-5.3873-1.0779-15-1.6851-4.5c-0.92678-2.475-2.059-6.75-2.516-9.5l-0.83094-5-0.146-88.1-2.4-2.4h-507.14l-3.6036-2.4487c-1.982-1.3468-4.8989-2.7514-6.4821-3.1214l-2.8786-0.6727-11.327-11.024-1.1974-6.383-4.4751-4.8032-0.26215-118.46-0.26215-118.46 2.4213-3.6589c1.3317-2.0124 2.8754-5.3035 3.4304-7.3136l1.0091-3.6547 10.442-9.508 3.7936-1.1247c2.0865-0.61859 5.0094-2.0811 6.4955-3.25l2.7019-2.1253h507.49l2.1246-2.5599 0.39629-49.97 0.39628-49.97 2.2554-5.9856 2.2554-5.9856 1.6026-15.897 5.2143-3.7984v-2.8761l4.7795-2.1777 1.1451-2.5133 1.1451-2.5133 16.814 0.88253 1.8474 2.2814 1.8474 2.2814 9.2206 1.0393 2.1302 2.8812 2.1302 2.8812h2.7101l3.0212 4.611 8.1717 2.6969 1.1188 3.525 5.7296 1.9974 1.322 4.1652 2.3807 0.59752 2.3807 0.59753 1.4482 2.2103 1.4482 2.2103 8.1717 2.6969 1.1188 3.525 5.7296 1.9974 0.64549 2.0338 0.64548 2.0338 2.1983 0.69771c1.2091 0.38374 3.3236 1.7977 4.6988 3.142s4.4556 3.9784 6.8452 5.8534l4.3446 3.4091h3.8536l2.3 5.048 4.4062 1.1059 2.129 4.6727 2.311 0.72165c1.271 0.39691 3.7891 2.011 5.5958 3.5867l3.2848 2.8651h3.9733l2.3 5.048 4.5854 1.1509 0.62257 1.9615 0.62257 1.9616 2.3992 1.0932c1.3196 0.60125 3.0336 2.0613 3.8089 3.2445l1.4096 2.1514 8.1717 2.6969 0.56968 1.7949 0.56967 1.7949 2.1988 0.6659c2.0224 0.61247 3.4093 1.7697 10.763 8.9806l2.5641 2.5144 7.6001 2.0985 0.48603 1.8586 0.48602 1.8586 5.611 1.956 1.322 4.1652 4.9195 1.2347 2.0065 3.7492 3.1316 1.6194c1.7224 0.89069 4.292 2.6954 5.7101 4.0104l2.5785 2.3909h3.5633l2.3 5.048 4.5854 1.1509 0.6067 1.9116 0.60671 1.9116 2.9823 1.5422c1.6403 0.84822 3.8724 2.4323 4.9604 3.5203l1.9781 1.9781 6.094 1.2188 1.7728 4.6628 2.4995 0.62734 2.4995 0.62735 0.6067 1.9116 0.60671 1.9116 2.6815 1.3867c1.4748 0.76266 3.5223 2.3158 4.55 3.4514l1.8686 2.0647 6.5943 2.1763 1.605 2.4495 1.605 2.4495h1.2543c0.68984 0 2.4502 1.2375 3.912 2.75 5.8732 6.077 13.776 12.056 19.465 14.725l3.1772 1.4909 1.2789 4.0293 4.9195 1.2347 2.0141 3.7634 3.7166 1.8968c2.0441 1.0433 4.5738 2.8448 5.6216 4.0033l1.905 2.1064h3.7329l2.2328 4.9004 5.7243 1.9955v3.1535l2.5842 0.9825c1.4213 0.54038 3.9309 2.3292 5.5769 3.9752l2.9928 2.9928h3.71l4.2724 6h3.729l1.2235 3.8548 3.2057 2.0558c6.6236 4.2478 11.874 8.7541 16.221 13.921l4.485 5.3317v2.8862l5 1.901v2.9596c0 3.9039 1.6779 8.2773 3.7906 9.8796l1.7005 1.2898v13.462l-2.1389 2.2985-2.1388 2.2985-0.6112 3.0557c-0.3361 1.6807-0.6111 4.0243-0.6111 5.2081v2.1523l-2.75 2.6074c-1.5125 1.4341-5.45 5.6279-8.75 9.3197l-6 6.7123-5.3583 2.784-0.60671 1.9116-0.6067 1.9116-2.4995 0.62735-2.4995 0.62734-0.93988 2.4721-0.93098 2.4721h-3.9799l-3.3764 2.9645c-1.857 1.6305-4.5727 3.4194-6.0348 3.9752l-2.6584 1.0107v3.1535l-5.9183 2.0631-1.2704 4.0026-5.7296 1.9974-1.1188 3.525-8.1717 2.6969-1.4482 2.2103-1.4482 2.2103-2.3807 0.59753-2.3807 0.59752-1.322 4.1652-5.7296 1.9974-1.1724 3.6938-6.1984 1.3614-3.6055 3.3564c-1.983 1.846-4.7305 4.4294-6.1055 5.7407-1.375 1.3114-3.2942 2.6644-4.265 3.0067l-1.765 0.62246-1.9205 5.0512h-4.8603l-4.1892 3.5c-2.3041 1.925-4.6063 3.5-5.116 3.5-0.50976 0-1.4236 1.0904-2.0309 2.4231l-1.104 2.4231-4.4062 1.1059-2.1704 4.7634-6.11 1.222-1.9781 1.9781c-1.0879 1.0879-3.3201 2.6721-4.9604 3.5203l-2.9823 1.5422-0.60671 1.9116-0.6067 1.9116-4.5854 1.1509-2.3 5.048-3.5429 0.032-3.3855 2.984c-1.862 1.6412-3.7895 2.984-4.2833 2.984-0.81021 0-3.3571 2.1914-10.831 9.3196-1.375 1.3114-3.3302 2.6782-4.3449 3.0374l-1.8449 0.65313-0.51968 1.9873-0.51969 1.9873-8.2708 2.1854-2.7568 2.665c-1.5163 1.4658-3.979 3.9025-5.4727 5.415-1.4937 1.5125-3.2802 2.75-3.9701 2.75h-1.2543l-1.605 2.4495-1.605 2.4495-6.5943 2.1763-1.8686 2.0647c-1.0277 1.1356-3.0752 2.6887-4.55 3.4514l-2.6815 1.3867-0.60671 1.9116-0.6067 1.9116-4.5854 1.1509-2.3 5.048h-3.7329l-3.81 4.2904-8.5 3.8032v3.0104l-5.7243 1.9955-2.2328 4.9004h-3.5633l-2.5785 2.3909c-1.4182 1.315-3.9877 3.1197-5.7101 4.0104l-3.1316 1.6194-2.0065 3.7492-4.7099 1.1821-2.3 5.048h-2.9968l-1.589 2.4252-1.589 2.4252-3.0314 1.0568c-3.0486 1.0627-8.1652 4.8625-12.874 9.561-1.3957 1.3926-3.0728 2.5319-3.727 2.5319h-1.1893l-1.605 2.4495-1.605 2.4495-6.5943 2.1763-1.8686 2.0647c-1.0277 1.1356-3.0752 2.6887-4.55 3.4514l-2.6815 1.3867-0.60671 1.9116-0.6067 1.9116-4.5854 1.1509-2.171 4.7648-8.1377 1.3013-3.2642 4.9818-13.27-0.0778z" fill="#02fe0a"/>
 </g>
</svg>
