<?xml version="1.0" encoding="UTF-8"?>
<!-- Created with Inkscape (http://www.inkscape.org/) -->
<svg width="1080" height="1080" version="1.1" viewBox="0 0 1080 1080" xml:space="preserve" xmlns="http://www.w3.org/2000/svg"><g transform="translate(-1.5049)"><path d="m434.56 837.04-5.5452-0.63698-2.7752-1.8192c-1.5264-1.0006-4.4867-2.423-6.5784-3.1611l-3.8032-1.3418-7.2106-5.3389c-3.9658-2.9364-10.228-7.8658-13.915-10.954s-8.0383-6.3048-9.6681-7.1476-3.8196-2.4785-4.866-3.6348c-1.0464-1.1563-2.3292-2.1024-2.8506-2.1024-0.52139 0-4.0106-2.5875-7.7537-5.75-6.1605-5.2048-16.852-13.435-22.358-17.211-1.1718-0.80359-4.6055-3.55-7.6305-6.1031-3.025-2.5531-7.3-5.8322-9.5-7.2868-9.9582-6.5844-11.5-7.7327-11.5-8.5648 0-0.48767-1.4625-1.8285-3.25-2.9797-5.0078-3.225-22.451-16.476-32.052-24.347-3.191-2.6164-6.2436-4.7572-6.7833-4.7572s-2.5197-1.4625-4.3997-3.25c-3.4557-3.2856-6.5272-5.6763-16.515-12.855-5.8681-4.2175-6.9179-5.0368-17-13.267-3.575-2.9184-8.473-6.6161-10.884-8.2171-2.4115-1.601-5.4322-3.6147-6.7128-4.4748s-3.397-2.6601-4.7033-4-4.9651-4.2362-8.1308-6.4362-6.5764-4.675-7.5792-5.5c-1.0028-0.825-4.1545-3.3-7.0037-5.5-2.8492-2.2-8.3864-6.5875-12.305-9.75-3.9186-3.1625-7.4563-5.75-7.8615-5.75s-3.8711-2.5875-7.7019-5.75-9.2821-7.325-12.114-9.25-6.1118-4.4-7.2887-5.5c-1.1769-1.1-3.1267-2.675-4.3329-3.5-4.1762-2.8564-25.89-19.416-27.882-21.263-1.1-1.0203-4.025-3.386-6.5-5.257-10.462-7.9093-13.223-10.188-16.948-13.991-5.4695-5.5833-8.3625-9.8002-12.684-18.489l-3.7304-7.5-0.82443-19.483 2.0175-4.2587c1.1096-2.3423 2.7125-5.9672 3.5618-8.0552l1.5443-3.7965 7.6575-8.9535c4.2116-4.9244 7.9707-8.9535 8.3535-8.9535 0.38276 0 4.1507-2.8125 8.3731-6.25 7.5268-6.1276 10.102-8.1114 20.179-15.546 2.75-2.0287 7.925-6.0386 11.5-8.9108 11.712-9.4098 12.474-9.9837 15-11.3 1.375-0.7166 5.2499-3.7083 8.6109-6.6483s6.5236-5.3454 7.028-5.3454c0.85674 0 10.984-7.8478 19.674-15.245 2.0969-1.7851 4.5719-3.6686 5.5-4.1856 0.92807-0.51697 2.1946-1.4191 2.8146-2.0047 0.61998-0.58563 3.7305-2.8648 6.9122-5.0648 3.1818-2.2 6.8538-5.0963 8.16-6.4362 1.3062-1.3399 3.4227-3.1399 4.7033-4 1.2806-0.8601 4.3013-2.8738 6.7128-4.4748 3.8007-2.5234 7.4578-5.3979 19.884-15.629 3.0967-2.5496 15.497-11.943 18.375-13.919 1.1687-0.80246 3.7612-2.8275 5.7612-4.5 2-1.6725 7.3535-5.741 11.897-9.041s9.9179-7.35 11.944-9c4.0048-3.2616 6.6206-5.2362 15.023-11.341 5.3058-3.8549 8.378-6.3588 14.272-11.632 1.5247-1.3641 3.7155-2.985 4.8685-3.6021 1.153-0.61706 4.7808-3.2151 8.0617-5.7734s7.0765-5.3797 8.4347-6.2699c1.3581-0.89015 3.3248-2.4652 4.3703-3.5 1.0455-1.0348 4.2217-3.4565 7.0581-5.3815s8.4714-6.2 12.522-9.5c7.167-5.8388 8.7929-7.0937 20.507-15.829 7.929-5.9126 13.324-10.069 13.906-10.714 0.275-0.30463 2.075-1.6351 4-2.9567s6.285-4.6749 9.6889-7.4518c3.4039-2.777 7.8823-6.1012 9.952-7.3871l3.7631-2.3381 11.324-1.8236 10.346 1.9621 9.0985 7.5378 2.1638 3.8359c5.0723 8.992 5.6607 10.269 5.6622 12.287 8.6e-4 1.1676 1.0141 4.3176 2.2516 7l2.25 4.8771 1 104.4 2.5998 2.5974 510.4 1 13.041 7.4313 6.3156 6.5687 3.5717 6.7644 3.5716 6.7644v243.94l-3.5697 6.7644-3.5698 6.7644-7.0216 7.2493-12.339 6.7507-510.4 1-1.2999 1.2987-1.2999 1.2987-1.0269 108.4-2.1144 5c-1.1629 2.75-2.4337 6.911-2.8239 9.2467l-0.70947 4.2467-2.6626 3.1672c-1.4645 1.742-4.4627 4.8878-6.6627 6.9908l-4 3.8236-2.125 0.0125c-1.1688 7e-3 -3.4188 0.1866-5 0.39944-1.5812 0.21283-5.3704 0.10033-8.4202-0.25z" fill="#7dfe81"/><path d="m431.25 834.87c-1.5716-0.47097-3.6261-1.552-4.5656-2.4022l-1.7082-1.5459-6.8688-1.2876-2.5-2.1457c-4.4641-3.8314-10.442-8.2355-13-9.5773-1.375-0.72128-3.4-2.1512-4.5-3.1775-5.265-4.9124-11.844-9.9038-18.897-14.336-1.7504-1.1-4.0647-2.8132-5.143-3.8072-4.7864-4.4123-16.761-13.797-19.24-15.079-1.4986-0.77496-3.5809-2.3551-4.6273-3.5114-1.0464-1.1563-2.3469-2.1024-2.8899-2.1024-0.54301 0-2.3858-1.3449-4.095-2.9887-6.2847-6.044-9.1815-8.3078-12.358-9.6573l-3.25-1.3808v-2.016l-2.75-1.1737c-1.5125-0.64555-3.9306-2.3234-5.3737-3.7286-6.2088-6.0459-14.854-12.917-19.001-15.102-1.3064-0.68823-3.2753-2.1124-4.3753-3.1648-1.1-1.0524-5.5847-4.8103-9.966-8.3509l-7.966-6.4374h-3.4318l-2.1362-3c-1.1749-1.65-2.5911-3-3.147-3-0.55598 0-3.5628-2.1939-6.6819-4.8752-3.1191-2.6814-7.6441-6.1689-10.056-7.75-8.1616-5.3512-9.0374-5.9986-11.417-8.4386-4.1007-4.205-14.369-11.975-18.699-14.149-1.375-0.69042-3.6677-2.3876-5.0949-3.7714-3.88-3.7622-7.9764-7.036-11.913-9.5211-1.9368-1.2226-4.1324-2.9592-4.8792-3.859s-1.8603-1.636-2.4745-1.636c-0.61422 0-2.2466-1.1238-3.6276-2.4972-4.3741-4.3505-17.413-14.727-19.963-15.887-1.3489-0.61357-3.5418-2.0726-4.8733-3.2423-6.7184-5.9024-9.106-7.8524-14.025-11.455-2.9427-2.1552-5.7348-3.9185-6.2046-3.9185-0.46977 0-2.055-1.0695-3.5228-2.3768-7.0612-6.2886-14.54-12.284-21.36-17.123-4.7539-3.3731-12.544-9.5772-15.562-12.394-1.1-1.0266-3.125-2.4313-4.5-3.1216-2.6659-1.3383-5.4236-3.7205-12.852-11.102-5.5247-5.4897-8.4271-9.961-13.828-21.303l-2.8196-5.9209v-16.158l2.1421-3.5c1.1782-1.925 2.4699-5.075 2.8706-7l0.72848-3.5 5.2157-6c2.8687-3.3 6.0013-7.2148 6.9614-8.6996l1.7456-2.6996 3.168-1.8839c3.5688-2.1222 7.722-5.4634 11.593-9.3266 1.4383-1.4353 3.619-2.9283 4.846-3.3177l2.231-0.70808 2.0682-3.8646h1.2332c1.5139 0 10.556-7.0796 20.481-16.036 1.8065-1.6302 3.772-2.9639 4.368-2.9639s2.5937-1.2375 4.4395-2.75c1.8458-1.5125 5.4034-4.325 7.9058-6.25 2.5024-1.925 5.9046-4.7375 7.5605-6.25s3.573-2.75 4.2602-2.75c1.2905 0 15.976-11.699 18.741-14.929 0.85794-1.0024 2.8829-2.5725 4.5-3.4891 5.4348-3.0805 14.925-10.257 19.355-14.636 1.4215-1.4052 3.7096-3.1023 5.0846-3.7714 4.2171-2.0522 14.526-9.8315 18.699-14.11 1.3067-1.3399 3.4235-3.1399 4.704-4 1.2806-0.8601 4.3013-2.8738 6.7128-4.4748 5.0984-3.385 16.249-12.366 19.922-16.047 1.3957-1.3984 2.9892-2.5425 3.5411-2.5425s3.9099-2.2571 7.4624-5.0157c3.5524-2.7587 7.5839-5.7939 8.9589-6.745 1.375-0.95106 3.3202-2.744 4.3226-3.9843l1.8226-2.255h1.305c0.71774 0 1.916-0.7362 2.6627-1.636 0.74677-0.89981 2.9424-2.6363 4.8792-3.859 4.3674-2.757 8.5161-6.1641 11.878-9.755 1.4162-1.5125 3.08-2.75 3.6972-2.75s1.9785-0.94607 3.025-2.1024c1.0464-1.1563 3.2537-2.7937 4.905-3.6387 2.9012-1.4845 7.992-5.3364 11.884-8.9918 2.1597-2.0285 6.3681-5.122 12.118-8.908 4.7238-3.1102 15.933-12.178 19.538-15.806 1.3957-1.4045 2.8543-2.5536 3.2414-2.5536s2.8451-1.5665 5.4623-3.481 6.472-4.7271 8.5662-6.25 4.981-4.0065 6.4153-5.519 3.1533-2.75 3.82-2.75 1.8232-0.7362 2.57-1.636c0.74677-0.89981 2.9424-2.6363 4.8792-3.859 3.9936-2.5211 8.1475-5.8797 11.657-9.4254 1.3177-1.3312 4.0732-3.2554 6.1232-4.2761 2.0501-1.0207 4.8525-2.536 6.2275-3.3673l2.5-1.5116 15.167 0.57537 3.7015 3.25c2.0358 1.7875 4.1298 3.25 4.6533 3.25h0.95179l1.3808 3.25c0.75945 1.7875 2.4977 4.4375 3.8627 5.8889l2.4818 2.6389 0.6403 5.3611 0.64031 5.3611 4.4382 11 0.54133 50.668 0.54134 50.668 1.6665 1.6634 510.67 1 2.8337 2.0553c1.5585 1.1304 4.3894 2.6861 6.2908 3.4571l3.4571 1.4018 3.5858 3.5858 3.5858 3.5858 1.4019 3.4571c0.771 1.9014 2.3267 4.7323 3.4571 6.2909l2.0552 2.8338v243.66l-2.0776 2.8338c-1.1427 1.5586-2.5693 4.2604-3.1702 6.0039l-1.0924 3.1702-7.7978 7.7977-4.431 1.7649c-2.437 0.97069-5.2657 2.5146-6.2859 3.431l-1.8549 1.6661-510.62 1-1.6665 1.6637-0.53563 52.668-0.53562 52.668-1.8196 4.5c-1.0008 2.475-2.397 7.5675-3.1027 11.317l-1.2831 6.8167-2.3396 2.6833c-1.2868 1.4758-4.2999 4.5958-6.6958 6.9333l-4.3562 4.25-14.332-0.1719z" fill="#3cfe41"/><path d="m433.18 834.18c-1.0596-0.27023-2.6524-1.3876-3.5395-2.4831l-1.6128-1.9918-9.2206-1.0393-4.2604-5.7625h-2.7101l-1.5106-2.3055-1.5106-2.3055-8.1717-2.6969-0.55939-1.7625-0.55938-1.7625-5.7296-1.9974-0.66099-2.0826-0.66098-2.0826-4.7614-1.195-2.8965-4.4206-8.1717-2.6969-0.55939-1.7625-0.55938-1.7625-5.7296-1.9974-1.291-4.0675-2.1983-0.69772c-1.2091-0.38374-3.3236-1.7977-4.6988-3.142-1.3753-1.3444-4.4556-3.9784-6.8452-5.8534l-4.3446-3.4091h-3.8536l-1.15-2.524-1.15-2.524-4.4062-1.1059-1.0645-2.3364-1.0645-2.3364-2.311-0.72165c-1.271-0.39691-3.7891-2.0109-5.5958-3.5867l-3.2848-2.8651h-3.9733l-1.15-2.524-1.15-2.524-4.4062-1.1059-1.0645-2.3364-1.0645-2.3364-3.943-1.2515-1.4851-2.2665-1.4851-2.2665-8.1717-2.6969-1.1394-3.5898-2.1988-0.66313c-2.122-0.63996-3.6739-1.9172-10.275-8.4569l-3.0762-3.0476-7.5758-2.0918-0.97206-3.7172-5.611-1.956-0.66099-2.0826-0.66098-2.0826-4.9195-1.2347-2.0065-3.7492-3.1316-1.6194c-1.7224-0.89069-4.292-2.6954-5.7101-4.0104l-2.5785-2.3909h-3.5633l-1.15-2.524-1.15-2.524-4.5854-1.1509-0.60671-1.9116-0.6067-1.9116-2.9823-1.5422c-1.6403-0.84821-3.8724-2.4323-4.9604-3.5203l-1.9781-1.9781-6.094-1.2188-0.88641-2.3314-0.8864-2.3314-2.4995-0.62734-2.4995-0.62735-0.60671-1.9116-0.6067-1.9116-2.6815-1.3867c-1.4748-0.76265-3.5224-2.3158-4.55-3.4514l-1.8686-2.0647-6.5944-2.1763-3.2099-4.899h-1.2543c-0.68985 0-2.4502-1.2375-3.912-2.75-5.8732-6.077-13.776-12.056-19.465-14.725l-3.1772-1.4909-0.63943-2.0147-0.63943-2.0147-4.9195-1.2347-1.0071-1.8817-1.007-1.8817-3.7166-1.8969c-2.0441-1.0433-4.5738-2.8447-5.6216-4.0033l-1.905-2.1064h-3.7329l-1.1164-2.4502-1.1164-2.4502-5.7243-1.9955v-3.1535l-2.5842-0.9825c-1.4213-0.54038-3.9309-2.3292-5.5769-3.9752l-2.9928-2.9928h-3.71l-4.2724-6h-3.729l-0.61173-1.9274-0.61172-1.9274-3.2057-2.0558c-6.6236-4.2478-11.874-8.7541-16.221-13.921l-4.485-5.3317v-2.8862l-5-1.901v-2.9596c0-3.9039-1.6779-8.2773-3.7906-9.8796l-1.7005-1.2898-0.0045-6.731-0.0045-6.731 4.2777-4.5969 0.61115-3.0557c0.33613-1.6807 0.61115-4.0243 0.61115-5.2081v-2.1523l2.75-2.6074c1.5125-1.4341 5.45-5.6279 8.75-9.3197l6-6.7123 5.3583-2.784 0.6067-1.9116 0.60671-1.9116 4.9991-1.2547 1.8798-4.9441h3.9799l3.3764-2.9645c1.857-1.6305 4.5727-3.4194 6.0348-3.9752l2.6584-1.0107v-3.1535l5.9183-2.0631 0.63519-2.0013 0.6352-2.0013 5.7296-1.9974 0.55938-1.7625 0.55939-1.7625 8.1717-2.6969 2.8965-4.4206 4.7614-1.195 0.66098-2.0826 0.66099-2.0826 5.7296-1.9974 1.1724-3.6938 6.1984-1.3614 3.6055-3.3564c1.983-1.846 4.7305-4.4294 6.1055-5.7407 1.375-1.3114 3.2942-2.6644 4.265-3.0067l1.765-0.62246 0.96024-2.5256 0.96025-2.5256h4.8603l4.1892-3.5c2.3041-1.925 4.6063-3.5 5.116-3.5s1.4236-1.0904 2.0309-2.4231l1.104-2.4231 4.4062-1.1059 2.1704-4.7635 6.11-1.222 1.9781-1.9781c1.0879-1.0879 3.3201-2.6721 4.9604-3.5203l2.9823-1.5422 0.6067-1.9116 0.60671-1.9116 2.2927-0.57544 2.2927-0.57543 2.3-5.048 3.5429-0.032 3.3855-2.984c1.862-1.6412 3.7895-2.984 4.2833-2.984 0.8102 0 3.3571-2.1914 10.831-9.3196 1.375-1.3114 3.3302-2.6782 4.3449-3.0374l1.8449-0.65313 1.0394-3.9746 8.2708-2.1854 2.7568-2.665c1.5163-1.4658 3.979-3.9025 5.4727-5.415 1.4937-1.5125 3.2802-2.75 3.9701-2.75h1.2543l3.2099-4.899 6.5944-2.1763 1.8686-2.0647c1.0277-1.1356 3.0752-2.6887 4.55-3.4514l2.6815-1.3866 0.6067-1.9116 0.60671-1.9116 2.2927-0.57544 2.2927-0.57543 2.3-5.048h3.7329l3.81-4.2904 8.5-3.8032v-3.0104l5.7243-1.9955 1.1164-2.4502 1.1164-2.4502h3.5633l2.5785-2.3909c1.4182-1.315 3.9877-3.1197 5.7101-4.0104l3.1316-1.6194 2.0065-3.7492 4.7099-1.1821 2.3-5.048h2.9968l3.1781-4.8504 3.0314-1.0568c3.0486-1.0627 8.1652-4.8625 12.874-9.561 1.3957-1.3926 3.0728-2.5319 3.727-2.5319h1.1893l3.2099-4.899 6.5944-2.1763 1.8686-2.0647c1.0277-1.1356 3.0752-2.6887 4.55-3.4514l2.6815-1.3866 0.6067-1.9116 0.60671-1.9116 2.2927-0.57544 2.2927-0.57543 1.0855-2.3824 1.0855-2.3824 8.1377-1.3013 3.2642-4.9818h12.968l2.8246 2.75c1.5536 1.5125 4.4341 4.0318 6.4012 5.5985l3.5766 2.8485v2.9158l5.744 5.3873 0.53897 7.5 0.53896 7.5 1.6851 4.5c0.92679 2.475 2.059 6.75 2.516 9.5l0.83094 5 0.146 88.1 2.4 2.4h507.14l3.6036 2.4487c1.982 1.3468 4.8989 2.7514 6.4821 3.1214l2.8786 0.67271 11.327 11.024 1.1974 6.383 2.2376 2.4016 2.2375 2.4016 0.2622 118.46 0.2621 118.46-2.4213 3.6589c-1.3317 2.0124-2.8754 5.3035-3.4304 7.3136l-1.0091 3.6547-10.442 9.5079-3.7936 1.1247c-2.0865 0.61859-5.0094 2.0811-6.4954 3.25l-2.7019 2.1253h-507.49l-2.1246 2.5599-0.39629 49.97-0.39628 49.97-4.5108 11.971-1.6026 15.897-5.2143 3.7984v2.8761l-4.7795 2.1777-1.0888 2.3897-1.0888 2.3897-6.7714-0.116c-3.7243-0.0638-7.6384-0.3371-8.6981-0.60734z" fill="#02fe0a"/></g></svg>
